<svg width="226" height="82" viewBox="0 0 226 82" fill="none" xmlns="http://www.w3.org/2000/svg">
<rect width="8" height="8" rx="1" transform="matrix(-1 0 0 1 67.9258 9.5)" fill="black"/>
<rect width="8" height="8" rx="1" transform="matrix(-1 0 0 1 51.9258 9.5)" fill="black"/>
<rect width="8" height="8" rx="1" transform="matrix(-1 0 0 1 35.9258 9.5)" fill="black"/>
<rect width="8" height="8" rx="1" transform="matrix(-1 0 0 1 67.9258 25.5)" fill="black"/>
<rect width="8" height="8" rx="1" transform="matrix(-1 0 0 1 51.9258 25.5)" fill="black"/>
<rect width="8" height="8" rx="1" transform="matrix(-1 0 0 1 35.9258 25.5)" fill="black"/>
<rect width="8" height="8" rx="1" transform="matrix(-1 0 0 1 59.9258 33.5)" fill="black"/>
<rect width="8" height="8" rx="1" transform="matrix(-1 0 0 1 43.9258 33.5)" fill="black"/>
<rect width="8" height="8" rx="1" transform="matrix(-1 0 0 1 27.9258 33.5)" fill="black"/>
<rect width="8" height="8" rx="1" transform="matrix(-1 0 0 1 11.9258 33.5)" fill="black"/>
<rect width="8" height="8" rx="1" transform="matrix(-1 0 0 1 59.9258 65.5)" fill="black"/>
<rect width="8" height="8" rx="1" transform="matrix(-1 0 0 1 43.9258 65.5)" fill="black"/>
<rect width="8" height="8" rx="1" transform="matrix(-1 0 0 1 27.9258 65.5)" fill="black"/>
<rect width="8" height="8" rx="1" transform="matrix(-1 0 0 1 11.9258 65.5)" fill="black"/>
<rect width="8" height="8" rx="1" transform="matrix(-1 0 0 1 59.9258 17.5)" fill="black"/>
<rect width="8" height="8" rx="1" transform="matrix(-1 0 0 1 43.9258 17.5)" fill="black"/>
<path fill-rule="evenodd" clip-rule="evenodd" d="M12.535 21.5232C12.9254 21.1328 13.5585 21.133 13.9491 21.5232L18.1922 25.7664C18.5825 26.1569 18.5827 26.79 18.1922 27.1805L13.9491 31.4226C13.5585 31.813 12.9255 31.8131 12.535 31.4226L8.29282 27.1805C7.90235 26.79 7.90244 26.1569 8.29282 25.7664L12.535 21.5232ZM4.53501 13.5232C4.92545 13.1328 5.55853 13.133 5.94907 13.5232L10.1922 17.7664C10.5825 18.1569 10.5827 18.79 10.1922 19.1805L5.94907 23.4226C5.55854 23.813 4.92549 23.8131 4.53501 23.4226L0.292822 19.1805C-0.0976549 18.79 -0.0975597 18.1569 0.292822 17.7664L4.53501 13.5232ZM20.535 13.5232C20.9254 13.1328 21.5585 13.133 21.9491 13.5232L26.1922 17.7664C26.5825 18.1569 26.5827 18.79 26.1922 19.1805L21.9491 23.4226C21.5585 23.813 20.9255 23.8131 20.535 23.4226L16.2928 19.1805C15.9023 18.79 15.9024 18.1569 16.2928 17.7664L20.535 13.5232ZM12.535 5.52323C12.9254 5.13279 13.5585 5.13297 13.9491 5.52323L18.1922 9.76639C18.5825 10.1569 18.5827 10.79 18.1922 11.1805L13.9491 15.4226C13.5585 15.813 12.9255 15.8131 12.535 15.4226L8.29282 11.1805C7.90235 10.79 7.90244 10.1569 8.29282 9.76639L12.535 5.52323Z" fill="#FF1E3C"/>
<rect width="8" height="8" rx="1" transform="matrix(-1 0 0 1 67.9258 41.5)" fill="black"/>
<rect width="8" height="8" rx="1" transform="matrix(-1 0 0 1 51.9258 41.5)" fill="black"/>
<rect width="8" height="8" rx="1" transform="matrix(-1 0 0 1 35.9258 41.5)" fill="black"/>
<rect width="8" height="8" rx="1" transform="matrix(-1 0 0 1 19.9258 41.5)" fill="black"/>
<rect width="8" height="8" rx="1" transform="matrix(-1 0 0 1 59.9258 49.5)" fill="black"/>
<rect width="8" height="8" rx="1" transform="matrix(-1 0 0 1 43.9258 49.5)" fill="black"/>
<rect width="8" height="8" rx="1" transform="matrix(-1 0 0 1 27.9258 49.5)" fill="black"/>
<rect width="8" height="8" rx="1" transform="matrix(-1 0 0 1 11.9258 49.5)" fill="black"/>
<rect width="8" height="8" rx="1" transform="matrix(-1 0 0 1 67.9258 57.5)" fill="black"/>
<rect width="8" height="8" rx="1" transform="matrix(-1 0 0 1 51.9258 57.5)" fill="black"/>
<rect width="8" height="8" rx="1" transform="matrix(-1 0 0 1 35.9258 57.5)" fill="black"/>
<rect width="8" height="8" rx="1" transform="matrix(-1 0 0 1 19.9258 57.5)" fill="black"/>
<path d="M93.0792 18.2756C92.9656 17.1297 92.4779 16.2396 91.6161 15.6051C90.7544 14.9706 89.5849 14.6534 88.1076 14.6534C87.1038 14.6534 86.2563 14.7955 85.565 15.0795C84.8737 15.3542 84.3434 15.7377 83.9741 16.2301C83.6142 16.7225 83.4343 17.2812 83.4343 17.9062C83.4154 18.4271 83.5243 18.8816 83.761 19.2699C84.0072 19.6581 84.3434 19.9943 84.7695 20.2784C85.1957 20.553 85.6881 20.7945 86.2468 21.0028C86.8055 21.2017 87.4021 21.3722 88.0366 21.5142L90.6502 22.1392C91.9192 22.4233 93.0839 22.8021 94.1445 23.2756C95.2051 23.7491 96.1237 24.3314 96.9002 25.0227C97.6767 25.714 98.2781 26.5284 98.7042 27.4659C99.1398 28.4034 99.3623 29.4782 99.3718 30.6903C99.3623 32.4706 98.9078 34.0142 98.0082 35.321C97.118 36.6184 95.8301 37.6269 94.1445 38.3466C92.4684 39.0568 90.4466 39.4119 88.0792 39.4119C85.7307 39.4119 83.6853 39.0521 81.9428 38.3324C80.2099 37.6127 78.8557 36.5473 77.8803 35.1364C76.9144 33.7159 76.4078 31.9593 76.3604 29.8665H82.3121C82.3784 30.8419 82.6578 31.6562 83.1502 32.3097C83.6521 32.9536 84.3197 33.4413 85.1531 33.7727C85.9959 34.0947 86.9476 34.2557 88.0082 34.2557C89.0498 34.2557 89.9542 34.1042 90.7212 33.8011C91.4978 33.4981 92.0991 33.0767 92.5252 32.5369C92.9514 31.9972 93.1644 31.3769 93.1644 30.6761C93.1644 30.0227 92.9703 29.4735 92.582 29.0284C92.2032 28.5833 91.6445 28.2045 90.9059 27.892C90.1767 27.5795 89.2818 27.2955 88.2212 27.0398L85.0536 26.2443C82.601 25.6477 80.6644 24.715 79.244 23.446C77.8235 22.1771 77.118 20.4678 77.1275 18.3182C77.118 16.5568 77.5868 15.018 78.5337 13.7017C79.4902 12.3854 80.8017 11.358 82.4684 10.6193C84.1351 9.88068 86.029 9.51136 88.1502 9.51136C90.3093 9.51136 92.1938 9.88068 93.8036 10.6193C95.4229 11.358 96.6824 12.3854 97.582 13.7017C98.4817 15.018 98.9457 16.5426 98.9741 18.2756H93.0792ZM111.338 39.4261C109.094 39.4261 107.162 38.9716 105.543 38.0625C103.933 37.1439 102.693 35.8466 101.821 34.1705C100.95 32.4848 100.515 30.4915 100.515 28.1903C100.515 25.946 100.95 23.9763 101.821 22.2812C102.693 20.5862 103.919 19.2652 105.5 18.3182C107.091 17.3712 108.957 16.8977 111.097 16.8977C112.536 16.8977 113.876 17.1297 115.117 17.5938C116.367 18.0483 117.456 18.7348 118.384 19.6534C119.321 20.572 120.051 21.7273 120.571 23.1193C121.092 24.5019 121.353 26.1212 121.353 27.9773V29.6392H102.929V25.8892H115.657C115.657 25.018 115.467 24.2462 115.088 23.5739C114.71 22.9015 114.184 22.3759 113.512 21.9972C112.849 21.6089 112.077 21.4148 111.196 21.4148C110.278 21.4148 109.463 21.6278 108.753 22.054C108.052 22.4706 107.503 23.0341 107.105 23.7443C106.708 24.4451 106.504 25.2263 106.495 26.0881V29.6534C106.495 30.733 106.694 31.6657 107.091 32.4517C107.498 33.2377 108.071 33.8438 108.81 34.2699C109.549 34.696 110.425 34.9091 111.438 34.9091C112.11 34.9091 112.726 34.8144 113.284 34.625C113.843 34.4356 114.321 34.1515 114.719 33.7727C115.117 33.3939 115.42 32.9299 115.628 32.3807L121.225 32.75C120.941 34.0947 120.358 35.2689 119.478 36.2727C118.606 37.267 117.48 38.0436 116.097 38.6023C114.724 39.1515 113.138 39.4261 111.338 39.4261ZM143.056 17.1818L135.429 39H128.61L120.983 17.1818H127.375L131.906 32.7926H132.133L136.65 17.1818H143.056ZM153.393 39.4261C151.149 39.4261 149.217 38.9716 147.598 38.0625C145.988 37.1439 144.747 35.8466 143.876 34.1705C143.005 32.4848 142.569 30.4915 142.569 28.1903C142.569 25.946 143.005 23.9763 143.876 22.2812C144.747 20.5862 145.974 19.2652 147.555 18.3182C149.146 17.3712 151.011 16.8977 153.152 16.8977C154.591 16.8977 155.931 17.1297 157.172 17.5938C158.422 18.0483 159.511 18.7348 160.439 19.6534C161.376 20.572 162.105 21.7273 162.626 23.1193C163.147 24.5019 163.407 26.1212 163.407 27.9773V29.6392H144.984V25.8892H157.711C157.711 25.018 157.522 24.2462 157.143 23.5739C156.764 22.9015 156.239 22.3759 155.566 21.9972C154.904 21.6089 154.132 21.4148 153.251 21.4148C152.333 21.4148 151.518 21.6278 150.808 22.054C150.107 22.4706 149.558 23.0341 149.16 23.7443C148.762 24.4451 148.559 25.2263 148.549 26.0881V29.6534C148.549 30.733 148.748 31.6657 149.146 32.4517C149.553 33.2377 150.126 33.8438 150.865 34.2699C151.603 34.696 152.479 34.9091 153.493 34.9091C154.165 34.9091 154.78 34.8144 155.339 34.625C155.898 34.4356 156.376 34.1515 156.774 33.7727C157.172 33.3939 157.475 32.9299 157.683 32.3807L163.279 32.75C162.995 34.0947 162.413 35.2689 161.532 36.2727C160.661 37.267 159.534 38.0436 158.152 38.6023C156.779 39.1515 155.192 39.4261 153.393 39.4261ZM171.407 26.3864V39H165.356V17.1818H171.123V21.0312H171.379C171.862 19.7623 172.672 18.7585 173.808 18.0199C174.944 17.2718 176.322 16.8977 177.941 16.8977C179.457 16.8977 180.778 17.2292 181.904 17.892C183.031 18.5549 183.907 19.5019 184.532 20.733C185.157 21.9545 185.47 23.4129 185.47 25.108V39H179.419V26.1875C179.428 24.8523 179.087 23.8106 178.396 23.0625C177.705 22.3049 176.753 21.9261 175.541 21.9261C174.726 21.9261 174.007 22.1013 173.382 22.4517C172.766 22.8021 172.283 23.3134 171.933 23.9858C171.592 24.6487 171.417 25.4489 171.407 26.3864ZM199.844 17.1818V21.7273H186.705V17.1818H199.844ZM189.688 11.9545H195.739V32.2955C195.739 32.8542 195.824 33.2898 195.995 33.6023C196.165 33.9053 196.402 34.1184 196.705 34.2415C197.017 34.3646 197.377 34.4261 197.784 34.4261C198.069 34.4261 198.353 34.4025 198.637 34.3551C198.921 34.2983 199.139 34.2557 199.29 34.2273L200.242 38.7301C199.939 38.8248 199.513 38.9337 198.963 39.0568C198.414 39.1894 197.747 39.2699 196.961 39.2983C195.502 39.3551 194.224 39.161 193.125 38.7159C192.036 38.2708 191.189 37.5795 190.583 36.642C189.977 35.7045 189.678 34.5208 189.688 33.0909V11.9545ZM208.306 26.3864V39H202.255V9.90909H208.135V21.0312H208.391C208.883 19.7434 209.679 18.7348 210.777 18.0057C211.876 17.267 213.254 16.8977 214.911 16.8977C216.426 16.8977 217.747 17.2292 218.874 17.892C220.01 18.5455 220.891 19.4877 221.516 20.7188C222.15 21.9403 222.463 23.4034 222.453 25.108V39H216.402V26.1875C216.412 24.8428 216.071 23.7964 215.38 23.0483C214.698 22.3002 213.741 21.9261 212.51 21.9261C211.686 21.9261 210.957 22.1013 210.323 22.4517C209.698 22.8021 209.205 23.3134 208.846 23.9858C208.495 24.6487 208.315 25.4489 208.306 26.3864Z" fill="#FF1E3C"/>
<path d="M93.0792 52.2756C92.9656 51.1297 92.4779 50.2396 91.6161 49.6051C90.7544 48.9706 89.5849 48.6534 88.1076 48.6534C87.1038 48.6534 86.2563 48.7955 85.565 49.0795C84.8737 49.3542 84.3434 49.7377 83.9741 50.2301C83.6142 50.7225 83.4343 51.2812 83.4343 51.9062C83.4154 52.4271 83.5243 52.8816 83.761 53.2699C84.0072 53.6581 84.3434 53.9943 84.7695 54.2784C85.1957 54.553 85.6881 54.7945 86.2468 55.0028C86.8055 55.2017 87.4021 55.3722 88.0366 55.5142L90.6502 56.1392C91.9192 56.4233 93.0839 56.8021 94.1445 57.2756C95.2051 57.7491 96.1237 58.3314 96.9002 59.0227C97.6767 59.714 98.2781 60.5284 98.7042 61.4659C99.1398 62.4034 99.3623 63.4782 99.3718 64.6903C99.3623 66.4706 98.9078 68.0142 98.0082 69.321C97.118 70.6184 95.8301 71.6269 94.1445 72.3466C92.4684 73.0568 90.4466 73.4119 88.0792 73.4119C85.7307 73.4119 83.6853 73.0521 81.9428 72.3324C80.2099 71.6127 78.8557 70.5473 77.8803 69.1364C76.9144 67.7159 76.4078 65.9593 76.3604 63.8665H82.3121C82.3784 64.8419 82.6578 65.6562 83.1502 66.3097C83.6521 66.9536 84.3197 67.4413 85.1531 67.7727C85.9959 68.0947 86.9476 68.2557 88.0082 68.2557C89.0498 68.2557 89.9542 68.1042 90.7212 67.8011C91.4978 67.4981 92.0991 67.0767 92.5252 66.5369C92.9514 65.9972 93.1644 65.3769 93.1644 64.6761C93.1644 64.0227 92.9703 63.4735 92.582 63.0284C92.2032 62.5833 91.6445 62.2045 90.9059 61.892C90.1767 61.5795 89.2818 61.2955 88.2212 61.0398L85.0536 60.2443C82.601 59.6477 80.6644 58.715 79.244 57.446C77.8235 56.1771 77.118 54.4678 77.1275 52.3182C77.118 50.5568 77.5868 49.018 78.5337 47.7017C79.4902 46.3854 80.8017 45.358 82.4684 44.6193C84.1351 43.8807 86.029 43.5114 88.1502 43.5114C90.3093 43.5114 92.1938 43.8807 93.8036 44.6193C95.4229 45.358 96.6824 46.3854 97.582 47.7017C98.4817 49.018 98.9457 50.5426 98.9741 52.2756H93.0792ZM111.338 73.4261C109.094 73.4261 107.162 72.9716 105.543 72.0625C103.933 71.1439 102.693 69.8466 101.821 68.1705C100.95 66.4848 100.515 64.4915 100.515 62.1903C100.515 59.946 100.95 57.9763 101.821 56.2812C102.693 54.5862 103.919 53.2652 105.5 52.3182C107.091 51.3712 108.957 50.8977 111.097 50.8977C112.536 50.8977 113.876 51.1297 115.117 51.5938C116.367 52.0483 117.456 52.7348 118.384 53.6534C119.321 54.572 120.051 55.7273 120.571 57.1193C121.092 58.5019 121.353 60.1212 121.353 61.9773V63.6392H102.929V59.8892H115.657C115.657 59.018 115.467 58.2462 115.088 57.5739C114.71 56.9015 114.184 56.3759 113.512 55.9972C112.849 55.6089 112.077 55.4148 111.196 55.4148C110.278 55.4148 109.463 55.6278 108.753 56.054C108.052 56.4706 107.503 57.0341 107.105 57.7443C106.708 58.4451 106.504 59.2263 106.495 60.0881V63.6534C106.495 64.733 106.694 65.6657 107.091 66.4517C107.498 67.2377 108.071 67.8438 108.81 68.2699C109.549 68.696 110.425 68.9091 111.438 68.9091C112.11 68.9091 112.726 68.8144 113.284 68.625C113.843 68.4356 114.321 68.1515 114.719 67.7727C115.117 67.3939 115.42 66.9299 115.628 66.3807L121.225 66.75C120.941 68.0947 120.358 69.2689 119.478 70.2727C118.606 71.267 117.48 72.0436 116.097 72.6023C114.724 73.1515 113.138 73.4261 111.338 73.4261ZM129.523 73.4119C128.131 73.4119 126.891 73.1705 125.801 72.6875C124.712 72.1951 123.851 71.4706 123.216 70.5142C122.591 69.5483 122.279 68.3456 122.279 66.9062C122.279 65.6941 122.501 64.6761 122.946 63.8523C123.391 63.0284 123.998 62.3655 124.765 61.8636C125.532 61.3617 126.403 60.983 127.378 60.7273C128.363 60.4716 129.395 60.2917 130.475 60.1875C131.744 60.0549 132.766 59.9318 133.543 59.8182C134.319 59.6951 134.883 59.5152 135.233 59.2784C135.584 59.0417 135.759 58.6913 135.759 58.2273V58.142C135.759 57.2424 135.475 56.5464 134.907 56.054C134.348 55.5616 133.552 55.3153 132.52 55.3153C131.431 55.3153 130.565 55.5568 129.921 56.0398C129.277 56.5133 128.851 57.1098 128.642 57.8295L123.046 57.375C123.33 56.0492 123.889 54.9034 124.722 53.9375C125.555 52.9621 126.63 52.214 127.946 51.6932C129.272 51.1629 130.806 50.8977 132.549 50.8977C133.761 50.8977 134.921 51.0398 136.029 51.3239C137.146 51.608 138.136 52.0483 138.998 52.6449C139.869 53.2415 140.555 54.0085 141.057 54.946C141.559 55.8741 141.81 56.9867 141.81 58.2841V73H136.071V69.9744H135.901C135.551 70.6562 135.082 71.2576 134.495 71.7784C133.908 72.2898 133.202 72.6922 132.378 72.9858C131.554 73.2699 130.603 73.4119 129.523 73.4119ZM131.256 69.2358C132.146 69.2358 132.932 69.0606 133.614 68.7102C134.296 68.3504 134.831 67.8674 135.219 67.2614C135.607 66.6553 135.801 65.9687 135.801 65.2017V62.8864C135.612 63.0095 135.352 63.1231 135.02 63.2273C134.698 63.322 134.334 63.4119 133.926 63.4972C133.519 63.5729 133.112 63.6439 132.705 63.7102C132.298 63.767 131.928 63.8191 131.597 63.8665C130.887 63.9706 130.266 64.1364 129.736 64.3636C129.206 64.5909 128.794 64.8987 128.5 65.2869C128.207 65.6657 128.06 66.1392 128.06 66.7074C128.06 67.5312 128.358 68.161 128.955 68.5966C129.561 69.0227 130.328 69.2358 131.256 69.2358ZM150.556 43.9091V73H144.505V43.9091H150.556Z" fill="black"/>
</svg>
