<svg width="157" height="93" viewBox="0 0 157 93" fill="none" xmlns="http://www.w3.org/2000/svg">
<g opacity="0.5">
<path d="M126.261 37.798V37.5359C126.467 37.5269 126.62 37.509 126.718 37.4821C126.821 37.4552 126.889 37.4014 126.92 37.3208C126.956 37.2401 126.974 37.1192 126.974 36.9579V33.8797C126.974 33.7184 126.956 33.5996 126.92 33.5235C126.889 33.4428 126.821 33.3868 126.718 33.3554C126.62 33.3241 126.467 33.3061 126.261 33.3017V33.0396C126.503 33.044 126.819 33.0485 127.209 33.053C127.599 33.0575 128.053 33.0597 128.573 33.0597C128.775 33.0597 128.963 33.0597 129.138 33.0597C129.317 33.0552 129.483 33.053 129.635 33.053C129.792 33.0485 129.933 33.044 130.059 33.0396C130.059 33.2905 130.068 33.5369 130.085 33.7789C130.103 34.0208 130.13 34.2605 130.166 34.498H129.897C129.835 34.2157 129.754 33.9894 129.655 33.8192C129.557 33.6444 129.434 33.519 129.286 33.4428C129.142 33.3622 128.965 33.3218 128.755 33.3218H127.995V37.0318C127.995 37.1707 128.006 37.276 128.029 37.3477C128.051 37.4149 128.096 37.4597 128.163 37.4821C128.235 37.5045 128.34 37.5157 128.479 37.5157H128.661C128.916 37.5157 129.136 37.4664 129.319 37.3678C129.507 37.2693 129.671 37.1124 129.81 36.8974C129.949 36.6778 130.072 36.3911 130.18 36.0371H130.455C130.419 36.3507 130.392 36.6532 130.374 36.9444C130.361 37.2312 130.357 37.5157 130.361 37.798C130.141 37.789 129.884 37.7845 129.588 37.7845C129.292 37.7801 128.945 37.7778 128.546 37.7778C128.031 37.7778 127.581 37.7801 127.195 37.7845C126.81 37.7845 126.499 37.789 126.261 37.798ZM127.78 35.533V35.2776H128.997V35.533H127.78ZM129.151 36.4067C129.129 36.2006 129.086 36.0349 129.024 35.9094C128.965 35.7795 128.882 35.6854 128.775 35.6271C128.672 35.5644 128.537 35.533 128.372 35.533V35.2776C128.596 35.2776 128.768 35.2059 128.889 35.0626C129.015 34.9147 129.095 34.6951 129.131 34.4039H129.386C129.369 34.6683 129.36 34.8721 129.36 35.0155C129.36 35.1544 129.36 35.2843 129.36 35.4053C129.36 35.4994 129.362 35.5935 129.366 35.6876C129.371 35.7772 129.375 35.8803 129.38 35.9968C129.389 36.1088 129.398 36.2454 129.407 36.4067H129.151Z" fill="white"/>
<path d="M122.431 37.798V37.5359C122.624 37.5269 122.765 37.509 122.855 37.4821C122.945 37.4552 123.005 37.4014 123.036 37.3208C123.068 37.2401 123.083 37.1192 123.083 36.9579V33.8797C123.083 33.7139 123.068 33.5929 123.036 33.5167C123.005 33.4406 122.945 33.3868 122.855 33.3554C122.765 33.3241 122.624 33.3061 122.431 33.3017V33.0396C122.557 33.044 122.72 33.0485 122.922 33.053C123.128 33.0575 123.354 33.0597 123.601 33.0597C123.874 33.0597 124.114 33.0575 124.32 33.053C124.531 33.0485 124.696 33.044 124.817 33.0396V33.3017C124.607 33.3061 124.45 33.3241 124.347 33.3554C124.248 33.3823 124.183 33.4361 124.152 33.5167C124.121 33.5929 124.105 33.7139 124.105 33.8797V36.9579C124.105 37.1192 124.121 37.2401 124.152 37.3208C124.183 37.397 124.248 37.4507 124.347 37.4821C124.45 37.509 124.607 37.5269 124.817 37.5359V37.798C124.696 37.789 124.531 37.7845 124.32 37.7845C124.114 37.7801 123.874 37.7778 123.601 37.7778C123.35 37.7778 123.124 37.7801 122.922 37.7845C122.72 37.7845 122.557 37.789 122.431 37.798ZM119.34 37.798V37.5359C119.55 37.5269 119.705 37.509 119.804 37.4821C119.907 37.4552 119.974 37.4014 120.005 37.3208C120.037 37.2401 120.052 37.1192 120.052 36.9579V33.8797C120.052 33.7139 120.037 33.5929 120.005 33.5167C119.974 33.4406 119.907 33.3868 119.804 33.3554C119.705 33.3241 119.55 33.3061 119.34 33.3017V33.0396C119.461 33.044 119.629 33.0485 119.844 33.053C120.059 33.0575 120.305 33.0597 120.583 33.0597C120.825 33.0597 121.045 33.0575 121.242 33.053C121.444 33.0485 121.603 33.044 121.719 33.0396V33.3017C121.531 33.3061 121.39 33.3241 121.296 33.3554C121.206 33.3823 121.146 33.4361 121.114 33.5167C121.087 33.5929 121.074 33.7139 121.074 33.8797V36.9579C121.074 37.1192 121.087 37.2401 121.114 37.3208C121.146 37.397 121.206 37.4507 121.296 37.4821C121.39 37.509 121.531 37.5269 121.719 37.5359V37.798C121.603 37.789 121.444 37.7845 121.242 37.7845C121.04 37.7801 120.816 37.7778 120.57 37.7778C120.292 37.7778 120.048 37.7801 119.837 37.7845C119.627 37.7845 119.461 37.789 119.34 37.798ZM120.664 35.5397V35.2776H123.493V35.5397H120.664Z" fill="white"/>
<path d="M114.414 37.798V37.5359C114.674 37.5314 114.869 37.5157 114.999 37.4888C115.133 37.4575 115.223 37.397 115.268 37.3074C115.312 37.2177 115.335 37.0833 115.335 36.9041V33.3218H115.12C114.923 33.3218 114.752 33.3689 114.609 33.463C114.466 33.5526 114.342 33.7004 114.239 33.9066C114.136 34.1127 114.047 34.3837 113.97 34.7198H113.702C113.742 34.4375 113.771 34.1575 113.789 33.8797C113.807 33.6019 113.818 33.3218 113.823 33.0396C114.02 33.044 114.235 33.0485 114.468 33.053C114.705 33.0575 114.943 33.0597 115.18 33.0597C115.422 33.0597 115.644 33.0597 115.846 33.0597C116.043 33.0597 116.26 33.0597 116.498 33.0597C116.735 33.0597 116.973 33.0575 117.21 33.053C117.452 33.0485 117.672 33.044 117.869 33.0396C117.873 33.3218 117.884 33.6019 117.902 33.8797C117.92 34.1575 117.949 34.4375 117.99 34.7198H117.721C117.663 34.4689 117.598 34.2538 117.526 34.0746C117.454 33.8954 117.371 33.752 117.277 33.6444C117.188 33.5324 117.085 33.4518 116.968 33.4025C116.852 33.3487 116.717 33.3218 116.565 33.3218H116.356V36.9041C116.356 37.0833 116.379 37.2177 116.424 37.3074C116.468 37.397 116.556 37.4575 116.686 37.4888C116.82 37.5157 117.017 37.5314 117.277 37.5359V37.798C117.12 37.7935 116.914 37.789 116.659 37.7845C116.408 37.7801 116.141 37.7778 115.859 37.7778C115.559 37.7778 115.281 37.7801 115.026 37.7845C114.77 37.789 114.566 37.7935 114.414 37.798Z" fill="white"/>
<path d="M106.256 37.845L104.583 33.5235H104.482V36.7428C104.482 36.9444 104.5 37.1012 104.536 37.2133C104.571 37.3208 104.645 37.3992 104.757 37.4485C104.874 37.4933 105.049 37.5224 105.282 37.5359V37.798C105.192 37.789 105.064 37.7845 104.898 37.7845C104.733 37.7801 104.556 37.7778 104.367 37.7778C104.184 37.7778 104.016 37.7801 103.863 37.7845C103.711 37.7845 103.59 37.789 103.5 37.798V37.5359C103.698 37.5224 103.848 37.4933 103.951 37.4485C104.054 37.3992 104.123 37.323 104.159 37.22C104.195 37.1124 104.213 36.9646 104.213 36.7764V33.8797C104.213 33.7139 104.195 33.5929 104.159 33.5167C104.128 33.4406 104.061 33.3868 103.958 33.3554C103.859 33.3241 103.707 33.3061 103.5 33.3017V33.0396C103.599 33.044 103.729 33.0485 103.89 33.053C104.056 33.0575 104.238 33.0597 104.435 33.0597C104.641 33.0597 104.833 33.0575 105.013 33.053C105.192 33.0485 105.349 33.044 105.483 33.0396L106.841 36.5949L106.626 36.7092L107.876 33.0396C108.046 33.0485 108.201 33.0552 108.34 33.0597C108.478 33.0597 108.62 33.0597 108.763 33.0597C108.983 33.0597 109.191 33.0575 109.388 33.053C109.585 33.0485 109.742 33.044 109.859 33.0396V33.3017C109.652 33.3061 109.498 33.3241 109.395 33.3554C109.292 33.3823 109.224 33.4361 109.193 33.5167C109.162 33.5929 109.146 33.7139 109.146 33.8797V36.9579C109.146 37.1192 109.162 37.2401 109.193 37.3208C109.229 37.397 109.296 37.4507 109.395 37.4821C109.498 37.509 109.652 37.5269 109.859 37.5359V37.798C109.729 37.789 109.556 37.7845 109.341 37.7845C109.13 37.7801 108.9 37.7778 108.649 37.7778C108.384 37.7778 108.147 37.7801 107.936 37.7845C107.73 37.7845 107.567 37.789 107.446 37.798V37.5359C107.643 37.5269 107.788 37.509 107.883 37.4821C107.981 37.4507 108.046 37.3947 108.077 37.3141C108.109 37.2334 108.124 37.1147 108.124 36.9579V33.4159H108.024L106.498 37.845H106.256Z" fill="white"/>
<path d="M96.9712 37.7982V37.536C97.1235 37.5136 97.2535 37.4711 97.361 37.4083C97.4685 37.3411 97.5671 37.2448 97.6567 37.1193C97.7463 36.9894 97.8382 36.8191 97.9323 36.6085L99.4915 32.9927H99.7402L101.548 36.9446C101.647 37.1552 101.754 37.3053 101.871 37.3949C101.992 37.48 102.158 37.5271 102.368 37.536V37.7982C102.229 37.7892 102.054 37.7847 101.844 37.7847C101.633 37.7802 101.389 37.778 101.111 37.778C100.807 37.778 100.544 37.7802 100.325 37.7847C100.105 37.7847 99.9374 37.7892 99.8209 37.7982V37.536C100.045 37.5316 100.211 37.5092 100.318 37.4688C100.43 37.4285 100.493 37.3658 100.506 37.2806C100.52 37.1955 100.493 37.0768 100.426 36.9244L99.1555 34.1151L99.3101 34.0344L98.3221 36.3464C98.2101 36.6108 98.1541 36.8303 98.1541 37.0051C98.1541 37.1753 98.2146 37.3053 98.3355 37.3949C98.4565 37.48 98.6402 37.5271 98.8867 37.536V37.7982C98.7298 37.7937 98.5887 37.7914 98.4632 37.7914C98.3378 37.787 98.219 37.7847 98.107 37.7847C97.9995 37.7802 97.8875 37.778 97.771 37.778C97.6276 37.778 97.4909 37.7802 97.361 37.7847C97.2311 37.7847 97.1011 37.7892 96.9712 37.7982ZM98.2011 36.2725L98.3154 36.0171H100.399L100.513 36.2725H98.2011Z" fill="white"/>
<path d="M90.8516 37.798V37.5359C91.0622 37.5269 91.2167 37.509 91.3153 37.4821C91.4184 37.4552 91.4856 37.4014 91.5169 37.3208C91.5483 37.2401 91.564 37.1192 91.564 36.9579V33.8797C91.564 33.7184 91.5461 33.5996 91.5102 33.5235C91.4788 33.4428 91.4116 33.3868 91.3086 33.3554C91.21 33.3241 91.0577 33.3061 90.8516 33.3017V33.0396C90.9725 33.044 91.1383 33.0485 91.3489 33.053C91.564 33.0575 91.8127 33.0597 92.0949 33.0597C92.3548 33.0597 92.5878 33.0575 92.7939 33.053C93.0045 33.0485 93.1725 33.044 93.298 33.0396V33.3017C93.0919 33.3061 92.9373 33.3241 92.8342 33.3554C92.7357 33.3823 92.6685 33.4361 92.6326 33.5167C92.6012 33.5974 92.5856 33.7184 92.5856 33.8797V36.9579C92.5856 37.1192 92.6012 37.2401 92.6326 37.3208C92.6685 37.397 92.7357 37.4507 92.8342 37.4821C92.9373 37.509 93.0919 37.5269 93.298 37.5359V37.798C93.1725 37.789 93.0045 37.7845 92.7939 37.7845C92.5878 37.7801 92.3548 37.7778 92.0949 37.7778C91.8127 37.7778 91.564 37.7801 91.3489 37.7845C91.1383 37.7845 90.9725 37.789 90.8516 37.798Z" fill="white"/>
<path d="M85.1746 37.8924C84.9102 37.8924 84.6862 37.8655 84.5025 37.8118C84.3233 37.758 84.1754 37.7065 84.0589 37.6572C83.9469 37.6034 83.855 37.5765 83.7833 37.5765C83.7296 37.5765 83.6848 37.5989 83.6489 37.6437C83.6176 37.6886 83.5929 37.7602 83.575 37.8588H83.3062C83.3151 37.7468 83.3196 37.6146 83.3196 37.4623C83.3241 37.3099 83.3263 37.1173 83.3263 36.8843C83.3308 36.6468 83.333 36.3488 83.333 35.9904H83.6019C83.6556 36.5101 83.8102 36.9112 84.0656 37.1934C84.321 37.4712 84.6571 37.6101 85.0738 37.6101C85.356 37.6101 85.5778 37.5429 85.7391 37.4085C85.9004 37.2741 85.9811 37.0881 85.9811 36.8507C85.9811 36.6983 85.9408 36.5617 85.8601 36.4407C85.7839 36.3197 85.6585 36.2077 85.4837 36.1046C85.309 35.9971 85.0782 35.8896 84.7915 35.782C84.4599 35.6611 84.1888 35.5266 83.9782 35.3788C83.7721 35.2309 83.6198 35.0651 83.5212 34.8814C83.4226 34.6977 83.3734 34.4916 83.3734 34.2631C83.3734 33.9943 83.4361 33.7613 83.5615 33.5641C83.687 33.367 83.864 33.2146 84.0925 33.1071C84.321 32.9996 84.5876 32.9458 84.8923 32.9458C85.1387 32.9458 85.3404 32.9727 85.4972 33.0265C85.6585 33.0757 85.7907 33.1273 85.8937 33.181C86.0013 33.2348 86.0909 33.2617 86.1626 33.2617C86.2208 33.2617 86.2656 33.2393 86.297 33.1945C86.3328 33.1497 86.3597 33.078 86.3776 32.9794H86.6465C86.6375 33.0825 86.6285 33.1967 86.6196 33.3222C86.6151 33.4476 86.6106 33.6089 86.6061 33.8061C86.6061 34.0032 86.6061 34.2586 86.6061 34.5723H86.3373C86.288 34.1645 86.1424 33.8374 85.9004 33.591C85.6585 33.3446 85.3583 33.2214 84.9998 33.2214C84.7534 33.2214 84.5607 33.2818 84.4218 33.4028C84.2829 33.5238 84.2135 33.6918 84.2135 33.9069C84.2135 34.0503 84.2516 34.178 84.3277 34.29C84.4084 34.402 84.5406 34.5118 84.7243 34.6193C84.908 34.7224 85.1567 34.8344 85.4703 34.9554C85.9676 35.1391 86.3239 35.3541 86.5389 35.6006C86.7585 35.8425 86.8683 36.1405 86.8683 36.4945C86.8683 36.9246 86.7159 37.2651 86.4112 37.516C86.111 37.767 85.6988 37.8924 85.1746 37.8924Z" fill="white"/>
<path d="M79.5563 36.4605L77.9567 33.799C77.8447 33.6108 77.7304 33.4831 77.6139 33.4159C77.4974 33.3442 77.3383 33.3061 77.1367 33.3017V33.0396C77.3249 33.044 77.5153 33.0485 77.708 33.053C77.9051 33.0575 78.1068 33.0597 78.3129 33.0597C78.5996 33.0597 78.8528 33.0575 79.0724 33.053C79.2964 33.0485 79.4868 33.044 79.6436 33.0396V33.3017C79.3569 33.3061 79.1754 33.3532 79.0992 33.4428C79.0231 33.5324 79.0432 33.6736 79.1597 33.8662L80.2216 35.6406L79.973 35.7884L80.7459 34.3703C80.9341 34.0253 80.9901 33.7654 80.9139 33.5907C80.8422 33.4114 80.6361 33.3151 80.2956 33.3017V33.0396C80.43 33.044 80.5846 33.0485 80.7593 33.053C80.9385 33.0575 81.1446 33.0597 81.3776 33.0597C81.53 33.0597 81.6689 33.0575 81.7943 33.053C81.9243 33.0485 82.0542 33.044 82.1842 33.0396V33.3017C82.0273 33.3241 81.8907 33.3666 81.7742 33.4294C81.6622 33.4876 81.5591 33.5705 81.465 33.678C81.3754 33.7856 81.2813 33.929 81.1827 34.1082L79.8923 36.4605H79.5563ZM78.3532 37.798V37.5359C78.6176 37.5314 78.8147 37.5135 78.9447 37.4821C79.0746 37.4507 79.162 37.3925 79.2068 37.3074C79.2516 37.2177 79.274 37.0833 79.274 36.9041V35.7078L79.852 36.1581L80.2956 35.4658V36.9041C80.2956 37.0833 80.318 37.2177 80.3628 37.3074C80.4076 37.3925 80.495 37.4507 80.6249 37.4821C80.7593 37.5135 80.9565 37.5314 81.2163 37.5359V37.798C81.064 37.7935 80.8601 37.789 80.6047 37.7845C80.3538 37.7801 80.085 37.7778 79.7982 37.7778C79.498 37.7778 79.2202 37.7801 78.9648 37.7845C78.7094 37.789 78.5056 37.7935 78.3532 37.798Z" fill="white"/>
<path d="M71.4204 37.7982V37.536C71.5728 37.5136 71.7027 37.4711 71.8102 37.4083C71.9178 37.3411 72.0163 37.2448 72.1059 37.1193C72.1956 36.9894 72.2874 36.8191 72.3815 36.6085L73.9408 32.9927H74.1894L75.9974 36.9446C76.096 37.1552 76.2035 37.3053 76.32 37.3949C76.441 37.48 76.6067 37.5271 76.8173 37.536V37.7982C76.6784 37.7892 76.5037 37.7847 76.2931 37.7847C76.0825 37.7802 75.8383 37.778 75.5605 37.778C75.2558 37.778 74.9937 37.7802 74.7742 37.7847C74.5546 37.7847 74.3866 37.7892 74.2701 37.7982V37.536C74.4941 37.5316 74.6599 37.5092 74.7674 37.4688C74.8795 37.4285 74.9422 37.3658 74.9556 37.2806C74.9691 37.1955 74.9422 37.0768 74.875 36.9244L73.6047 34.1151L73.7593 34.0344L72.7713 36.3464C72.6593 36.6108 72.6033 36.8303 72.6033 37.0051C72.6033 37.1753 72.6638 37.3053 72.7848 37.3949C72.9057 37.48 73.0894 37.5271 73.3359 37.536V37.7982C73.1791 37.7937 73.0379 37.7914 72.9125 37.7914C72.787 37.787 72.6683 37.7847 72.5563 37.7847C72.4487 37.7802 72.3367 37.778 72.2202 37.778C72.0768 37.778 71.9402 37.7802 71.8102 37.7847C71.6803 37.7847 71.5503 37.7892 71.4204 37.7982ZM72.6503 36.2725L72.7646 36.0171H74.8481L74.9624 36.2725H72.6503Z" fill="white"/>
<path d="M68.6028 37.8924C68.3384 37.8924 68.1144 37.8655 67.9307 37.8118C67.7515 37.758 67.6036 37.7065 67.4871 37.6572C67.3751 37.6034 67.2833 37.5765 67.2116 37.5765C67.1578 37.5765 67.113 37.5989 67.0771 37.6437C67.0458 37.6886 67.0211 37.7602 67.0032 37.8588H66.7344C66.7433 37.7468 66.7478 37.6146 66.7478 37.4623C66.7523 37.3099 66.7545 37.1173 66.7545 36.8843C66.759 36.6468 66.7613 36.3488 66.7613 35.9904H67.0301C67.0839 36.5101 67.2384 36.9112 67.4938 37.1934C67.7492 37.4712 68.0853 37.6101 68.502 37.6101C68.7843 37.6101 69.0061 37.5429 69.1674 37.4085C69.3287 37.2741 69.4093 37.0881 69.4093 36.8507C69.4093 36.6983 69.369 36.5617 69.2883 36.4407C69.2122 36.3197 69.0867 36.2077 68.912 36.1046C68.7372 35.9971 68.5065 35.8896 68.2197 35.782C67.8881 35.6611 67.6171 35.5266 67.4065 35.3788C67.2004 35.2309 67.048 35.0651 66.9494 34.8814C66.8509 34.6977 66.8016 34.4916 66.8016 34.2631C66.8016 33.9943 66.8643 33.7613 66.9898 33.5641C67.1152 33.367 67.2922 33.2146 67.5207 33.1071C67.7492 32.9996 68.0158 32.9458 68.3205 32.9458C68.567 32.9458 68.7686 32.9727 68.9254 33.0265C69.0867 33.0757 69.2189 33.1273 69.3219 33.181C69.4295 33.2348 69.5191 33.2617 69.5908 33.2617C69.649 33.2617 69.6938 33.2393 69.7252 33.1945C69.761 33.1497 69.7879 33.078 69.8058 32.9794H70.0747C70.0657 33.0825 70.0568 33.1967 70.0478 33.3222C70.0433 33.4476 70.0388 33.6089 70.0344 33.8061C70.0344 34.0032 70.0344 34.2586 70.0344 34.5723H69.7655C69.7162 34.1645 69.5706 33.8374 69.3287 33.591C69.0867 33.3446 68.7865 33.2214 68.4281 33.2214C68.1816 33.2214 67.989 33.2818 67.8501 33.4028C67.7112 33.5238 67.6417 33.6918 67.6417 33.9069C67.6417 34.0503 67.6798 34.178 67.756 34.29C67.8366 34.402 67.9688 34.5118 68.1525 34.6193C68.3362 34.7224 68.5849 34.8344 68.8985 34.9554C69.3959 35.1391 69.7521 35.3541 69.9671 35.6006C70.1867 35.8425 70.2965 36.1405 70.2965 36.4945C70.2965 36.9246 70.1441 37.2651 69.8395 37.516C69.5393 37.767 69.127 37.8924 68.6028 37.8924Z" fill="white"/>
<path d="M59.1008 37.845L57.4273 33.5235H57.3265V36.7428C57.3265 36.9444 57.3444 37.1012 57.3802 37.2133C57.4161 37.3208 57.49 37.3992 57.602 37.4485C57.7185 37.4933 57.8933 37.5224 58.1263 37.5359V37.798C58.0367 37.789 57.909 37.7845 57.7432 37.7845C57.5774 37.7801 57.4004 37.7778 57.2122 37.7778C57.0285 37.7778 56.8605 37.7801 56.7081 37.7845C56.5558 37.7845 56.4348 37.789 56.3452 37.798V37.5359C56.5424 37.5224 56.6925 37.4933 56.7955 37.4485C56.8986 37.3992 56.968 37.323 57.0039 37.22C57.0397 37.1124 57.0576 36.9646 57.0576 36.7764V33.8797C57.0576 33.7139 57.0397 33.5929 57.0039 33.5167C56.9725 33.4406 56.9053 33.3868 56.8022 33.3554C56.7037 33.3241 56.5513 33.3061 56.3452 33.3017V33.0396C56.4438 33.044 56.5737 33.0485 56.735 33.053C56.9008 33.0575 57.0823 33.0597 57.2794 33.0597C57.4855 33.0597 57.6782 33.0575 57.8574 33.053C58.0367 33.0485 58.1935 33.044 58.3279 33.0396L59.6855 36.5949L59.4705 36.7092L60.7206 33.0396C60.8908 33.0485 61.0454 33.0552 61.1843 33.0597C61.3232 33.0597 61.4643 33.0597 61.6077 33.0597C61.8273 33.0597 62.0356 33.0575 62.2328 33.053C62.4299 33.0485 62.5867 33.044 62.7032 33.0396V33.3017C62.4971 33.3061 62.3425 33.3241 62.2395 33.3554C62.1364 33.3823 62.0692 33.4361 62.0379 33.5167C62.0065 33.5929 61.9908 33.7139 61.9908 33.8797V36.9579C61.9908 37.1192 62.0065 37.2401 62.0379 37.3208C62.0737 37.397 62.1409 37.4507 62.2395 37.4821C62.3425 37.509 62.4971 37.5269 62.7032 37.5359V37.798C62.5733 37.789 62.4008 37.7845 62.1857 37.7845C61.9751 37.7801 61.7444 37.7778 61.4935 37.7778C61.2291 37.7778 60.9916 37.7801 60.781 37.7845C60.5749 37.7845 60.4114 37.789 60.2904 37.798V37.5359C60.4876 37.5269 60.6332 37.509 60.7273 37.4821C60.8258 37.4507 60.8908 37.3947 60.9222 37.3141C60.9535 37.2334 60.9692 37.1147 60.9692 36.9579V33.4159H60.8684L59.3428 37.845H59.1008Z" fill="white"/>
<path d="M52.389 37.8924C51.8961 37.8924 51.4637 37.7916 51.0918 37.59C50.7244 37.3839 50.4376 37.0971 50.2315 36.7297C50.0254 36.3623 49.9224 35.9299 49.9224 35.4326C49.9224 34.9397 50.0254 34.5073 50.2315 34.1354C50.4421 33.7635 50.7311 33.4723 51.0985 33.2617C51.4704 33.0511 51.9028 32.9458 52.3957 32.9458C52.8885 32.9458 53.3209 33.0489 53.6928 33.255C54.0647 33.4566 54.3515 33.7411 54.5531 34.1085C54.7592 34.4759 54.8623 34.9083 54.8623 35.4057C54.8623 35.8941 54.7592 36.3264 54.5531 36.7028C54.347 37.0747 54.058 37.3659 53.6861 37.5765C53.3142 37.7871 52.8818 37.8924 52.389 37.8924ZM52.4024 37.6437C52.6712 37.6437 52.9109 37.5519 53.1215 37.3682C53.3321 37.18 53.4957 36.9201 53.6122 36.5886C53.7331 36.2525 53.7936 35.8605 53.7936 35.4124C53.7936 34.9598 53.7309 34.5678 53.6054 34.2362C53.48 33.9047 53.3097 33.6493 53.0947 33.47C52.8841 33.2863 52.6466 33.1945 52.3822 33.1945C52.1134 33.1945 51.8737 33.2886 51.6631 33.4768C51.4525 33.6605 51.2867 33.9203 51.1657 34.2564C51.0492 34.588 50.991 34.9778 50.991 35.4258C50.991 35.8784 51.0537 36.2704 51.1792 36.602C51.3046 36.9336 51.4749 37.1912 51.69 37.3749C51.905 37.5541 52.1425 37.6437 52.4024 37.6437Z" fill="white"/>
<path d="M44.844 37.845L43.1705 33.5235H43.0696V36.7428C43.0696 36.9444 43.0876 37.1012 43.1234 37.2133C43.1592 37.3208 43.2332 37.3992 43.3452 37.4485C43.4617 37.4933 43.6364 37.5224 43.8694 37.5359V37.798C43.7798 37.789 43.6521 37.7845 43.4863 37.7845C43.3206 37.7801 43.1436 37.7778 42.9554 37.7778C42.7717 37.7778 42.6037 37.7801 42.4513 37.7845C42.299 37.7845 42.178 37.789 42.0884 37.798V37.5359C42.2855 37.5224 42.4356 37.4933 42.5387 37.4485C42.6417 37.3992 42.7112 37.323 42.747 37.22C42.7829 37.1124 42.8008 36.9646 42.8008 36.7764V33.8797C42.8008 33.7139 42.7829 33.5929 42.747 33.5167C42.7157 33.4406 42.6485 33.3868 42.5454 33.3554C42.4468 33.3241 42.2945 33.3061 42.0884 33.3017V33.0396C42.187 33.044 42.3169 33.0485 42.4782 33.053C42.644 33.0575 42.8254 33.0597 43.0226 33.0597C43.2287 33.0597 43.4214 33.0575 43.6006 33.053C43.7798 33.0485 43.9366 33.044 44.0711 33.0396L45.4287 36.5949L45.2136 36.7092L46.4637 33.0396C46.634 33.0485 46.7886 33.0552 46.9275 33.0597C47.0664 33.0597 47.2075 33.0597 47.3509 33.0597C47.5704 33.0597 47.7788 33.0575 47.9759 33.053C48.1731 33.0485 48.3299 33.044 48.4464 33.0396V33.3017C48.2403 33.3061 48.0857 33.3241 47.9827 33.3554C47.8796 33.3823 47.8124 33.4361 47.781 33.5167C47.7497 33.5929 47.734 33.7139 47.734 33.8797V36.9579C47.734 37.1192 47.7497 37.2401 47.781 37.3208C47.8169 37.397 47.8841 37.4507 47.9827 37.4821C48.0857 37.509 48.2403 37.5269 48.4464 37.5359V37.798C48.3165 37.789 48.144 37.7845 47.9289 37.7845C47.7183 37.7801 47.4875 37.7778 47.2366 37.7778C46.9723 37.7778 46.7348 37.7801 46.5242 37.7845C46.3181 37.7845 46.1546 37.789 46.0336 37.798V37.5359C46.2307 37.5269 46.3763 37.509 46.4704 37.4821C46.569 37.4507 46.634 37.3947 46.6653 37.3141C46.6967 37.2334 46.7124 37.1147 46.7124 36.9579V33.4159H46.6116L45.0859 37.845H44.844Z" fill="white"/>
<path d="M35.8746 36.4605L34.275 33.799C34.163 33.6108 34.0488 33.4831 33.9323 33.4159C33.8158 33.3442 33.6567 33.3061 33.4551 33.3017V33.0396C33.6433 33.044 33.8337 33.0485 34.0264 33.053C34.2235 33.0575 34.4251 33.0597 34.6312 33.0597C34.918 33.0597 35.1712 33.0575 35.3907 33.053C35.6147 33.0485 35.8052 33.044 35.962 33.0396V33.3017C35.6752 33.3061 35.4938 33.3532 35.4176 33.4428C35.3414 33.5324 35.3616 33.6736 35.4781 33.8662L36.54 35.6406L36.2913 35.7884L37.0642 34.3703C37.2524 34.0253 37.3084 33.7654 37.2323 33.5907C37.1606 33.4114 36.9545 33.3151 36.6139 33.3017V33.0396C36.7483 33.044 36.9029 33.0485 37.0777 33.053C37.2569 33.0575 37.463 33.0597 37.696 33.0597C37.8483 33.0597 37.9872 33.0575 38.1127 33.053C38.2426 33.0485 38.3726 33.044 38.5025 33.0396V33.3017C38.3457 33.3241 38.209 33.3666 38.0925 33.4294C37.9805 33.4876 37.8775 33.5705 37.7834 33.678C37.6938 33.7856 37.5997 33.929 37.5011 34.1082L36.2107 36.4605H35.8746ZM34.6716 37.798V37.5359C34.9359 37.5314 35.1331 37.5135 35.263 37.4821C35.393 37.4507 35.4803 37.3925 35.5251 37.3074C35.5699 37.2177 35.5923 37.0833 35.5923 36.9041V35.7078L36.1703 36.1581L36.6139 35.4658V36.9041C36.6139 37.0833 36.6363 37.2177 36.6811 37.3074C36.7259 37.3925 36.8133 37.4507 36.9433 37.4821C37.0777 37.5135 37.2748 37.5314 37.5347 37.5359V37.798C37.3824 37.7935 37.1785 37.789 36.9231 37.7845C36.6722 37.7801 36.4033 37.7778 36.1166 37.7778C35.8164 37.7778 35.5386 37.7801 35.2832 37.7845C35.0278 37.789 34.8239 37.7935 34.6716 37.798Z" fill="white"/>
<path d="M28.7517 37.845L27.0782 33.5235H26.9774V36.7428C26.9774 36.9444 26.9953 37.1012 27.0311 37.2133C27.067 37.3208 27.1409 37.3992 27.2529 37.4485C27.3694 37.4933 27.5442 37.5224 27.7771 37.5359V37.798C27.6875 37.789 27.5598 37.7845 27.3941 37.7845C27.2283 37.7801 27.0513 37.7778 26.8631 37.7778C26.6794 37.7778 26.5114 37.7801 26.359 37.7845C26.2067 37.7845 26.0857 37.789 25.9961 37.798V37.5359C26.1932 37.5224 26.3433 37.4933 26.4464 37.4485C26.5495 37.3992 26.6189 37.323 26.6547 37.22C26.6906 37.1124 26.7085 36.9646 26.7085 36.7764V33.8797C26.7085 33.7139 26.6906 33.5929 26.6547 33.5167C26.6234 33.4406 26.5562 33.3868 26.4531 33.3554C26.3545 33.3241 26.2022 33.3061 25.9961 33.3017V33.0396C26.0947 33.044 26.2246 33.0485 26.3859 33.053C26.5517 33.0575 26.7332 33.0597 26.9303 33.0597C27.1364 33.0597 27.3291 33.0575 27.5083 33.053C27.6875 33.0485 27.8444 33.044 27.9788 33.0396L29.3364 36.5949L29.1213 36.7092L30.3714 33.0396C30.5417 33.0485 30.6963 33.0552 30.8352 33.0597C30.9741 33.0597 31.1152 33.0597 31.2586 33.0597C31.4781 33.0597 31.6865 33.0575 31.8836 33.053C32.0808 33.0485 32.2376 33.044 32.3541 33.0396V33.3017C32.148 33.3061 31.9934 33.3241 31.8904 33.3554C31.7873 33.3823 31.7201 33.4361 31.6887 33.5167C31.6574 33.5929 31.6417 33.7139 31.6417 33.8797V36.9579C31.6417 37.1192 31.6574 37.2401 31.6887 37.3208C31.7246 37.397 31.7918 37.4507 31.8904 37.4821C31.9934 37.509 32.148 37.5269 32.3541 37.5359V37.798C32.2242 37.789 32.0517 37.7845 31.8366 37.7845C31.626 37.7801 31.3953 37.7778 31.1443 37.7778C30.88 37.7778 30.6425 37.7801 30.4319 37.7845C30.2258 37.7845 30.0623 37.789 29.9413 37.798V37.5359C30.1384 37.5269 30.2841 37.509 30.3782 37.4821C30.4767 37.4507 30.5417 37.3947 30.5731 37.3141C30.6044 37.2334 30.6201 37.1147 30.6201 36.9579V33.4159H30.5193L28.9936 37.845H28.7517Z" fill="white"/>
<path d="M88.7983 61.3986V61.1226C89.0153 61.1132 89.1781 61.0943 89.2866 61.066C89.3951 61.033 89.4659 60.9764 89.4989 60.8962C89.5319 60.8113 89.5484 60.6839 89.5484 60.5141V57.2732C89.5484 57.1034 89.5295 56.9784 89.4918 56.8982C89.4588 56.8132 89.388 56.7543 89.2795 56.7213C89.1757 56.6882 89.0153 56.6694 88.7983 56.6646V56.3887C88.9399 56.3934 89.1144 56.3981 89.322 56.4028C89.5295 56.4028 89.7819 56.4028 90.0791 56.4028C90.2159 56.4028 90.3527 56.4028 90.4895 56.4028C90.6263 56.3981 90.7561 56.3957 90.8787 56.3957C91.0014 56.391 91.1028 56.3887 91.183 56.3887C92.1454 56.3887 92.8718 56.5915 93.3625 56.9972C93.8578 57.4029 94.1055 57.9997 94.1055 58.7875C94.1055 59.3347 93.9875 59.8041 93.7516 60.1956C93.5205 60.5825 93.1856 60.8797 92.7468 61.0872C92.3081 61.2948 91.7821 61.3986 91.1688 61.3986C91.0462 61.3986 90.8976 61.3962 90.7231 61.3915C90.5532 61.3821 90.3409 61.3774 90.0862 61.3774C89.8126 61.3774 89.5602 61.3797 89.3291 61.3844C89.0979 61.3892 88.921 61.3939 88.7983 61.3986ZM91.1972 61.1297C91.8151 61.1297 92.2657 60.9504 92.5487 60.5919C92.8365 60.2287 92.9803 59.6602 92.9803 58.8866C92.9803 58.1035 92.8365 57.5374 92.5487 57.1883C92.2657 56.8345 91.8104 56.6576 91.183 56.6576H90.624V60.5282C90.624 60.6933 90.6381 60.8207 90.6664 60.9103C90.6995 60.9952 90.7561 61.0542 90.8363 61.0872C90.9212 61.1155 91.0415 61.1297 91.1972 61.1297Z" fill="white"/>
<path d="M82.4541 61.3986V61.1226C82.6711 61.1132 82.8315 61.0943 82.9353 61.066C83.0438 61.033 83.1145 60.9764 83.1476 60.8962C83.1853 60.8113 83.2042 60.6839 83.2042 60.5141V57.2732C83.2042 57.1034 83.1853 56.9784 83.1476 56.8982C83.1145 56.8132 83.0438 56.7543 82.9353 56.7213C82.8315 56.6882 82.6711 56.6694 82.4541 56.6646V56.3887C82.539 56.3934 82.6805 56.3981 82.8787 56.4028C83.0815 56.4028 83.3268 56.4028 83.6146 56.4028C83.7797 56.4028 83.9259 56.4028 84.0533 56.4028C84.1807 56.4028 84.2939 56.4028 84.393 56.4028C84.4968 56.3981 84.5887 56.3957 84.6689 56.3957C84.7539 56.391 84.827 56.3887 84.8883 56.3887C85.544 56.3887 86.0394 56.4948 86.3743 56.7071C86.7092 56.9194 86.8767 57.2307 86.8767 57.6412C86.8767 57.9242 86.7918 58.1671 86.622 58.37C86.4521 58.5728 86.2068 58.7285 85.886 58.837C85.57 58.9455 85.1831 58.9998 84.7255 58.9998H83.7986V58.8158H84.7326C85.1006 58.8158 85.3742 58.7262 85.5535 58.5469C85.7327 58.3629 85.8224 58.0846 85.8224 57.7119C85.8224 57.3581 85.7374 57.0963 85.5676 56.9265C85.4025 56.7519 85.1454 56.6646 84.7963 56.6646H84.2797V60.5141C84.2797 60.6792 84.2963 60.8042 84.3293 60.8891C84.367 60.974 84.4401 61.033 84.5486 61.066C84.6571 61.0943 84.8175 61.1132 85.0298 61.1226V61.3986C84.794 61.3844 84.367 61.3774 83.749 61.3774C83.1216 61.3774 82.69 61.3844 82.4541 61.3986ZM86.7352 61.4977C86.4333 61.4977 86.2045 61.4293 86.0488 61.2924C85.8978 61.1509 85.7893 60.9151 85.7233 60.5848L85.5747 59.8348C85.5322 59.6413 85.478 59.4927 85.4119 59.389C85.3506 59.2805 85.2657 59.2026 85.1572 59.1554C85.0534 59.1083 84.9119 59.0847 84.7326 59.0847H83.8481V58.9007H84.6689C85.1265 58.9007 85.4921 58.9361 85.7657 59.0068C86.0394 59.0776 86.2493 59.1979 86.3955 59.3677C86.5418 59.5376 86.6526 59.7758 86.7281 60.0824L86.8342 60.5282C86.8767 60.7075 86.9286 60.8349 86.9899 60.9103C87.0512 60.9858 87.1338 61.0212 87.2376 61.0165C87.2942 61.0165 87.3437 61.007 87.3862 60.9882C87.4334 60.9646 87.4805 60.9292 87.5277 60.882L87.6622 61.0872C87.5395 61.2288 87.4051 61.3325 87.2588 61.3986C87.1126 61.4646 86.938 61.4977 86.7352 61.4977Z" fill="white"/>
<path d="M75.5801 61.3988V61.1228C75.7405 61.0992 75.8773 61.0544 75.9905 60.9884C76.1037 60.9176 76.2075 60.8162 76.3018 60.6841C76.3962 60.5473 76.4929 60.368 76.592 60.1463L78.2336 56.3394H78.4955L80.3989 60.5001C80.5027 60.7219 80.6159 60.8799 80.7386 60.9742C80.866 61.0639 81.0405 61.1134 81.2622 61.1228V61.3988C81.116 61.3894 80.932 61.3847 80.7103 61.3847C80.4886 61.3799 80.2315 61.3776 79.939 61.3776C79.6182 61.3776 79.3422 61.3799 79.1111 61.3847C78.8799 61.3847 78.703 61.3894 78.5804 61.3988V61.1228C78.8162 61.1181 78.9908 61.0945 79.104 61.0521C79.2219 61.0096 79.288 60.9436 79.3021 60.8539C79.3163 60.7643 79.288 60.6393 79.2172 60.4789L77.8798 57.5211L78.0426 57.4362L77.0024 59.8704C76.8844 60.1487 76.8255 60.3798 76.8255 60.5638C76.8255 60.7431 76.8892 60.8799 77.0165 60.9742C77.1439 61.0639 77.3373 61.1134 77.5968 61.1228V61.3988C77.4317 61.3941 77.2831 61.3917 77.151 61.3917C77.0189 61.387 76.8939 61.3847 76.7759 61.3847C76.6627 61.3799 76.5448 61.3776 76.4221 61.3776C76.2712 61.3776 76.1273 61.3799 75.9905 61.3847C75.8537 61.3847 75.7169 61.3894 75.5801 61.3988ZM76.875 59.7925L76.9953 59.5236H79.1889L79.3092 59.7925H76.875Z" fill="white"/>
<path d="M72.8748 61.4481L71.2119 57.2873C71.1222 57.0609 71.0232 56.9029 70.9147 56.8132C70.8109 56.7236 70.6646 56.6741 70.4759 56.6646V56.3887C70.6127 56.3934 70.7826 56.3981 70.9854 56.4028C71.1883 56.4075 71.4147 56.4099 71.6647 56.4099C71.8629 56.4099 72.0421 56.4099 72.2025 56.4099C72.3629 56.4052 72.5044 56.4028 72.6271 56.4028C72.7545 56.3981 72.8559 56.3934 72.9314 56.3887V56.6646C72.7144 56.6694 72.5516 56.6929 72.4431 56.7354C72.3393 56.7731 72.2827 56.8368 72.2733 56.9265C72.2638 57.0161 72.2922 57.1435 72.3582 57.3086L73.4692 60.1249L73.3206 60.1603L74.1202 57.9171C74.2239 57.6341 74.2758 57.4029 74.2758 57.2237C74.2758 57.0397 74.2145 56.9029 74.0919 56.8132C73.9739 56.7189 73.7852 56.6694 73.5258 56.6646V56.3887C73.6862 56.3934 73.83 56.3981 73.9574 56.4028C74.0895 56.4028 74.2145 56.4052 74.3324 56.4099C74.4504 56.4099 74.5683 56.4099 74.6862 56.4099C74.8372 56.4099 74.9811 56.4075 75.1179 56.4028C75.2547 56.3981 75.3891 56.3934 75.5212 56.3887V56.6646C75.3608 56.6835 75.2193 56.7283 75.0967 56.7991C74.9787 56.8651 74.8726 56.9666 74.7782 57.1034C74.6839 57.2355 74.5943 57.4147 74.5093 57.6412L73.1366 61.4481H72.8748ZM70.1504 61.4481L68.4522 57.2873C68.3578 57.0609 68.2446 56.9029 68.1125 56.8132C67.9851 56.7236 67.8106 56.6741 67.5889 56.6646V56.3887C67.7351 56.3934 67.9191 56.3981 68.1408 56.4028C68.3672 56.4075 68.622 56.4099 68.905 56.4099C69.089 56.4099 69.2565 56.4099 69.4074 56.4099C69.5584 56.4052 69.6905 56.4028 69.8037 56.4028C69.9216 56.3981 70.0183 56.3934 70.0938 56.3887V56.6646C69.9051 56.6694 69.7636 56.6929 69.6693 56.7354C69.5796 56.7731 69.5325 56.8392 69.5277 56.9335C69.523 57.0232 69.5537 57.1482 69.6197 57.3086L70.7873 60.2169L70.5892 60.2876L71.6152 57.5633L71.7709 57.9171L70.4052 61.4481H70.1504Z" fill="white"/>
<path d="M61.9146 61.3988V61.1228C62.0749 61.0992 62.2117 61.0544 62.325 60.9884C62.4382 60.9176 62.542 60.8162 62.6363 60.6841C62.7307 60.5473 62.8274 60.368 62.9264 60.1463L64.5681 56.3394H64.8299L66.7334 60.5001C66.8372 60.7219 66.9504 60.8799 67.0731 60.9742C67.2004 61.0639 67.375 61.1134 67.5967 61.1228V61.3988C67.4505 61.3894 67.2665 61.3847 67.0448 61.3847C66.823 61.3799 66.5659 61.3776 66.2735 61.3776C65.9527 61.3776 65.6767 61.3799 65.4456 61.3847C65.2144 61.3847 65.0375 61.3894 64.9148 61.3988V61.1228C65.1507 61.1181 65.3253 61.0945 65.4385 61.0521C65.5564 61.0096 65.6225 60.9436 65.6366 60.8539C65.6508 60.7643 65.6225 60.6393 65.5517 60.4789L64.2143 57.5211L64.3771 57.4362L63.3369 59.8704C63.2189 60.1487 63.16 60.3798 63.16 60.5638C63.16 60.7431 63.2236 60.8799 63.351 60.9742C63.4784 61.0639 63.6718 61.1134 63.9313 61.1228V61.3988C63.7661 61.3941 63.6175 61.3917 63.4855 61.3917C63.3534 61.387 63.2284 61.3847 63.1104 61.3847C62.9972 61.3799 62.8793 61.3776 62.7566 61.3776C62.6057 61.3776 62.4618 61.3799 62.325 61.3847C62.1882 61.3847 62.0514 61.3894 61.9146 61.3988ZM63.2095 59.7925L63.3298 59.5236H65.5234L65.6437 59.7925H63.2095Z" fill="white"/>
<path d="M135.392 46.3661L135.266 46.0734C135.65 45.941 135.946 45.7737 136.155 45.5716C136.364 45.3695 136.469 45.157 136.469 44.934C136.469 44.7876 136.413 44.7144 136.301 44.7144C136.218 44.7144 136.106 44.7388 135.967 44.7876C135.827 44.8294 135.678 44.8503 135.517 44.8503C135.252 44.8503 135.04 44.7702 134.88 44.6099C134.719 44.4496 134.639 44.2371 134.639 43.9723C134.639 43.6865 134.74 43.4566 134.942 43.2823C135.144 43.1081 135.409 43.021 135.737 43.021C136.12 43.021 136.416 43.1464 136.625 43.3973C136.834 43.6482 136.939 44.0001 136.939 44.4531C136.939 44.927 136.813 45.3207 136.563 45.6343C136.312 45.948 135.921 46.1919 135.392 46.3661ZM138.152 46.3661L138.026 46.0734C138.409 45.941 138.706 45.7737 138.915 45.5716C139.124 45.3695 139.228 45.157 139.228 44.934C139.228 44.7876 139.172 44.7144 139.061 44.7144C138.977 44.7144 138.866 44.7388 138.726 44.7876C138.587 44.8294 138.437 44.8503 138.277 44.8503C138.012 44.8503 137.8 44.7702 137.639 44.6099C137.479 44.4496 137.399 44.2371 137.399 43.9723C137.399 43.6865 137.5 43.4566 137.702 43.2823C137.904 43.1081 138.169 43.021 138.496 43.021C138.88 43.021 139.176 43.1464 139.385 43.3973C139.594 43.6482 139.699 44.0001 139.699 44.4531C139.699 44.927 139.573 45.3207 139.322 45.6343C139.071 45.948 138.681 46.1919 138.152 46.3661Z" fill="white"/>
<path d="M125.079 50.8297V50.422C125.365 50.4081 125.577 50.3802 125.717 50.3384C125.863 50.2896 125.957 50.206 125.999 50.0875C126.048 49.9621 126.072 49.7739 126.072 49.523V44.7354C126.072 44.4845 126.048 44.2998 125.999 44.1814C125.95 44.0559 125.856 43.9688 125.717 43.92C125.577 43.8712 125.365 43.8434 125.079 43.8364V43.4287C125.184 43.4357 125.393 43.4426 125.706 43.4496C126.02 43.4496 126.403 43.4496 126.856 43.4496C127.142 43.4496 127.386 43.4496 127.588 43.4496C127.797 43.4496 127.978 43.4496 128.131 43.4496C128.285 43.4426 128.421 43.4392 128.539 43.4392C128.658 43.4322 128.773 43.4287 128.884 43.4287C129.978 43.4287 130.783 43.5751 131.299 43.8678C131.822 44.1604 132.083 44.6204 132.083 45.2476C132.083 45.6797 131.954 46.0455 131.696 46.3452C131.438 46.6379 131.055 46.8609 130.546 47.0142C130.037 47.1675 129.407 47.2442 128.654 47.2442H127.253V47.0142H128.706C129.166 47.0142 129.511 46.8749 129.741 46.5961C129.978 46.3173 130.097 45.9027 130.097 45.3521C130.097 44.8364 129.996 44.4566 129.794 44.2127C129.591 43.9618 129.281 43.8364 128.863 43.8364H128.194V49.523C128.194 49.767 128.215 49.9516 128.257 50.0771C128.306 50.2025 128.4 50.2896 128.539 50.3384C128.686 50.3802 128.902 50.4081 129.187 50.422V50.8297C128.797 50.8088 128.121 50.7984 127.159 50.7984C126.135 50.7984 125.441 50.8088 125.079 50.8297ZM131.633 50.9761C131.076 50.9761 130.668 50.8646 130.41 50.6416C130.152 50.4116 129.971 50.0074 129.867 49.429L129.7 48.4359C129.658 48.1711 129.595 47.9655 129.511 47.8191C129.435 47.6728 129.327 47.5683 129.187 47.5055C129.055 47.4428 128.874 47.4115 128.644 47.4115H127.337V47.1397H128.571C129.309 47.1397 129.909 47.1989 130.369 47.3174C130.835 47.4289 131.194 47.617 131.445 47.8819C131.696 48.1467 131.874 48.5056 131.978 48.9586L132.093 49.4499C132.163 49.7147 132.24 49.9063 132.323 50.0248C132.414 50.1363 132.536 50.1921 132.689 50.1921C132.752 50.1921 132.808 50.1816 132.856 50.1607C132.912 50.1398 132.964 50.1119 133.013 50.0771L133.18 50.4116C132.985 50.6067 132.762 50.7496 132.511 50.8402C132.268 50.9308 131.975 50.9761 131.633 50.9761Z" fill="white"/>
<path d="M116.137 50.8297V50.422C116.429 50.4081 116.645 50.3802 116.785 50.3384C116.924 50.2966 117.015 50.213 117.057 50.0875C117.105 49.9621 117.13 49.7739 117.13 49.523V44.7354C117.13 44.4845 117.105 44.2998 117.057 44.1814C117.015 44.0559 116.921 43.9688 116.774 43.92C116.635 43.8712 116.422 43.8434 116.137 43.8364V43.4287C116.52 43.4357 117.018 43.4426 117.632 43.4496C118.252 43.4566 118.973 43.4601 119.795 43.4601C120.158 43.4601 120.489 43.4601 120.788 43.4601C121.088 43.4531 121.36 43.4496 121.604 43.4496C121.848 43.4426 122.067 43.4357 122.262 43.4287C122.269 43.8608 122.287 44.2859 122.315 44.704C122.343 45.1152 122.384 45.5264 122.44 45.9375H122.022C121.917 45.4706 121.778 45.0838 121.604 44.7772C121.43 44.4706 121.217 44.2441 120.966 44.0977C120.715 43.9444 120.426 43.8678 120.099 43.8678H119.252V49.7321C119.252 49.9203 119.266 50.0631 119.294 50.1607C119.322 50.2513 119.381 50.314 119.471 50.3489C119.562 50.3767 119.691 50.3907 119.858 50.3907H119.973C120.322 50.3907 120.649 50.2966 120.956 50.1084C121.262 49.9203 121.541 49.6415 121.792 49.2722C122.05 48.8958 122.273 48.4394 122.461 47.9028H122.89C122.841 48.4673 122.803 48.9899 122.775 49.4708C122.754 49.9447 122.75 50.3977 122.764 50.8297C122.402 50.8158 121.973 50.8088 121.478 50.8088C120.984 50.8018 120.391 50.7984 119.701 50.7984C118.9 50.7984 118.196 50.8018 117.59 50.8088C116.99 50.8088 116.506 50.8158 116.137 50.8297ZM118.917 47.3069V46.9097H120.872V47.3069H118.917ZM120.903 48.6868C120.869 48.3871 120.795 48.1362 120.684 47.9341C120.572 47.7251 120.426 47.5683 120.245 47.4637C120.071 47.3592 119.858 47.3069 119.607 47.3069V46.9097C119.935 46.9097 120.21 46.7877 120.433 46.5438C120.663 46.2929 120.809 45.955 120.872 45.5298H121.29C121.262 45.934 121.248 46.2511 121.248 46.4811C121.248 46.7041 121.248 46.9132 121.248 47.1083C121.248 47.2477 121.252 47.3906 121.259 47.5369C121.266 47.6763 121.273 47.84 121.28 48.0282C121.294 48.2094 121.308 48.4289 121.322 48.6868H120.903Z" fill="white"/>
<path d="M112.795 50.9029L107.871 44.6204H107.746V48.9899C107.746 49.3523 107.77 49.6346 107.819 49.8366C107.868 50.0318 107.976 50.1712 108.143 50.2548C108.317 50.3384 108.585 50.3942 108.948 50.422V50.8297C108.808 50.8158 108.613 50.8088 108.362 50.8088C108.112 50.8018 107.854 50.7984 107.589 50.7984C107.331 50.7984 107.091 50.8018 106.868 50.8088C106.652 50.8088 106.474 50.8158 106.334 50.8297V50.422C106.62 50.3942 106.833 50.3384 106.972 50.2548C107.112 50.1712 107.206 50.0353 107.254 49.8471C107.303 49.6589 107.328 49.4046 107.328 49.084V44.7354C107.328 44.4775 107.303 44.2894 107.254 44.1709C107.213 44.0524 107.122 43.9688 106.983 43.92C106.843 43.8712 106.627 43.8434 106.334 43.8364V43.4287C106.488 43.4357 106.693 43.4426 106.951 43.4496C107.216 43.4566 107.495 43.4601 107.787 43.4601C108.129 43.4601 108.446 43.4566 108.739 43.4496C109.031 43.4426 109.3 43.4357 109.544 43.4287L112.669 47.3906H112.795V45.2685C112.795 44.9061 112.77 44.6274 112.722 44.4322C112.673 44.2301 112.561 44.0873 112.387 44.0036C112.22 43.9131 111.955 43.8573 111.593 43.8364V43.4287C111.732 43.4357 111.927 43.4426 112.178 43.4496C112.429 43.4566 112.683 43.4601 112.941 43.4601C113.199 43.4601 113.439 43.4566 113.662 43.4496C113.892 43.4426 114.073 43.4357 114.206 43.4287V43.8364C113.92 43.8573 113.708 43.9131 113.568 44.0036C113.429 44.0873 113.335 44.2232 113.286 44.4113C113.237 44.5925 113.213 44.8469 113.213 45.1744V50.9029H112.795Z" fill="white"/>
<path d="M100.211 50.9759C99.4519 50.9759 98.7863 50.8226 98.2149 50.516C97.6504 50.2024 97.2148 49.7633 96.9082 49.1989C96.6016 48.6344 96.4482 47.9688 96.4482 47.2023C96.4482 46.4078 96.6085 45.7179 96.9291 45.1325C97.2566 44.5471 97.7166 44.0941 98.3089 43.7735C98.9013 43.446 99.5947 43.2822 100.389 43.2822C100.786 43.2822 101.124 43.3171 101.403 43.3868C101.689 43.4495 101.929 43.5296 102.124 43.6272C102.32 43.7178 102.483 43.7979 102.616 43.8676C102.755 43.9303 102.877 43.9617 102.982 43.9617C103.093 43.9617 103.18 43.9129 103.243 43.8154C103.306 43.7178 103.351 43.5575 103.379 43.3345H103.797C103.783 43.6063 103.773 43.8746 103.766 44.1394C103.766 44.3973 103.762 44.69 103.755 45.0175C103.755 45.345 103.755 45.7423 103.755 46.2092H103.337C103.288 45.7214 103.156 45.2997 102.94 44.9443C102.731 44.5889 102.459 44.3136 102.124 44.1185C101.79 43.9234 101.403 43.8258 100.964 43.8258C100.476 43.8258 100.058 43.9582 99.7097 44.223C99.3613 44.4879 99.0964 44.8746 98.9152 45.3834C98.7341 45.8851 98.6435 46.5019 98.6435 47.2336C98.6435 48.265 98.8246 49.0734 99.187 49.6588C99.5494 50.2372 100.055 50.5264 100.703 50.5264C100.912 50.5264 101.083 50.4986 101.215 50.4428C101.354 50.3871 101.459 50.3069 101.529 50.2024C101.598 50.0909 101.633 49.955 101.633 49.7947V48.6135C101.633 48.3626 101.609 48.1744 101.56 48.049C101.511 47.9166 101.417 47.826 101.278 47.7772C101.145 47.7214 100.943 47.6866 100.671 47.6727V47.2754C100.818 47.2824 101.048 47.2894 101.361 47.2963C101.682 47.3033 102.079 47.3068 102.553 47.3068C102.985 47.3068 103.351 47.3033 103.651 47.2963C103.95 47.2894 104.184 47.2824 104.351 47.2754V47.6727C104.184 47.6866 104.055 47.718 103.964 47.7667C103.881 47.8155 103.825 47.9026 103.797 48.0281C103.769 48.1465 103.755 48.3277 103.755 48.5717V50.8923H103.337C103.309 50.6832 103.26 50.5369 103.191 50.4533C103.121 50.3627 103.02 50.3174 102.888 50.3174C102.755 50.3174 102.612 50.3487 102.459 50.4115C102.306 50.4742 102.128 50.5508 101.926 50.6414C101.724 50.732 101.483 50.8087 101.205 50.8714C100.926 50.9411 100.595 50.9759 100.211 50.9759Z" fill="white"/>
<path d="M90.3364 50.8297V50.422C90.6291 50.4081 90.8452 50.3802 90.9845 50.3384C91.1239 50.2966 91.2145 50.213 91.2563 50.0875C91.3051 49.9621 91.3295 49.7739 91.3295 49.523V44.7354C91.3295 44.4775 91.3051 44.2894 91.2563 44.1709C91.2145 44.0455 91.1204 43.9618 90.9741 43.92C90.8347 43.8712 90.6222 43.8434 90.3364 43.8364V43.4287C90.5385 43.4357 90.8208 43.4426 91.1832 43.4496C91.5455 43.4566 91.9637 43.4601 92.4376 43.4601C92.8766 43.4601 93.2669 43.4566 93.6083 43.4496C93.9568 43.4426 94.2321 43.4357 94.4342 43.4287V43.8364C94.1484 43.8434 93.9324 43.8712 93.786 43.92C93.6467 43.9618 93.5561 44.0455 93.5143 44.1709C93.4724 44.2894 93.4515 44.4775 93.4515 44.7354V49.523C93.4515 49.7739 93.4724 49.9621 93.5143 50.0875C93.563 50.206 93.6571 50.2896 93.7965 50.3384C93.9359 50.3802 94.1484 50.4081 94.4342 50.422V50.8297C94.2321 50.8158 93.9568 50.8088 93.6083 50.8088C93.2669 50.8018 92.8766 50.7984 92.4376 50.7984C91.9637 50.7984 91.5455 50.8018 91.1832 50.8088C90.8208 50.8088 90.5385 50.8158 90.3364 50.8297Z" fill="white"/>
<path d="M85.4481 50.9759C85.023 50.9759 84.6676 50.9341 84.3819 50.8505C84.1031 50.7738 83.8732 50.6972 83.692 50.6205C83.5178 50.5369 83.3749 50.4951 83.2634 50.4951C83.1728 50.4951 83.0996 50.5299 83.0439 50.5996C82.9951 50.6623 82.9568 50.7704 82.9289 50.9237H82.5107C82.5247 50.7285 82.5316 50.5055 82.5316 50.2547C82.5386 50.0038 82.5421 49.6867 82.5421 49.3034C82.5491 48.9201 82.5526 48.4323 82.5526 47.8399H82.9707C83.0822 48.718 83.3331 49.3835 83.7233 49.8365C84.1136 50.2825 84.6363 50.5055 85.2913 50.5055C85.6886 50.5055 85.9987 50.4184 86.2217 50.2442C86.4517 50.063 86.5667 49.8156 86.5667 49.502C86.5667 49.279 86.5039 49.0804 86.3785 48.9062C86.2531 48.725 86.051 48.5542 85.7722 48.3939C85.5004 48.2337 85.1415 48.0664 84.6955 47.8922C84.2007 47.704 83.7965 47.495 83.4829 47.265C83.1763 47.028 82.9463 46.7632 82.793 46.4705C82.6466 46.1709 82.5735 45.8363 82.5735 45.467C82.5735 45.021 82.678 44.6377 82.8871 44.3171C83.0961 43.9896 83.3923 43.7352 83.7756 43.554C84.1659 43.3728 84.6188 43.2822 85.1345 43.2822C85.5248 43.2822 85.8454 43.324 86.0963 43.4077C86.3541 43.4913 86.5667 43.5749 86.7339 43.6585C86.9012 43.7352 87.0405 43.7735 87.1521 43.7735C87.2426 43.7735 87.3123 43.7422 87.3611 43.6795C87.4169 43.6098 87.4587 43.4948 87.4866 43.3345H87.9047C87.8908 43.5017 87.8768 43.6864 87.8629 43.8885C87.8559 44.0906 87.8489 44.3554 87.842 44.683C87.842 45.0036 87.842 45.4321 87.842 45.9688H87.4238C87.3263 45.2858 87.0824 44.7422 86.6921 44.338C86.3088 43.9338 85.8454 43.7317 85.3018 43.7317C84.9673 43.7317 84.706 43.8154 84.5178 43.9826C84.3296 44.1429 84.2355 44.3694 84.2355 44.6621C84.2355 44.8711 84.2913 45.0558 84.4028 45.2161C84.5143 45.3694 84.7129 45.5227 84.9987 45.6761C85.2844 45.8294 85.6746 46.0036 86.1694 46.1987C86.9081 46.4845 87.4447 46.8294 87.7793 47.2336C88.1138 47.6308 88.281 48.1082 88.281 48.6657C88.281 49.3835 88.0267 49.948 87.5179 50.3592C87.0092 50.7704 86.3193 50.9759 85.4481 50.9759Z" fill="white"/>
<path d="M73.2754 50.8297V50.422C73.5681 50.4081 73.7841 50.3802 73.9235 50.3384C74.0629 50.2966 74.1535 50.213 74.1953 50.0875C74.2441 49.9621 74.2685 49.7739 74.2685 49.523V44.7354C74.2685 44.4845 74.2441 44.2998 74.1953 44.1814C74.1535 44.0559 74.0594 43.9688 73.913 43.92C73.7737 43.8712 73.5611 43.8434 73.2754 43.8364V43.4287C73.6587 43.4357 74.157 43.4426 74.7702 43.4496C75.3905 43.4566 76.1117 43.4601 76.9341 43.4601C77.2965 43.4601 77.6275 43.4601 77.9272 43.4601C78.2268 43.4531 78.4986 43.4496 78.7425 43.4496C78.9864 43.4426 79.206 43.4357 79.4011 43.4287C79.4081 43.8608 79.4255 44.2859 79.4534 44.704C79.4812 45.1152 79.523 45.5264 79.5788 45.9375H79.1607C79.0561 45.4706 78.9167 45.0838 78.7425 44.7772C78.5683 44.4706 78.3557 44.2441 78.1049 44.0977C77.854 43.9444 77.5648 43.8678 77.2372 43.8678H76.3905V49.7321C76.3905 49.9203 76.4044 50.0631 76.4323 50.1607C76.4602 50.2513 76.5194 50.314 76.61 50.3489C76.7006 50.3767 76.8295 50.3907 76.9968 50.3907H77.1118C77.4602 50.3907 77.7878 50.2966 78.0944 50.1084C78.401 49.9203 78.6798 49.6415 78.9307 49.2722C79.1885 48.8958 79.4115 48.4394 79.5997 47.9028H80.0283C79.9795 48.4673 79.9412 48.9899 79.9133 49.4708C79.8924 49.9447 79.8889 50.3977 79.9028 50.8297C79.5405 50.8158 79.1119 50.8088 78.6171 50.8088C78.1223 50.8018 77.5299 50.7984 76.84 50.7984C76.0386 50.7984 75.3347 50.8018 74.7284 50.8088C74.1291 50.8088 73.6447 50.8158 73.2754 50.8297ZM76.056 47.3069V46.9097H78.0108V47.3069H76.056ZM78.0421 48.6868C78.0073 48.3871 77.9341 48.1362 77.8226 47.9341C77.7111 47.7251 77.5648 47.5683 77.3836 47.4637C77.2094 47.3592 76.9968 47.3069 76.7459 47.3069V46.9097C77.0735 46.9097 77.3487 46.7877 77.5717 46.5438C77.8017 46.2929 77.9481 45.955 78.0108 45.5298H78.4289C78.401 45.934 78.3871 46.2511 78.3871 46.4811C78.3871 46.7041 78.3871 46.9132 78.3871 47.1083C78.3871 47.2477 78.3906 47.3906 78.3976 47.5369C78.4045 47.6763 78.4115 47.84 78.4185 48.0282C78.4324 48.2094 78.4463 48.4289 78.4603 48.6868H78.0421Z" fill="white"/>
<path d="M62.9033 50.8297V50.422C63.196 50.4081 63.4121 50.3802 63.5514 50.3384C63.6908 50.2966 63.7814 50.213 63.8232 50.0875C63.872 49.9621 63.8964 49.7739 63.8964 49.523V44.7354C63.8964 44.4845 63.872 44.2998 63.8232 44.1814C63.7744 44.0559 63.6804 43.9688 63.541 43.92C63.4016 43.8712 63.189 43.8434 62.9033 43.8364V43.4287C63.1194 43.4357 63.3911 43.4426 63.7187 43.4496C64.0532 43.4496 64.4678 43.4496 64.9626 43.4496C65.1578 43.4496 65.3599 43.4496 65.5689 43.4496C65.785 43.4426 65.9836 43.4392 66.1648 43.4392C66.3529 43.4322 66.5097 43.4287 66.6352 43.4287C68.1544 43.4287 69.3043 43.7284 70.0848 44.3277C70.8653 44.927 71.2556 45.8051 71.2556 46.962C71.2556 47.7634 71.0709 48.4533 70.7016 49.0317C70.3322 49.6102 69.8026 50.0562 69.1126 50.3698C68.4227 50.6764 67.5934 50.8297 66.6247 50.8297C66.4366 50.8297 66.2136 50.8262 65.9557 50.8193C65.6979 50.8053 65.3668 50.7984 64.9626 50.7984C64.4957 50.7984 64.0741 50.8018 63.6978 50.8088C63.3284 50.8158 63.0636 50.8228 62.9033 50.8297ZM66.8024 50.4325C67.583 50.4325 68.1544 50.1677 68.5168 49.638C68.8792 49.1014 69.0604 48.2582 69.0604 47.1083C69.0604 45.9654 68.8792 45.1326 68.5168 44.6099C68.1544 44.0803 67.569 43.8155 66.7606 43.8155H66.0184V49.544C66.0184 49.7809 66.0393 49.9656 66.0812 50.098C66.123 50.2234 66.1996 50.3105 66.3111 50.3593C66.4296 50.4081 66.5934 50.4325 66.8024 50.4325Z" fill="white"/>
<path d="M51.1912 50.8297V50.422C51.5885 50.422 51.8881 50.4011 52.0902 50.3593C52.2923 50.3105 52.4282 50.2199 52.4979 50.0875C52.5676 49.9482 52.6025 49.7356 52.6025 49.4499V43.8678H52.5188C52.1983 43.8678 51.9125 43.9549 51.6617 44.1291C51.4177 44.3033 51.2017 44.5681 51.0135 44.9235C50.8323 45.272 50.6755 45.7145 50.5431 46.2511H50.125C50.1808 45.7912 50.2226 45.3277 50.2504 44.8608C50.2783 44.3869 50.2923 43.9096 50.2923 43.4287C50.6198 43.4357 50.9822 43.4426 51.3794 43.4496C51.7836 43.4566 52.1843 43.4601 52.5816 43.4601C52.9857 43.4601 53.3481 43.4601 53.6687 43.4601C53.9893 43.4601 54.3482 43.4601 54.7454 43.4601C55.1426 43.4601 55.5399 43.4566 55.9371 43.4496C56.3413 43.4426 56.7037 43.4357 57.0242 43.4287C57.0312 43.9165 57.0486 44.3939 57.0765 44.8608C57.1044 45.3277 57.1462 45.7912 57.202 46.2511H56.7838C56.6793 45.8469 56.5608 45.4985 56.4284 45.2058C56.303 44.9061 56.1601 44.6587 55.9998 44.4636C55.8395 44.2615 55.6583 44.1117 55.4562 44.0141C55.2611 43.9165 55.0451 43.8678 54.8081 43.8678H54.7245V49.4499C54.7245 49.7356 54.7593 49.9482 54.829 50.0875C54.8987 50.2199 55.0346 50.3105 55.2367 50.3593C55.4388 50.4011 55.7385 50.422 56.1357 50.422V50.8297C55.8709 50.8228 55.5155 50.8158 55.0695 50.8088C54.6304 50.8018 54.1705 50.7984 53.6896 50.7984C53.1878 50.7984 52.714 50.8018 52.2679 50.8088C51.8219 50.8158 51.463 50.8228 51.1912 50.8297Z" fill="white"/>
<path d="M45.2704 50.9759C44.8453 50.9759 44.4899 50.9341 44.2042 50.8505C43.9254 50.7738 43.6954 50.6972 43.5142 50.6205C43.34 50.5369 43.1972 50.4951 43.0857 50.4951C42.9951 50.4951 42.9219 50.5299 42.8661 50.5996C42.8173 50.6623 42.779 50.7704 42.7511 50.9237H42.333C42.3469 50.7285 42.3539 50.5055 42.3539 50.2547C42.3609 50.0038 42.3644 49.6867 42.3644 49.3034C42.3713 48.9201 42.3748 48.4323 42.3748 47.8399H42.793C42.9045 48.718 43.1553 49.3835 43.5456 49.8365C43.9359 50.2825 44.4585 50.5055 45.1136 50.5055C45.5108 50.5055 45.821 50.4184 46.044 50.2442C46.2739 50.063 46.3889 49.8156 46.3889 49.502C46.3889 49.279 46.3262 49.0804 46.2008 48.9062C46.0753 48.725 45.8732 48.5542 45.5945 48.3939C45.3227 48.2337 44.9638 48.0664 44.5178 47.8922C44.023 47.704 43.6188 47.495 43.3052 47.265C42.9985 47.028 42.7686 46.7632 42.6153 46.4705C42.4689 46.1709 42.3957 45.8363 42.3957 45.467C42.3957 45.021 42.5003 44.6377 42.7093 44.3171C42.9184 43.9896 43.2146 43.7352 43.5979 43.554C43.9881 43.3728 44.4411 43.2822 44.9568 43.2822C45.3471 43.2822 45.6676 43.324 45.9185 43.4077C46.1764 43.4913 46.3889 43.5749 46.5562 43.6585C46.7234 43.7352 46.8628 43.7735 46.9743 43.7735C47.0649 43.7735 47.1346 43.7422 47.1834 43.6795C47.2391 43.6098 47.281 43.4948 47.3088 43.3345H47.727C47.713 43.5017 47.6991 43.6864 47.6852 43.8885C47.6782 44.0906 47.6712 44.3554 47.6642 44.683C47.6642 45.0036 47.6642 45.4321 47.6642 45.9688H47.2461C47.1485 45.2858 46.9046 44.7422 46.5144 44.338C46.1311 43.9338 45.6676 43.7317 45.1241 43.7317C44.7896 43.7317 44.5282 43.8154 44.3401 43.9826C44.1519 44.1429 44.0578 44.3694 44.0578 44.6621C44.0578 44.8711 44.1136 45.0558 44.2251 45.2161C44.3366 45.3694 44.5352 45.5227 44.8209 45.6761C45.1066 45.8294 45.4969 46.0036 45.9917 46.1987C46.7304 46.4845 47.267 46.8294 47.6015 47.2336C47.936 47.6308 48.1033 48.1082 48.1033 48.6657C48.1033 49.3835 47.8489 49.948 47.3402 50.3592C46.8315 50.7704 46.1415 50.9759 45.2704 50.9759Z" fill="white"/>
<path d="M33.0977 50.8297V50.422C33.3904 50.4081 33.6064 50.3802 33.7458 50.3384C33.8851 50.2966 33.9757 50.213 34.0176 50.0875C34.0663 49.9621 34.0907 49.7739 34.0907 49.523V44.7354C34.0907 44.4845 34.0663 44.2998 34.0176 44.1814C33.9757 44.0559 33.8817 43.9688 33.7353 43.92C33.5959 43.8712 33.3834 43.8434 33.0977 43.8364V43.4287C33.4809 43.4357 33.9792 43.4426 34.5925 43.4496C35.2127 43.4566 35.934 43.4601 36.7563 43.4601C37.1187 43.4601 37.4498 43.4601 37.7494 43.4601C38.0491 43.4531 38.3209 43.4496 38.5648 43.4496C38.8087 43.4426 39.0282 43.4357 39.2234 43.4287C39.2303 43.8608 39.2477 44.2859 39.2756 44.704C39.3035 45.1152 39.3453 45.5264 39.4011 45.9375H38.9829C38.8784 45.4706 38.739 45.0838 38.5648 44.7772C38.3906 44.4706 38.178 44.2441 37.9271 44.0977C37.6762 43.9444 37.387 43.8678 37.0595 43.8678H36.2128V49.7321C36.2128 49.9203 36.2267 50.0631 36.2546 50.1607C36.2825 50.2513 36.3417 50.314 36.4323 50.3489C36.5229 50.3767 36.6518 50.3907 36.8191 50.3907H36.9341C37.2825 50.3907 37.61 50.2966 37.9167 50.1084C38.2233 49.9203 38.5021 49.6415 38.753 49.2722C39.0108 48.8958 39.2338 48.4394 39.422 47.9028H39.8506C39.8018 48.4673 39.7634 48.9899 39.7356 49.4708C39.7147 49.9447 39.7112 50.3977 39.7251 50.8297C39.3627 50.8158 38.9341 50.8088 38.4393 50.8088C37.9446 50.8018 37.3522 50.7984 36.6623 50.7984C35.8608 50.7984 35.157 50.8018 34.5507 50.8088C33.9514 50.8088 33.467 50.8158 33.0977 50.8297ZM35.8783 47.3069V46.9097H37.833V47.3069H35.8783ZM37.8644 48.6868C37.8296 48.3871 37.7564 48.1362 37.6449 47.9341C37.5334 47.7251 37.387 47.5683 37.2058 47.4637C37.0316 47.3592 36.8191 47.3069 36.5682 47.3069V46.9097C36.8957 46.9097 37.171 46.7877 37.394 46.5438C37.624 46.2929 37.7703 45.955 37.833 45.5298H38.2512C38.2233 45.934 38.2094 46.2511 38.2094 46.4811C38.2094 46.7041 38.2094 46.9132 38.2094 47.1083C38.2094 47.2477 38.2129 47.3906 38.2198 47.5369C38.2268 47.6763 38.2338 47.84 38.2407 48.0282C38.2547 48.2094 38.2686 48.4289 38.2825 48.6868H37.8644Z" fill="white"/>
<path d="M23.8521 50.8297V50.422C24.1447 50.4081 24.3608 50.3802 24.5002 50.3384C24.6395 50.2966 24.7301 50.213 24.772 50.0875C24.8207 49.9621 24.8451 49.7739 24.8451 49.523V44.7354C24.8451 44.4845 24.8207 44.2998 24.772 44.1814C24.7232 44.0559 24.6291 43.9688 24.4897 43.92C24.3503 43.8712 24.1378 43.8434 23.8521 43.8364V43.4287C23.9914 43.4357 24.2284 43.4426 24.5629 43.4496C24.9044 43.4496 25.333 43.4496 25.8487 43.4496C26.3504 43.4496 26.7372 43.4461 27.009 43.4392C27.2808 43.4322 27.5073 43.4287 27.6885 43.4287C28.685 43.4287 29.4237 43.5716 29.9046 43.8573C30.3854 44.1361 30.6259 44.5716 30.6259 45.164C30.6259 45.6518 30.4272 46.0421 30.03 46.3348C29.6328 46.6275 29.0335 46.8296 28.232 46.9411V46.9515C29.2077 46.9864 29.9464 47.1675 30.4482 47.4951C30.9499 47.8157 31.2008 48.2686 31.2008 48.854C31.2008 49.4743 30.9116 49.9586 30.3332 50.3071C29.7617 50.6555 28.9638 50.8297 27.9393 50.8297C27.8069 50.8297 27.6571 50.8262 27.4898 50.8193C27.3296 50.8123 27.1205 50.8088 26.8626 50.8088C26.6118 50.8018 26.2738 50.7984 25.8487 50.7984C25.3399 50.7984 24.9148 50.8018 24.5733 50.8088C24.2388 50.8088 23.9984 50.8158 23.8521 50.8297ZM27.6989 50.4011C28.117 50.4011 28.4376 50.2687 28.6606 50.0039C28.8906 49.7391 29.0056 49.3662 29.0056 48.8854C29.0056 48.3348 28.8627 47.9132 28.577 47.6205C28.2913 47.3278 27.8766 47.1815 27.333 47.1815H26.3609V46.7947H27.3539C27.7651 46.7947 28.0892 46.6553 28.3261 46.3766C28.5631 46.0978 28.6815 45.718 28.6815 45.2372C28.6815 44.812 28.577 44.4741 28.3679 44.2232C28.1658 43.9653 27.8766 43.8364 27.5003 43.8364H26.9672V49.523C26.9672 49.753 26.9881 49.9342 27.0299 50.0666C27.0717 50.1921 27.1449 50.2792 27.2494 50.328C27.3609 50.3767 27.5107 50.4011 27.6989 50.4011Z" fill="white"/>
<path d="M20.9814 43.0625L21.1069 43.3656C20.7236 43.4911 20.4274 43.6549 20.2183 43.857C20.0092 44.0591 19.9047 44.2751 19.9047 44.5051C19.9047 44.6514 19.9639 44.7246 20.0824 44.7246C20.166 44.7246 20.2775 44.7037 20.4169 44.6619C20.5563 44.6131 20.7027 44.5887 20.856 44.5887C21.1278 44.5887 21.3403 44.6688 21.4936 44.8291C21.6539 44.9894 21.7341 45.1985 21.7341 45.4563C21.7341 45.7421 21.633 45.9755 21.4309 46.1567C21.2358 46.3309 20.971 46.418 20.6364 46.418C20.2601 46.418 19.9674 46.2891 19.7584 46.0313C19.5493 45.7734 19.4448 45.4215 19.4448 44.9755C19.4448 44.5016 19.5702 44.1078 19.8211 43.7942C20.072 43.4806 20.4587 43.2367 20.9814 43.0625ZM18.2322 43.0625L18.3576 43.3656C17.9743 43.4911 17.6746 43.6549 17.4586 43.857C17.2495 44.0591 17.145 44.2751 17.145 44.5051C17.145 44.6514 17.2042 44.7246 17.3227 44.7246C17.4063 44.7246 17.5178 44.7037 17.6572 44.6619C17.7966 44.6131 17.943 44.5887 18.0963 44.5887C18.3681 44.5887 18.5806 44.6688 18.7339 44.8291C18.8942 44.9894 18.9744 45.1985 18.9744 45.4563C18.9744 45.7421 18.8733 45.9755 18.6712 46.1567C18.4761 46.3309 18.2147 46.418 17.8872 46.418C17.5039 46.418 17.2077 46.2891 16.9987 46.0313C16.7896 45.7734 16.6851 45.4215 16.6851 44.9755C16.6851 44.5016 16.8105 44.1078 17.0614 43.7942C17.3123 43.4806 17.7025 43.2367 18.2322 43.0625Z" fill="white"/>
<path d="M31.0168 9.29043C32.5912 3.98504 37.5826 2.30051 39.8815 2.12142C39.5487 4.07064 37.3099 8.23334 31.0168 9.29043Z" fill="#D9D9D9"/>
<path d="M25.9397 13.6609C24.5355 8.30794 27.9305 4.27978 29.8035 2.93483C30.5294 4.77418 30.773 9.49449 25.9397 13.6609Z" fill="#D9D9D9"/>
<path d="M29.1711 11.9635C33.4597 8.46581 38.5331 9.88444 40.5337 11.031C39.161 12.4544 34.9668 14.6336 29.1711 11.9635Z" fill="#D9D9D9"/>
<path d="M21.0982 17.8549C24.9154 13.8481 30.1264 14.6208 32.2548 15.508C31.071 17.092 27.1824 19.7789 21.0982 17.8549Z" fill="#D9D9D9"/>
<path d="M15.4442 24.7411C18.4313 20.0824 23.6942 19.8517 25.9523 20.3187C25.0908 22.0986 21.783 25.4749 15.4442 24.7411Z" fill="#D9D9D9"/>
<path d="M10.7523 32.7174C13.1756 27.7421 18.3757 26.8992 20.6728 27.0996C20.0248 28.9678 17.1335 32.7069 10.7523 32.7174Z" fill="#D9D9D9"/>
<path d="M8.2046 43.1633C8.41667 37.6332 12.8357 34.7655 15.0187 34.023C15.1788 35.9939 14.0401 40.5813 8.2046 43.1633Z" fill="#D9D9D9"/>
<path d="M7.58125 53.9798C6.55847 48.541 10.2293 44.7626 12.1926 43.5532C12.7868 45.4392 12.6966 50.165 7.58125 53.9798Z" fill="#D9D9D9"/>
<path d="M10.6662 64.7773C8.21653 59.8149 10.7342 55.1875 12.2992 53.494C13.3794 55.1503 14.5652 59.7258 10.6662 64.7773Z" fill="#D9D9D9"/>
<path d="M15.3053 73.6616C12.3717 68.9691 14.4139 64.1131 15.8017 62.2717C17.0422 63.8116 18.6796 68.2455 15.3053 73.6616Z" fill="#D9D9D9"/>
<path d="M21.8109 81.299C18.1648 77.1358 19.4044 72.0158 20.48 69.9761C21.9507 71.298 24.2759 75.4131 21.8109 81.299Z" fill="#D9D9D9"/>
<path d="M29.5981 86.3331C25.0203 83.2235 24.9293 77.9563 25.4561 75.7114C27.2125 76.6198 30.4999 80.016 29.5981 86.3331Z" fill="#D9D9D9"/>
<path d="M33.0743 88.8755C28.998 92.6184 23.8502 91.4994 21.7859 90.472C23.0728 88.9706 27.1322 86.5494 33.0743 88.8755Z" fill="#D9D9D9"/>
<path d="M26.3506 84.9707C21.6215 87.8449 16.7916 85.7416 14.9678 84.3307C16.5232 83.1097 20.9775 81.5284 26.3506 84.9707Z" fill="#D9D9D9"/>
<path d="M18.4248 78.8487C12.9993 79.9399 9.17495 76.3169 7.94094 74.3691C9.81932 73.7511 14.5458 73.7818 18.4248 78.8487Z" fill="#D9D9D9"/>
<path d="M12.192 69.3795C6.67157 68.9916 3.9459 64.4836 3.27312 62.2781C5.24815 62.1808 9.79697 63.4648 12.192 69.3795Z" fill="#D9D9D9"/>
<path d="M8.1124 59.7432C2.89307 57.9034 1.4622 52.8335 1.39917 50.5285C3.32914 50.9591 7.37375 53.4049 8.1124 59.7432Z" fill="#D9D9D9"/>
<path d="M6.92873 48.6478C2.41796 45.4417 2.43876 40.1738 3.01301 37.9406C4.74975 38.8861 7.96432 42.3512 6.92873 48.6478Z" fill="#D9D9D9"/>
<path d="M8.25109 37.2858C4.46181 33.2525 5.52191 28.0923 6.52563 26.0163C8.04159 27.286 10.509 31.3174 8.25109 37.2858Z" fill="#D9D9D9"/>
<path d="M12.4182 28.2998C9.73013 23.4624 12.0198 18.718 13.5006 16.9505C14.6601 18.5523 16.067 23.0647 12.4182 28.2998Z" fill="#D9D9D9"/>
<path d="M18.453 19.8087C16.8934 14.4989 20.1695 10.3735 22.0025 8.97451C22.7817 10.7919 23.1628 15.5031 18.453 19.8087Z" fill="#D9D9D9"/>
<path d="M125.432 9.29043C123.858 3.98504 118.867 2.30051 116.568 2.12142C116.9 4.07064 119.139 8.23334 125.432 9.29043Z" fill="#D9D9D9"/>
<path d="M130.51 13.6609C131.914 8.30794 128.519 4.27978 126.646 2.93483C125.92 4.77418 125.677 9.49449 130.51 13.6609Z" fill="#D9D9D9"/>
<path d="M127.279 11.9635C122.99 8.46581 117.917 9.88444 115.916 11.031C117.289 12.4544 121.483 14.6336 127.279 11.9635Z" fill="#D9D9D9"/>
<path d="M135.352 17.8549C131.534 13.8481 126.323 14.6208 124.195 15.508C125.379 17.092 129.267 19.7789 135.352 17.8549Z" fill="#D9D9D9"/>
<path d="M141.006 24.7411C138.018 20.0824 132.756 19.8517 130.497 20.3187C131.359 22.0986 134.667 25.4749 141.006 24.7411Z" fill="#D9D9D9"/>
<path d="M145.697 32.7174C143.274 27.7421 138.074 26.8992 135.777 27.0996C136.425 28.9678 139.316 32.7069 145.697 32.7174Z" fill="#D9D9D9"/>
<path d="M148.245 43.1633C148.033 37.6332 143.613 34.7655 141.43 34.023C141.27 35.9939 142.409 40.5813 148.245 43.1633Z" fill="#D9D9D9"/>
<path d="M148.868 53.9798C149.891 48.541 146.22 44.7626 144.257 43.5532C143.663 45.4392 143.753 50.165 148.868 53.9798Z" fill="#D9D9D9"/>
<path d="M145.783 64.7773C148.233 59.8149 145.716 55.1875 144.151 53.494C143.07 55.1503 141.885 59.7258 145.783 64.7773Z" fill="#D9D9D9"/>
<path d="M141.144 73.6616C144.078 68.9691 142.035 64.1131 140.647 62.2717C139.407 63.8116 137.77 68.2455 141.144 73.6616Z" fill="#D9D9D9"/>
<path d="M134.638 81.299C138.284 77.1358 137.045 72.0158 135.969 69.9761C134.498 71.298 132.173 75.4131 134.638 81.299Z" fill="#D9D9D9"/>
<path d="M126.852 86.3331C131.429 83.2235 131.52 77.9563 130.994 75.7114C129.237 76.6198 125.95 80.016 126.852 86.3331Z" fill="#D9D9D9"/>
<path d="M123.375 88.8755C127.451 92.6184 132.599 91.4994 134.663 90.472C133.376 88.9706 129.317 86.5494 123.375 88.8755Z" fill="#D9D9D9"/>
<path d="M130.099 84.9707C134.828 87.8449 139.658 85.7416 141.482 84.3307C139.926 83.1097 135.472 81.5284 130.099 84.9707Z" fill="#D9D9D9"/>
<path d="M138.025 78.8487C143.45 79.9399 147.275 76.3169 148.509 74.3691C146.63 73.7511 141.904 73.7818 138.025 78.8487Z" fill="#D9D9D9"/>
<path d="M144.258 69.3795C149.778 68.9916 152.504 64.4836 153.177 62.2781C151.202 62.1808 146.653 63.4648 144.258 69.3795Z" fill="#D9D9D9"/>
<path d="M148.337 59.7432C153.557 57.9034 154.988 52.8335 155.051 50.5285C153.121 50.9591 149.076 53.4049 148.337 59.7432Z" fill="#D9D9D9"/>
<path d="M149.521 48.6478C154.032 45.4417 154.011 40.1738 153.437 37.9406C151.7 38.8861 148.485 42.3512 149.521 48.6478Z" fill="#D9D9D9"/>
<path d="M148.199 37.2858C151.988 33.2525 150.928 28.0923 149.924 26.0163C148.408 27.286 145.941 31.3174 148.199 37.2858Z" fill="#D9D9D9"/>
<path d="M144.031 28.2998C146.72 23.4624 144.43 18.718 142.949 16.9505C141.79 18.5523 140.383 23.0647 144.031 28.2998Z" fill="#D9D9D9"/>
<path d="M137.997 19.8087C139.556 14.4989 136.28 10.3735 134.447 8.97451C133.668 10.7919 133.287 15.5031 137.997 19.8087Z" fill="#D9D9D9"/>
</g>
</svg>
