<svg width="437" height="388" viewBox="0 0 437 388" fill="none" xmlns="http://www.w3.org/2000/svg">
<path opacity="0.3" d="M249.922 81.182C301.374 103.457 344.748 130.975 373.284 157.444C387.554 170.68 398.092 183.634 404.083 195.519C410.075 207.407 411.486 218.158 407.635 227.054C403.783 235.95 394.979 242.278 382.209 246.044C369.444 249.809 352.786 250.99 333.369 249.643C294.541 246.948 244.793 234.151 193.341 211.876C141.889 189.601 98.5144 162.084 69.9786 135.615C55.7091 122.379 45.1716 109.425 39.1811 97.5396C33.189 85.6513 31.7778 74.9008 35.6292 66.0046C39.4806 57.1085 48.2853 50.7806 61.0545 47.0145C73.8201 43.2495 90.4773 42.069 109.893 43.4164C148.722 46.111 198.47 58.9073 249.922 81.182Z" stroke="white"/>
<path opacity="0.2" d="M215.546 162.153C261.14 181.891 299.574 206.276 324.857 229.728C337.501 241.455 346.835 252.93 352.14 263.455C357.446 273.983 358.689 283.491 355.286 291.354C351.882 299.216 344.098 304.816 332.79 308.151C321.485 311.485 306.73 312.533 289.526 311.339C255.123 308.951 211.041 297.613 165.447 277.874C119.853 258.136 81.4188 233.751 56.1352 210.299C43.4917 198.571 34.1578 187.095 28.8531 176.571C23.5469 166.043 22.3035 156.534 25.7073 148.672C29.1112 140.81 36.8953 135.209 48.2031 131.874C59.5076 128.54 74.2627 127.494 91.4664 128.688C125.869 131.075 169.952 142.414 215.546 162.153Z" stroke="white"/>
<path opacity="0.1" d="M188.21 226.932C227.228 243.824 260.116 264.69 281.749 284.756C292.566 294.79 300.548 304.605 305.083 313.602C309.62 322.602 310.676 330.717 307.775 337.42C304.873 344.122 298.233 348.905 288.565 351.756C278.901 354.606 266.283 355.502 251.563 354.481C222.129 352.438 184.407 342.736 145.389 325.844C106.371 308.953 73.4836 288.086 51.8512 268.021C41.0333 257.987 33.0509 248.172 28.5159 239.175C23.9793 230.174 22.9237 222.059 25.8252 215.357C28.7267 208.655 35.366 203.872 45.0337 201.021C54.6978 198.17 67.317 197.275 82.0367 198.296C111.471 200.339 149.192 210.041 188.21 226.932Z" stroke="white"/>
</svg>
