<svg width="220" height="282" viewBox="0 0 220 282" fill="none" xmlns="http://www.w3.org/2000/svg">
<path d="M201.57 158.611H18.4307L110.008 0L201.57 158.611ZM56.0962 136.858H163.905L109.993 43.4906L56.0962 136.858Z" fill="white"/>
<path d="M38.8145 253.545V191.615L48.6045 191.945L21.3245 225.275L18.7945 221.975H69.5045V237.485H10.3245L2.73453 222.965L41.6745 175.885H56.9645V253.545H38.8145ZM110.329 254.645C103.436 254.645 97.5691 253.069 92.7291 249.915C87.8891 246.762 84.1858 242.252 81.6191 236.385C79.0525 230.445 77.7691 223.332 77.7691 215.045C77.7691 206.759 79.0525 199.682 81.6191 193.815C84.1858 187.875 87.8891 183.329 92.7291 180.175C97.5691 177.022 103.436 175.445 110.329 175.445C117.222 175.445 123.089 177.022 127.929 180.175C132.769 183.329 136.472 187.875 139.039 193.815C141.606 199.682 142.889 206.759 142.889 215.045C142.889 223.332 141.606 230.445 139.039 236.385C136.472 242.252 132.769 246.762 127.929 249.915C123.089 253.069 117.222 254.645 110.329 254.645ZM110.329 238.695C115.022 238.695 118.616 236.642 121.109 232.535C123.676 228.429 124.959 222.599 124.959 215.045C124.959 207.199 123.676 201.185 121.109 197.005C118.616 192.825 115.022 190.735 110.329 190.735C105.636 190.735 102.006 192.825 99.4391 197.005C96.8725 201.185 95.5891 207.199 95.5891 215.045C95.5891 222.599 96.8725 228.429 99.4391 232.535C102.006 236.642 105.636 238.695 110.329 238.695ZM185.445 253.545V191.615L195.235 191.945L167.955 225.275L165.425 221.975H216.135V237.485H156.955L149.365 222.965L188.305 175.885H203.595V253.545H185.445Z" fill="white"/>
</svg>
