<svg width="48" height="49" viewBox="0 0 48 49" fill="none" xmlns="http://www.w3.org/2000/svg">
<path d="M30.3828 32.8466L29.125 31.7033L6.8325 43.1356V20.0424L4.88901 18.7849L4.31738 48.7374L30.3828 32.8466Z" fill="#767676"/>
<path d="M32.7979 29.9605L6.21289 45.3092L6.84958 14.8211L32.7979 29.9605ZM8.82394 40.5679L29.4079 29.2476L8.82394 17.3629V40.5679Z" fill="#989898"/>
<path d="M39.9462 18.9343L20.6697 18.6996L14.2559 2.7356L39.9462 18.9343ZM21.9734 16.3558L35.9027 17.2343L17.8078 6.11506L21.9734 16.3558Z" fill="#989898"/>
<path opacity="0.5" d="M32.7869 29.9838L32.3666 29.7131L39.1841 19.1277L39.6045 19.3985L32.7869 29.9838Z" fill="#989898"/>
<path opacity="0.5" d="M21.2977 20.2407L9.7168 41.7354L31.5855 29.7052L37.7601 20.0887L21.2977 20.2407Z" fill="#989898"/>
<path opacity="0.4" d="M17.7527 38.0436C18.8295 37.4219 19.8917 36.8693 20.9767 36.2534C21.0001 36.2401 21.0238 36.2267 21.0472 36.2134C22.3709 35.46 23.6964 34.6617 25.0301 33.9205C26.3794 33.1702 27.7385 32.4218 29.0944 31.6779C30.4517 30.9332 31.8083 30.1919 33.1673 29.4484C34.5234 28.7065 35.8821 27.962 37.2364 27.2144C38.1563 26.7066 39.0764 26.1963 39.9935 25.6837C40.396 25.4587 40.7968 25.2334 41.1985 25.0074C41.4982 24.8387 41.7983 24.6696 42.0976 24.5003L42.208 24.4376C42.1786 24.4544 42.1387 24.4779 42.0972 24.5016C41.7963 24.6737 41.4952 24.8457 41.1947 25.0185C40.8608 25.2105 40.5273 25.403 40.1939 25.5957C40.139 25.6218 40.0647 25.6597 39.9284 25.7353C39.8588 25.7738 39.7575 25.831 39.6838 25.8741C39.6178 25.9128 39.5682 25.9432 39.5215 25.9719C39.4727 26.0019 39.4264 26.0305 39.366 26.0659C39.2633 26.1259 39.1667 26.1847 39.0654 26.2466C39.0285 26.2692 38.9906 26.292 38.9519 26.3156C38.6341 26.5003 38.3168 26.6858 37.9994 26.871C37.8759 26.9411 37.7619 27.0057 37.6661 27.0614C37.5804 27.1112 37.5027 27.1581 37.4258 27.2057C37.3767 27.2344 37.3272 27.263 37.2781 27.2918C36.9611 27.4772 36.644 27.6638 36.327 27.8497C36.0773 27.9903 35.8151 28.1371 35.476 28.3307C35.3299 28.4141 35.1847 28.4951 35.0453 28.573C34.8395 28.688 34.6456 28.7963 34.4781 28.8951C34.3661 28.9611 34.2462 29.0274 34.1269 29.0934C33.9668 29.1818 33.8067 29.2703 33.6663 29.3582C33.5781 29.4135 33.4974 29.4651 33.423 29.5132C33.3047 29.5897 33.2014 29.6568 33.1051 29.7128C32.9242 29.8181 32.7698 29.9141 32.6339 29.9983C32.4704 30.0996 32.3331 30.1846 32.2077 30.2505C32.1887 30.2604 32.1663 30.2719 32.1417 30.2846C32.0121 30.3515 31.8045 30.4577 31.5179 30.6298C31.4158 30.6911 31.3218 30.7528 31.2297 30.8125C31.0956 30.8994 30.9652 30.9837 30.8196 31.0633C30.7979 31.0752 30.7746 31.0867 30.7532 31.0965C30.7258 31.1091 30.7013 31.1201 30.6889 31.1297C30.6525 31.1576 30.5936 31.1994 30.5296 31.2448C30.4825 31.2782 30.4324 31.3139 30.3868 31.3472C30.0162 31.5653 29.6447 31.7838 29.2738 32.0017C29.104 32.1014 28.9342 32.2014 28.7643 32.301C28.672 32.3427 28.5775 32.3863 28.4797 32.4346C28.3518 32.4977 28.1905 32.5871 27.9825 32.7023C27.8295 32.787 27.6509 32.8857 27.4419 32.998C27.0546 33.2061 26.6639 33.4332 26.4161 33.5827C26.3637 33.6143 26.3109 33.6459 26.2546 33.68C26.0411 33.8093 25.7746 33.9706 25.2656 34.2719C24.7841 34.5568 24.3724 34.7953 24.0628 34.9739C23.9049 35.065 23.7735 35.1409 23.6732 35.1996C23.5017 35.3001 23.2898 35.4224 23.0779 35.5455C22.7465 35.738 22.413 35.9314 22.2251 36.0432C22.1583 36.0829 22.0879 36.1254 22.0123 36.1707C21.8178 36.2873 21.5854 36.4265 21.2719 36.6091C21.2477 36.6232 21.2228 36.6378 21.1976 36.6524C20.8287 36.8665 20.5973 36.9948 20.3553 37.125C20.257 37.1779 20.1665 37.218 20.0733 37.2593C19.941 37.318 19.8024 37.3791 19.6277 37.4832C19.5869 37.5074 19.5439 37.5348 19.499 37.563C19.4167 37.6147 19.3273 37.6698 19.2327 37.7209C19.1996 37.7388 19.1693 37.7532 19.1397 37.767C19.1073 37.7821 19.0755 37.797 19.0409 37.8163C18.9118 37.8887 18.7868 37.9602 18.6757 38.0237C18.5325 38.1055 18.4119 38.1741 18.3359 38.2144C18.2006 38.2861 18.0564 38.3716 17.9106 38.4581C17.7991 38.5242 17.686 38.5912 17.5754 38.653C17.2593 38.8295 16.8288 39.0801 16.3872 39.3411C16.2201 39.4398 16.074 39.516 15.8868 39.6129C15.7703 39.6731 15.6379 39.7414 15.4748 39.8288C15.3823 39.8784 15.3069 39.9261 15.2374 39.9703C15.1733 40.0111 15.1136 40.0492 15.0496 40.0826C14.9934 40.1119 14.9543 40.1245 14.9173 40.1364C14.8759 40.1496 14.837 40.1625 14.7796 40.1966C14.749 40.2148 14.7127 40.2394 14.6702 40.2688C14.6533 40.2805 14.6352 40.2932 14.6162 40.3062C14.6164 40.3042 14.616 40.302 14.6154 40.301C14.6102 40.2951 14.5489 40.3247 14.4892 40.3536C14.4651 40.3653 14.4414 40.3774 14.4214 40.3865C14.3479 40.4201 14.2141 40.4932 14.1126 40.5506C14.0697 40.5749 14.0296 40.5956 13.9828 40.6187C13.9412 40.6392 13.8941 40.6622 13.8354 40.6934L13.7113 40.7537C13.7008 40.7593 13.6939 40.7665 13.6857 40.7739C13.6798 40.7793 13.6728 40.7855 13.6643 40.7916C13.6442 40.8064 13.6164 40.8223 13.5965 40.8324C13.5874 40.837 13.58 40.8405 13.5726 40.8437C13.5639 40.8475 13.5546 40.851 13.5431 40.8571C13.4907 40.8848 13.4418 40.9154 13.3909 40.9469C13.3347 40.9817 13.2759 41.0184 13.208 41.0541C13.1866 41.0653 13.1632 41.0769 13.1407 41.0878C13.1172 41.0992 13.0941 41.1104 13.0751 41.1206C12.9982 41.1619 12.9288 41.2064 12.8653 41.2476C12.8231 41.275 12.7836 41.3013 12.7456 41.3234C12.6758 41.364 12.6406 41.3903 12.615 41.4099C12.6018 41.42 12.5912 41.4285 12.5792 41.4359C12.5678 41.442 12.5561 41.4482 12.5447 41.4543C12.5342 41.4597 12.5228 41.4655 12.5128 41.4713L12.5111 41.4722C12.4474 41.5062 12.3843 41.5393 12.3218 41.5719C12.1813 41.6451 12.0422 41.7176 11.8991 41.8006C11.8685 41.8185 11.8381 41.8383 11.8073 41.8584C11.7694 41.8832 11.7304 41.9083 11.6891 41.9311C11.5908 41.9855 11.4895 42.0375 11.39 42.0886C11.2405 42.1654 11.0939 42.2406 10.9653 42.3197C10.923 42.3457 10.8829 42.373 10.8422 42.3996C10.8195 42.4145 10.7965 42.4295 10.7733 42.4444C10.7768 42.4389 10.778 42.4347 10.7792 42.4309C10.7816 42.4232 10.7834 42.4162 10.8042 42.3999C10.854 42.3609 10.9095 42.3143 10.8978 42.3097C10.8947 42.3084 10.8942 42.305 10.8943 42.3015C10.8948 42.2928 10.8954 42.2837 10.8436 42.309C10.8083 42.3262 10.7181 42.3718 10.6651 42.4081C10.6539 42.4158 10.6476 42.4218 10.6408 42.4286C10.6285 42.4412 10.613 42.4566 10.5609 42.4875C10.5522 42.4926 10.5426 42.4978 10.5328 42.5034C10.4934 42.5265 10.449 42.5523 10.4342 42.5651C10.4172 42.5797 10.424 42.582 10.4317 42.5844C10.4417 42.5876 10.4537 42.5922 10.4177 42.625C10.4104 42.6315 10.3949 42.6408 10.3835 42.6478C10.3755 42.6527 10.369 42.6564 10.3686 42.6573C10.3686 42.6582 10.3723 42.6575 10.3765 42.6573C10.3919 42.6567 10.4181 42.6565 10.3318 42.7052C10.3085 42.7183 10.2812 42.7325 10.257 42.7454C10.2211 42.7645 10.1912 42.7806 10.1882 42.7845C10.1871 42.7859 10.1867 42.7878 10.1862 42.789C10.1579 42.8044 10.1295 42.8195 10.1012 42.835C10.0638 42.8531 10.0128 42.8822 9.94943 42.9178C9.93428 42.9263 9.91799 42.9347 9.9014 42.9439C9.84553 42.9745 9.78937 43.0054 9.7335 43.0359C9.68882 43.0597 9.64052 43.0854 9.58964 43.1108C9.48783 43.1618 9.39715 43.203 9.30886 43.2433C9.27168 43.2603 9.23459 43.2769 9.19741 43.2943C9.21117 43.2861 9.22405 43.2786 9.23344 43.2727C9.29727 43.2324 9.31992 43.2105 9.34062 43.1905C9.35443 43.1771 9.3674 43.164 9.39125 43.1471C9.43503 43.1162 9.42704 43.1132 9.42127 43.111C9.41848 43.1099 9.41692 43.1091 9.42226 43.1048L9.47638 43.0696C9.55446 43.0146 9.52739 43.024 9.48737 43.0375C9.46516 43.045 9.43853 43.0531 9.42434 43.0531C9.41163 43.0518 9.41364 43.048 9.45543 43.0208C9.41976 43.0369 9.38387 43.0533 9.34822 43.0694C9.33519 43.0771 9.32644 43.0852 9.31423 43.0965C9.29221 43.1168 9.21124 43.1651 9.148 43.2033C9.11879 43.2209 9.09314 43.2366 9.07896 43.2458C9.00408 43.2946 9.02977 43.2886 9.05293 43.2831C9.06562 43.28 9.07764 43.2773 9.07134 43.2839C9.06858 43.2867 9.07342 43.2848 9.07873 43.283C9.08248 43.2818 9.08665 43.281 9.08782 43.2812C9.0921 43.2864 9.04863 43.3165 9.00807 43.3445C8.98483 43.3605 8.96242 43.3765 8.95078 43.386C8.94752 43.3887 8.9448 43.3908 8.9424 43.393C8.93868 43.3964 8.93465 43.3997 8.92857 43.4042C8.9147 43.4145 8.88486 43.4331 8.852 43.4533C8.83525 43.4636 8.8181 43.4749 8.80164 43.4853C8.78019 43.4988 8.77256 43.5055 8.76547 43.5126C8.76059 43.5174 8.75524 43.5223 8.74495 43.5298C8.72569 43.5439 8.68461 43.5689 8.64631 43.5914C8.62971 43.6012 8.61356 43.6107 8.60008 43.6188C8.59458 43.6221 8.59153 43.6241 8.59122 43.625C8.52867 43.6622 8.46868 43.6974 8.41057 43.732C8.1185 43.9063 7.86481 44.0562 7.47788 44.265C7.40473 44.3045 7.32688 44.3484 7.24847 44.393C6.99535 44.5313 6.74228 44.67 6.48931 44.8083C6.43718 44.8321 6.37362 44.8624 6.29998 44.9001C6.16181 44.9709 6.02229 45.0484 5.85733 45.1391C5.73523 45.2062 5.59895 45.2813 5.4399 45.3671C5.17274 45.5113 4.89898 45.6603 4.59146 45.8309C4.28518 46.0007 3.93446 46.1958 3.68695 46.3344C3.5522 46.4098 3.41004 46.4879 3.27728 46.5602C3.09025 46.6621 2.92186 46.7542 2.82186 46.8143C2.79004 46.8334 2.75914 46.8526 2.72953 46.8712C2.7085 46.8844 2.68777 46.8975 2.66728 46.9099C2.61124 46.941 2.5551 46.9721 2.49902 47.0032C2.39844 47.0573 2.24234 47.1433 2.09372 47.2289C2.03593 47.261 1.97787 47.293 1.92206 47.3241C1.80009 47.3921 1.68089 47.4588 1.56054 47.526C1.52123 47.5479 1.48096 47.5704 1.44117 47.5926L1.44032 47.5931C1.36027 47.6379 1.27917 47.683 1.19988 47.7274C1.16608 47.7463 1.13261 47.7658 1.09882 47.7848C1.01249 47.8332 0.92511 47.8817 0.839693 47.9297C0.794593 47.955 0.748933 47.9803 0.703335 48.006C0.629179 48.0477 0.553809 48.0901 0.479508 48.1319C0.35952 48.1995 0.24022 48.267 0.120656 48.3346L0.479875 48.1306C0.55392 48.0884 0.628055 48.0456 0.701889 48.0034C0.74745 47.9774 0.793574 47.9515 0.838613 47.9258C0.92357 47.8772 1.01051 47.8275 1.09629 47.7784C1.12991 47.7591 1.16326 47.7394 1.19687 47.7201C1.27597 47.6748 1.35693 47.6286 1.43672 47.5828L1.43756 47.5823C1.47682 47.5598 1.51636 47.5367 1.55512 47.5145C1.67464 47.4458 1.79325 47.378 1.91423 47.3083C1.97681 47.2723 2.04217 47.234 2.10689 47.1967C2.14285 47.1759 2.1795 47.1558 2.21474 47.1355C2.23393 47.1244 2.25329 47.1126 2.27285 47.1013C2.7241 46.8408 3.17174 46.5814 3.62315 46.3189C4.07297 46.0573 4.5237 45.7949 4.97238 45.5326C5.42213 45.2697 5.87075 45.0063 6.31967 44.7429C9.1688 43.0709 12.0221 41.3793 14.8876 39.7063C15.2962 39.4676 15.7165 39.2232 16.1265 38.9849C16.5409 38.744 16.9474 38.5084 17.3635 38.2679C17.4898 38.1949 17.6198 38.1203 17.7527 38.0436Z" fill="#FF7300"/>
<path opacity="0.4" d="M24.2475 27.8215C23.7373 26.5969 23.2949 25.3983 22.7913 24.1661C22.7804 24.1394 22.7694 24.1124 22.7584 24.0857C22.1422 22.5822 21.4812 21.0701 20.8782 19.5582C20.2679 18.0286 19.6605 16.4891 19.0573 14.9537C18.4533 13.4164 17.8526 11.8802 17.25 10.3414C16.6487 8.80586 16.045 7.26691 15.4377 5.73234C15.0254 4.69017 14.6107 3.64761 14.1932 2.60765C14.0099 2.1511 13.826 1.6959 13.6416 1.24009C13.504 0.900048 13.3662 0.559946 13.2279 0.22022L13.1765 0.09457C13.1902 0.127875 13.2094 0.172853 13.2288 0.219851C13.3698 0.561891 13.5108 0.904432 13.6525 1.24617C13.8099 1.6256 13.9675 2.00411 14.1257 2.38311C14.146 2.44466 14.1764 2.52871 14.2378 2.6833C14.2692 2.76219 14.3157 2.87689 14.3513 2.96082C14.3832 3.03618 14.4084 3.09261 14.4323 3.14609C14.4573 3.202 14.4812 3.25526 14.5103 3.32413C14.5597 3.44097 14.6085 3.55127 14.66 3.66702C14.6787 3.70918 14.6976 3.75241 14.7172 3.79662C14.869 4.15814 15.0218 4.51983 15.1742 4.88108C15.2314 5.02106 15.2839 5.14979 15.3295 5.25857C15.3706 5.35628 15.4096 5.44535 15.4493 5.5335C15.473 5.58942 15.4966 5.64588 15.5202 5.7018C15.6728 6.06239 15.8262 6.42278 15.9792 6.78335C16.0939 7.06685 16.2139 7.36499 16.3724 7.75042C16.4406 7.91627 16.5064 8.08051 16.5697 8.23839C16.6635 8.47192 16.7517 8.69202 16.8332 8.88291C16.8876 9.01036 16.9413 9.14584 16.9949 9.28103C17.0668 9.46252 17.1388 9.64432 17.2123 9.80512C17.2584 9.90612 17.3018 9.99887 17.3422 10.0843C17.4066 10.2203 17.463 10.3391 17.5091 10.4487C17.5955 10.6544 17.6755 10.8306 17.7456 10.986C17.83 11.173 17.9008 11.3302 17.9537 11.4717C17.9617 11.4932 17.9707 11.5183 17.9809 11.5461C18.0343 11.6922 18.1191 11.9261 18.2615 12.2532C18.3122 12.3697 18.3641 12.4775 18.4143 12.5832C18.4874 12.7372 18.5582 12.8871 18.6228 13.0519C18.6323 13.0764 18.6414 13.1026 18.6491 13.1266C18.6588 13.1571 18.6673 13.1846 18.6755 13.1991C18.6998 13.2416 18.7356 13.3102 18.7745 13.3844C18.8031 13.4391 18.8335 13.497 18.8623 13.55C19.042 13.972 19.2216 14.394 19.401 14.8163C19.4831 15.0097 19.5657 15.2034 19.6478 15.397C19.6799 15.5 19.7135 15.6055 19.7516 15.7154C19.8014 15.859 19.8741 16.0421 19.9678 16.2779C20.0368 16.4515 20.1171 16.6543 20.2078 16.8909C20.3756 17.3286 20.562 17.7725 20.6859 18.0553C20.7121 18.1151 20.7383 18.1755 20.7666 18.2397C20.8738 18.4834 21.0076 18.7878 21.2562 19.3678C21.4912 19.9163 21.687 20.3845 21.8335 20.7364C21.9083 20.916 21.9706 21.0656 22.019 21.1797C22.1017 21.375 22.202 21.6158 22.3032 21.8569C22.4614 22.2341 22.6204 22.6137 22.7127 22.8278C22.7456 22.904 22.7808 22.9843 22.8183 23.0706C22.9146 23.2923 23.0296 23.5569 23.1797 23.9135C23.1913 23.9411 23.2033 23.9693 23.2153 23.9981C23.3914 24.4181 23.4959 24.6808 23.601 24.9545C23.6436 25.0656 23.6743 25.1665 23.7058 25.2704C23.7507 25.4181 23.7974 25.5725 23.8833 25.7717C23.9034 25.8182 23.9262 25.8673 23.9497 25.9187C23.993 26.0131 24.039 26.1156 24.0804 26.2229C24.0948 26.2603 24.1061 26.2943 24.1167 26.3273C24.1284 26.3634 24.1399 26.3989 24.1557 26.438C24.2146 26.5844 24.2733 26.7266 24.3253 26.8529C24.3923 27.0158 24.4485 27.1529 24.4809 27.2387C24.5386 27.3915 24.609 27.5555 24.6804 27.7216C24.7349 27.8485 24.79 27.9771 24.8403 28.1025C24.984 28.4609 25.1901 28.9508 25.4054 29.454C25.4868 29.6443 25.5478 29.8092 25.6253 30.0203C25.6735 30.1517 25.7283 30.3017 25.7989 30.4863C25.8388 30.5907 25.8785 30.6767 25.9155 30.7562C25.9497 30.8297 25.9816 30.8982 26.0084 30.9704C26.0319 31.034 26.0404 31.0768 26.0485 31.1175C26.0574 31.1629 26.0663 31.206 26.0946 31.2717C26.1096 31.3065 26.1302 31.3478 26.1552 31.3967C26.1651 31.4161 26.1759 31.4368 26.1869 31.4587C26.1849 31.4582 26.183 31.4592 26.182 31.4596C26.1759 31.465 26.1987 31.5331 26.2213 31.5997C26.2304 31.6267 26.24 31.6534 26.2471 31.6757C26.273 31.758 26.3323 31.9095 26.3792 32.0247C26.399 32.0735 26.4155 32.1185 26.4338 32.1712C26.45 32.2179 26.468 32.2705 26.4931 32.3368L26.5403 32.4758C26.5449 32.4877 26.5515 32.4967 26.5582 32.5065C26.5629 32.5134 26.5681 32.5211 26.5734 32.5308C26.5861 32.5543 26.5993 32.5862 26.6074 32.6087C26.611 32.6189 26.6138 32.6274 26.6163 32.6357C26.6191 32.6452 26.6214 32.6549 26.6261 32.6675C26.6484 32.7269 26.6742 32.7834 26.7005 32.8418C26.7295 32.9061 26.7603 32.9736 26.7889 33.0504C26.7979 33.0745 26.8071 33.1008 26.8156 33.126C26.8245 33.1522 26.833 33.1776 26.8412 33.1989C26.8746 33.286 26.9119 33.3656 26.9466 33.4386C26.9696 33.4871 26.992 33.5328 27.0102 33.5761C27.0435 33.6555 27.0663 33.6967 27.0833 33.7266C27.092 33.742 27.0994 33.7544 27.1055 33.7681C27.1106 33.7811 27.1156 33.7945 27.1205 33.8074C27.1248 33.8192 27.1294 33.8318 27.134 33.843L27.1348 33.8448C27.1621 33.9169 27.1888 33.9883 27.2149 34.0589C27.2735 34.2173 27.3313 34.3738 27.3995 34.5363C27.4142 34.5713 27.431 34.6065 27.448 34.642C27.4689 34.6856 27.4901 34.7308 27.5087 34.7776C27.5527 34.8888 27.594 35.0024 27.6347 35.1143C27.6959 35.2828 27.7559 35.4479 27.8217 35.5949C27.8434 35.6434 27.8668 35.6902 27.8893 35.7371C27.9018 35.7633 27.9146 35.79 27.9271 35.8166C27.922 35.8122 27.9177 35.81 27.9141 35.8082C27.9066 35.8044 27.8996 35.8011 27.8854 35.7767C27.8516 35.7184 27.8109 35.6536 27.805 35.665C27.8033 35.6678 27.7995 35.6673 27.7961 35.6666C27.7874 35.6647 27.7786 35.6633 27.7985 35.7215C27.812 35.7611 27.8479 35.8618 27.8787 35.9229C27.8854 35.9361 27.8908 35.9441 27.8971 35.9523C27.9084 35.9673 27.922 35.9852 27.9475 36.0446C27.9517 36.0546 27.956 36.0659 27.9608 36.0772C27.9797 36.1221 28.001 36.1726 28.0122 36.1901C28.0248 36.2096 28.0283 36.2034 28.0315 36.196C28.0357 36.186 28.0413 36.1733 28.0703 36.216C28.076 36.2245 28.0837 36.2423 28.0896 36.2555C28.0935 36.2643 28.0964 36.2711 28.0975 36.2723C28.0985 36.2728 28.0986 36.2698 28.0989 36.2654C28.0999 36.2492 28.102 36.2205 28.1418 36.3186C28.1525 36.3451 28.1639 36.376 28.1743 36.4034C28.1893 36.4431 28.2022 36.4762 28.2061 36.4812C28.2074 36.4826 28.2095 36.4839 28.2106 36.4846C28.2232 36.5166 28.2355 36.5491 28.248 36.5811C28.2623 36.6231 28.2859 36.6805 28.3148 36.7522C28.3218 36.7696 28.3287 36.7886 28.3364 36.8077C28.3611 36.871 28.3862 36.9345 28.4109 36.9977C28.43 37.0481 28.4503 37.1019 28.4705 37.159C28.5109 37.2736 28.5426 37.3748 28.5737 37.4735C28.5869 37.5151 28.5997 37.557 28.6133 37.5986C28.6066 37.583 28.6003 37.5682 28.5954 37.5574C28.5617 37.4844 28.5422 37.4573 28.5243 37.4325C28.5123 37.4159 28.5003 37.3999 28.4859 37.3722C28.4596 37.3217 28.4556 37.3294 28.4528 37.3351C28.4514 37.3379 28.4507 37.3397 28.4468 37.3333L28.4173 37.2715C28.3704 37.1811 28.3769 37.2107 28.3862 37.2547C28.3913 37.2791 28.3966 37.308 28.395 37.3228C28.3924 37.3361 28.3889 37.3334 28.3659 37.2851C28.3783 37.325 28.3909 37.3651 28.4033 37.4049C28.4097 37.4199 28.4169 37.4302 28.427 37.4448C28.445 37.4709 28.4851 37.5637 28.5167 37.636C28.5314 37.6695 28.5446 37.6991 28.5523 37.7154C28.5931 37.8009 28.5897 37.7728 28.5867 37.7477C28.585 37.734 28.5835 37.721 28.5894 37.7287C28.592 37.7321 28.5904 37.7263 28.5892 37.7203C28.5884 37.7164 28.5882 37.7124 28.5886 37.7111C28.5942 37.7074 28.6198 37.7577 28.6437 37.8046C28.6573 37.8314 28.6707 37.8567 28.679 37.8704C28.6815 37.8745 28.6835 37.8783 28.6856 37.8814C28.6885 37.8856 28.6913 37.8898 28.695 37.8965C28.7038 37.9126 28.7196 37.9475 28.7364 37.9851C28.745 38.0042 28.7545 38.0239 28.7632 38.0427C28.7743 38.067 28.7801 38.0755 28.7863 38.0839C28.7908 38.0899 28.7952 38.0968 28.8019 38.1092C28.814 38.1316 28.8348 38.1785 28.8534 38.2221C28.8614 38.2411 28.8693 38.2597 28.8761 38.2751C28.8787 38.2811 28.8802 38.2842 28.881 38.2847C28.9119 38.3561 28.9409 38.4247 28.9696 38.4911C29.1137 38.824 29.2372 39.1127 29.4058 39.5503C29.4377 39.6331 29.4736 39.7215 29.51 39.8105C29.622 40.097 29.7345 40.3836 29.8465 40.6699C29.8649 40.7281 29.8885 40.7993 29.9185 40.8821C29.975 41.0379 30.0382 41.1964 30.1118 41.3833C30.1662 41.5216 30.227 41.6757 30.2963 41.8555C30.4128 42.1577 30.5337 42.4682 30.6724 42.8169C30.8105 43.1639 30.969 43.561 31.0818 43.8417C31.1434 43.9947 31.2069 44.1562 31.2656 44.3067C31.3481 44.5184 31.4224 44.7085 31.4722 44.8225C31.4881 44.8589 31.5039 44.8938 31.5195 44.9277C31.5306 44.9519 31.5417 44.9763 31.5521 44.9998C31.5773 45.0633 31.6026 45.1269 31.6279 45.1904C31.6715 45.3041 31.7411 45.4803 31.8112 45.6493C31.8375 45.7149 31.8635 45.781 31.8889 45.8444C31.9441 45.9826 31.9985 46.1177 32.0532 46.2541C32.071 46.2986 32.0892 46.344 32.1073 46.3891L32.1077 46.39C32.1442 46.4809 32.1809 46.5729 32.2171 46.6629C32.2326 46.7014 32.2489 46.74 32.2644 46.7786C32.3038 46.8764 32.3432 46.9754 32.3823 47.0722C32.403 47.1234 32.4237 47.1754 32.4446 47.2271C32.4786 47.3112 32.513 47.3964 32.5472 47.4806C32.6023 47.6167 32.6574 47.7521 32.7125 47.8878L32.5459 47.4801C32.5113 47.3959 32.476 47.3113 32.4415 47.2273C32.4202 47.1756 32.3994 47.1239 32.3783 47.0728C32.3386 46.9762 32.298 46.8778 32.2577 46.7802C32.2419 46.7418 32.2254 46.7033 32.2095 46.6649C32.1724 46.5751 32.1349 46.4838 32.0974 46.3932L32.0966 46.3914C32.0782 46.3468 32.0593 46.302 32.0411 46.258C31.9848 46.1222 31.9293 45.9876 31.8722 45.8501C31.8427 45.779 31.8112 45.7047 31.7806 45.6312C31.7636 45.5902 31.7471 45.5484 31.7304 45.5083C31.7213 45.4865 31.7117 45.4647 31.7025 45.4426C31.4887 44.9294 31.2753 44.4194 31.0595 43.9057C30.8445 43.394 30.629 42.8816 30.4132 42.3711C30.1968 41.8591 29.9799 41.3482 29.7629 40.837C28.3859 37.593 26.9896 34.3414 25.6133 31.0802C25.4169 30.615 25.216 30.137 25.0202 29.6705C24.8222 29.199 24.6287 28.7365 24.4313 28.2633C24.3714 28.1198 24.3104 27.9725 24.2475 27.8215Z" fill="#FF7300"/>
<path opacity="0.4" d="M31.8287 14.2755C30.9107 13.7021 30.0555 13.1058 29.1393 12.5227C29.1195 12.5101 29.0998 12.4975 29.08 12.485C27.9607 11.7746 26.8035 11.0855 25.6905 10.3608C24.5642 9.62779 23.4358 8.88586 22.3123 8.14423C21.1877 7.40184 20.066 6.65829 18.9417 5.91397C17.8199 5.17123 16.6947 4.42756 15.5688 3.68918C14.804 3.1876 14.0367 2.68685 13.269 2.19002C12.932 1.97194 12.5951 1.75522 12.2576 1.53839C12.0059 1.37671 11.7541 1.21514 11.502 1.05415L11.4089 0.99491C11.4337 1.01059 11.4676 1.03126 11.5025 1.05333C11.7578 1.21443 12.0135 1.37608 12.2692 1.53652C12.5531 1.71467 12.8369 1.892 13.1212 2.06937C13.1633 2.10142 13.2225 2.14342 13.336 2.21758C13.394 2.25545 13.4794 2.31022 13.5428 2.34916C13.5993 2.38392 13.6427 2.40916 13.6838 2.43311C13.727 2.45827 13.7688 2.48243 13.8207 2.51444C13.9087 2.56864 13.9934 2.61845 14.0825 2.67059C14.115 2.68961 14.1486 2.70971 14.1827 2.72968C14.4544 2.89811 14.7265 3.06586 14.9986 3.23376C15.1028 3.30011 15.199 3.36143 15.2809 3.41223C15.3542 3.45773 15.4223 3.49811 15.4905 3.53752C15.5327 3.56349 15.5755 3.59012 15.6176 3.61608C15.8897 3.78357 16.1627 3.95051 16.4351 4.11769C16.6449 4.25249 16.8645 4.3943 17.1517 4.57595C17.2756 4.65428 17.3973 4.73325 17.514 4.80879C17.6862 4.92027 17.8482 5.02522 17.9927 5.11337C18.0894 5.17231 18.1895 5.23781 18.2888 5.30292C18.4219 5.39011 18.5548 5.47713 18.6801 5.54841C18.7589 5.59325 18.8319 5.63371 18.8997 5.67078C19.0075 5.72974 19.1021 5.78129 19.1846 5.83239C19.3393 5.92823 19.4762 6.00667 19.5967 6.07608C19.7419 6.15971 19.8641 6.23029 19.9656 6.30038C19.9809 6.31091 19.9981 6.32322 20.0176 6.33692C20.1215 6.4099 20.2875 6.52745 20.5374 6.67693C20.6265 6.73016 20.7129 6.77653 20.7968 6.82229C20.919 6.88888 21.0375 6.9538 21.1578 7.03348C21.1757 7.04531 21.194 7.05876 21.2101 7.07138C21.2306 7.08741 21.2488 7.10191 21.2613 7.1074C21.2981 7.12328 21.3552 7.15107 21.417 7.18101C21.4624 7.20302 21.5107 7.22632 21.5555 7.24714C21.8748 7.44239 22.1942 7.63786 22.5135 7.83353C22.6597 7.92315 22.8061 8.01262 22.9524 8.10239C23.0215 8.15738 23.0926 8.21306 23.1692 8.26925C23.2693 8.34265 23.4036 8.43051 23.5768 8.54365C23.7044 8.627 23.8533 8.72459 24.0247 8.84022C24.3419 9.05427 24.676 9.26134 24.8925 9.39006C24.9383 9.41728 24.9843 9.44486 25.0336 9.47402C25.2206 9.58465 25.4539 9.72279 25.8939 9.99016C26.31 10.243 26.6616 10.4618 26.9253 10.6267C27.06 10.7109 27.1725 10.7812 27.2586 10.8342C27.406 10.9248 27.5862 11.0373 27.7674 11.1498C28.051 11.3258 28.3367 11.5034 28.4995 11.6017C28.5573 11.6366 28.6183 11.6728 28.6839 11.7121C28.8533 11.8135 29.0557 11.9349 29.3243 12.101C29.3449 12.1138 29.366 12.1267 29.3874 12.14C29.7031 12.3361 29.8966 12.4623 30.095 12.596C30.1754 12.6502 30.2423 12.7044 30.3112 12.7602C30.4093 12.8396 30.5119 12.9229 30.6634 13.0144C30.6988 13.0358 30.7376 13.0574 30.7778 13.0802C30.8514 13.122 30.9306 13.1678 31.0083 13.22C31.0354 13.2382 31.0586 13.2558 31.081 13.2731C31.1056 13.2922 31.1304 13.3113 31.1594 13.33C31.2675 13.3998 31.3734 13.4666 31.4675 13.526C31.5888 13.6027 31.6906 13.6674 31.7524 13.7096C31.8624 13.7848 31.9873 13.8606 32.1135 13.937C32.2098 13.9954 32.3074 14.0547 32.3998 14.1146C32.6643 14.2859 33.0331 14.5142 33.4146 14.7464C33.559 14.8343 33.677 14.9164 33.8274 15.0218C33.9208 15.0872 34.0268 15.1618 34.1601 15.252C34.2358 15.3032 34.3041 15.3416 34.3668 15.3765C34.4244 15.4086 34.4778 15.4384 34.5292 15.4741C34.5748 15.5058 34.6001 15.5317 34.6239 15.5563C34.6503 15.5837 34.6754 15.6091 34.7251 15.6392C34.7517 15.6553 34.7859 15.673 34.8262 15.6932C34.8421 15.7011 34.8593 15.7095 34.8772 15.7186C34.8754 15.7195 34.8735 15.7208 34.8729 15.7217C34.8699 15.729 34.9174 15.7646 34.9637 15.7991C34.9823 15.8131 35.0012 15.8266 35.0163 15.8384C35.0716 15.882 35.1825 15.9555 35.2681 16.0102C35.3043 16.0333 35.3367 16.056 35.3734 16.083C35.4059 16.1068 35.4426 16.134 35.4903 16.1666C35.5175 16.1852 35.5373 16.2012 35.5539 16.214C35.5659 16.2234 35.5762 16.2313 35.5861 16.238C35.5947 16.2438 35.6034 16.2461 35.6126 16.2491C35.6193 16.2512 35.6268 16.2537 35.635 16.2575C35.6547 16.2667 35.6779 16.2813 35.6937 16.2926C35.701 16.2978 35.707 16.3023 35.7125 16.3068C35.7189 16.3121 35.7255 16.3181 35.7348 16.3245C35.7774 16.3538 35.8213 16.3788 35.8665 16.4049C35.9164 16.4336 35.9689 16.4635 36.0238 16.5015C36.041 16.5133 36.0589 16.5265 36.0761 16.5394C36.0942 16.5529 36.1121 16.5663 36.1276 16.5767C36.1907 16.6193 36.2537 16.6542 36.3117 16.6858C36.3501 16.7067 36.3867 16.7259 36.4192 16.7461C36.4789 16.7831 36.5144 16.7992 36.5403 16.8104C36.5535 16.8161 36.5645 16.8206 36.575 16.8267C36.5844 16.833 36.5941 16.8396 36.6034 16.8459C36.6116 16.8517 36.6201 16.8578 36.6284 16.863L36.6308 16.8645C36.6827 16.8998 36.7334 16.9349 36.7837 16.9699C36.8969 17.0487 37.0088 17.1266 37.1311 17.2025C37.1574 17.2188 37.1854 17.234 37.2137 17.2492C37.2484 17.268 37.2841 17.2876 37.3184 17.3101C37.4002 17.3637 37.4812 17.4209 37.5607 17.477C37.6801 17.5613 37.7967 17.6438 37.9103 17.7098C37.9478 17.7316 37.9863 17.7514 38.0237 17.7716C38.0445 17.7828 38.0656 17.7942 38.0865 17.8058C38.0807 17.8056 38.0763 17.8065 38.0727 17.8074C38.0654 17.8093 38.0589 17.8113 38.0377 17.8025C37.9868 17.7811 37.9276 17.759 37.9281 17.7709C37.928 17.774 37.9246 17.7757 37.9217 17.7773C37.9144 17.7813 37.908 17.7864 37.948 17.816C37.9757 17.8365 38.0464 17.8874 38.0961 17.9126C38.1068 17.918 38.1141 17.9202 38.1223 17.9223C38.1373 17.9262 38.156 17.9311 38.2011 17.9585C38.2086 17.9631 38.2166 17.9686 38.225 17.9737C38.2586 17.9945 38.2962 18.0176 38.3125 18.0236C38.3308 18.0302 38.3308 18.0237 38.3299 18.0162C38.3288 18.0064 38.3277 17.9939 38.3682 18.007C38.3763 18.0096 38.3901 18.018 38.4003 18.0239C38.4066 18.0276 38.4116 18.0306 38.4131 18.031C38.4141 18.0307 38.4128 18.0284 38.4111 18.025C38.4049 18.0127 38.3942 17.9908 38.4669 18.0374C38.4866 18.05 38.5087 18.0654 38.5285 18.0789C38.557 18.0983 38.581 18.1144 38.5862 18.1156C38.5878 18.1158 38.5899 18.1154 38.591 18.1152C38.6144 18.1307 38.6375 18.1465 38.6608 18.1619C38.6899 18.1836 38.733 18.2109 38.7862 18.2451C38.7989 18.2534 38.812 18.2626 38.826 18.2717C38.8723 18.3023 38.919 18.3331 38.9653 18.3638C39.0017 18.3886 39.0407 18.4152 39.0808 18.4442C39.1612 18.5024 39.2292 18.5563 39.2956 18.6087C39.3236 18.6307 39.3514 18.653 39.3797 18.6749C39.3679 18.6677 39.3571 18.661 39.3487 18.6563C39.2911 18.6238 39.2643 18.616 39.2398 18.609C39.2236 18.6044 39.2081 18.6005 39.1852 18.5894C39.1432 18.5689 39.1431 18.5765 39.1434 18.5824C39.1435 18.5854 39.1441 18.5872 39.1383 18.5849C39.1335 18.583 39.1234 18.5773 39.1133 18.5714C39.1046 18.5662 39.0953 18.5614 39.0892 18.5583C39.0146 18.5218 39.0321 18.5391 39.0582 18.5652C39.0727 18.5798 39.0896 18.5977 39.0949 18.6094C39.0985 18.6203 39.0945 18.6207 39.0568 18.6002C39.0833 18.6214 39.1102 18.6427 39.1367 18.6638C39.1479 18.6706 39.1579 18.6736 39.1717 18.678C39.1966 18.6858 39.2672 18.7283 39.3225 18.7612C39.3481 18.7764 39.3713 18.7899 39.3842 18.797C39.4521 18.8337 39.4375 18.8156 39.4243 18.7994C39.4171 18.7904 39.4102 18.7819 39.418 18.7838C39.4214 18.7846 39.4181 18.7816 39.4147 18.7782C39.4122 18.7756 39.4098 18.7726 39.4097 18.7715C39.4123 18.7654 39.4538 18.7862 39.4922 18.8055C39.5141 18.8165 39.5353 18.8266 39.5475 18.8314C39.5511 18.8328 39.554 18.8341 39.5568 18.835C39.561 18.8363 39.5655 18.8382 39.5715 18.8409C39.5853 18.8473 39.612 18.8625 39.6409 18.8793C39.6557 18.8878 39.6714 18.8962 39.6861 18.9046C39.7051 18.9153 39.713 18.9178 39.7214 18.9201C39.7273 18.9217 39.7336 18.9238 39.7438 18.9285C39.7627 18.9373 39.7991 18.9587 39.8321 18.9789C39.8464 18.9877 39.8604 18.9963 39.8722 19.0033C39.8769 19.0061 39.8793 19.0073 39.8801 19.0072C39.9345 19.04 39.9865 19.072 40.0371 19.1024C40.2907 19.255 40.5096 19.3883 40.8272 19.6016C40.8872 19.642 40.9527 19.6839 41.0189 19.726C41.2281 19.8647 41.4376 20.0031 41.6468 20.1417C41.686 20.1726 41.7348 20.2097 41.7936 20.2513C41.904 20.3294 42.0207 20.4054 42.1577 20.4957C42.2589 20.5623 42.3716 20.6364 42.5021 20.724C42.7214 20.8713 42.9476 21.0219 43.2039 21.1891C43.4592 21.3557 43.7523 21.5464 43.9597 21.6804C44.0726 21.7534 44.1905 21.8311 44.3001 21.9039C44.4543 22.0065 44.5931 22.0984 44.6803 22.1505C44.7082 22.1671 44.7357 22.183 44.7623 22.198C44.781 22.2087 44.7995 22.2191 44.8174 22.2296C44.8642 22.2601 44.9113 22.291 44.9581 22.3215C45.0405 22.377 45.1698 22.462 45.2963 22.5413C45.3446 22.5727 45.3928 22.6043 45.4394 22.6347C45.5414 22.7009 45.6419 22.7658 45.7427 22.8311C45.7755 22.8523 45.8087 22.8739 45.8419 22.8953L45.8427 22.8959C45.9097 22.9392 45.9771 22.9831 46.0435 23.026C46.0719 23.0443 46.1008 23.0622 46.1292 23.0805C46.2016 23.1272 46.2748 23.1749 46.3465 23.221C46.3843 23.2454 46.4223 23.2702 46.4605 23.2947C46.5228 23.3348 46.5862 23.3755 46.6487 23.4156C46.7494 23.4803 46.8499 23.5445 46.9505 23.6088L46.6473 23.4159C46.5847 23.3762 46.5215 23.3368 46.4589 23.2972C46.4203 23.2728 46.3818 23.2479 46.3436 23.2238C46.2716 23.1784 46.1983 23.1321 46.1255 23.0862C46.097 23.0682 46.0679 23.0505 46.0393 23.0326C45.9723 22.9903 45.9038 22.947 45.8361 22.9044L45.8345 22.9034C45.8012 22.8825 45.7679 22.8619 45.7351 22.8413C45.6334 22.7774 45.5323 22.7135 45.4292 22.649C45.376 22.6156 45.3201 22.5813 45.265 22.5468C45.2344 22.5277 45.2043 22.5079 45.1744 22.4891C45.158 22.4789 45.141 22.4689 45.1244 22.4585C44.7397 22.2181 44.3566 21.9798 43.9702 21.7403C43.5853 21.5018 43.1997 21.2631 42.8146 21.0259C42.4286 20.7881 42.0424 20.5512 41.6562 20.3143C39.205 18.8107 36.7357 17.3133 34.2777 15.7967C33.9271 15.5805 33.5679 15.3579 33.2171 15.1404C32.8626 14.9206 32.5155 14.7046 32.1606 14.4833C32.0528 14.416 31.942 14.3464 31.8287 14.2755Z" fill="#FF7300"/>
</svg>
