<svg width="120" height="33" viewBox="0 0 120 33" fill="none" xmlns="http://www.w3.org/2000/svg">
<rect x="56.8867" y="13.8041" width="3.13632" height="19.1117" fill="white"/>
<rect x="40.2803" y="13.8041" width="3.13632" height="19.1117" fill="white"/>
<rect x="2.68164" width="3.13632" height="32.9158" fill="white"/>
<rect x="70.2129" y="16.0914" width="3.13632" height="16.8244" fill="white"/>
<rect x="83.0781" y="16.0914" width="3.13632" height="16.8244" fill="white"/>
<rect x="59.9492" y="15.0843" width="26.2624" height="2.74394" fill="white"/>
<rect x="43.3428" y="15.0843" width="8.70552" height="2.74394" fill="white"/>
<rect y="15.0843" width="8.70552" height="2.74394" fill="white"/>
<rect x="3.30957" width="8.70552" height="2.74394" fill="white"/>
<path d="M110.736 32.859H90.2129L100.475 15.0843L110.736 32.859ZM94.4339 30.4212H106.515L100.474 19.958L94.4339 30.4212Z" fill="white"/>
<path opacity="0.5" d="M120 27.2937H98.5068L109.253 8.67987L120 27.2937ZM103.032 24.6804H115.475L109.253 13.9065L103.032 24.6804Z" fill="white"/>
<path d="M31.3127 23.4097C31.3126 19.6027 28.2256 16.5174 24.4186 16.5174C20.6118 16.5176 17.5265 19.6028 17.5264 23.4097C17.5264 27.2166 20.6117 30.3036 24.4186 30.3037V32.9152C19.1688 32.9151 14.9131 28.6595 14.9131 23.4097C14.9132 18.16 19.1689 13.9043 24.4186 13.9041C29.6685 13.9041 33.924 18.1599 33.9242 23.4097C33.9242 28.6596 29.6686 32.9152 24.4186 32.9152V30.3037C28.2257 30.3037 31.3127 27.2167 31.3127 23.4097Z" fill="white"/>
</svg>
