<svg width="104" height="17" viewBox="0 0 104 17" fill="none" xmlns="http://www.w3.org/2000/svg">
<path opacity="0.5" d="M97.6338 16.32C96.3638 16.32 95.2438 16.015 94.2738 15.405C93.3038 14.785 92.5488 13.91 92.0088 12.78L93.1788 11.52C93.6588 12.5 94.2838 13.265 95.0538 13.815C95.8238 14.355 96.6788 14.625 97.6188 14.625C98.2488 14.625 98.8238 14.495 99.3438 14.235C99.8738 13.975 100.294 13.605 100.604 13.125C100.924 12.635 101.084 12.055 101.084 11.385C101.084 10.775 100.934 10.295 100.634 9.94495C100.344 9.59495 99.9138 9.29495 99.3438 9.04495C98.7838 8.78495 98.0838 8.49495 97.2438 8.17495C96.5938 7.91495 95.9638 7.61995 95.3538 7.28995C94.7438 6.95995 94.2388 6.54495 93.8388 6.04495C93.4488 5.53495 93.2538 4.88995 93.2538 4.10995C93.2538 3.31995 93.4638 2.61995 93.8838 2.00995C94.3038 1.38995 94.8838 0.904954 95.6238 0.554954C96.3638 0.194953 97.2038 0.0149536 98.1438 0.0149536C99.0038 0.0149536 99.8088 0.199953 100.559 0.569954C101.319 0.939953 101.999 1.46495 102.599 2.14495L101.594 3.41995C100.674 2.20995 99.5288 1.60495 98.1588 1.60495C97.3188 1.60495 96.6338 1.82495 96.1038 2.26495C95.5838 2.70495 95.3238 3.27995 95.3238 3.98995C95.3238 4.49995 95.4888 4.92495 95.8188 5.26495C96.1488 5.60495 96.5788 5.89495 97.1088 6.13495C97.6488 6.37495 98.2288 6.61495 98.8488 6.85495C99.7488 7.19495 100.529 7.53495 101.189 7.87495C101.859 8.21495 102.379 8.64995 102.749 9.17995C103.119 9.69995 103.304 10.41 103.304 11.31C103.304 12.34 103.064 13.23 102.584 13.98C102.104 14.73 101.434 15.31 100.574 15.72C99.7238 16.12 98.7438 16.32 97.6338 16.32Z" fill="white"/>
<path opacity="0.6" d="M74.5127 15.84V0.48H76.7027V2.58C77.1227 1.86 77.7727 1.25 78.6527 0.75C79.5327 0.25 80.6077 0 81.8777 0C83.0677 0 84.0927 0.245 84.9527 0.734999C85.8127 1.225 86.4727 1.94 86.9327 2.88C87.3927 3.81 87.6227 4.935 87.6227 6.255V15.84H85.4327V6.675C85.4327 5.085 85.0627 3.875 84.3227 3.045C83.5827 2.205 82.5377 1.785 81.1877 1.785C80.2477 1.785 79.4427 1.975 78.7727 2.355C78.1127 2.725 77.6027 3.22 77.2427 3.84C76.8827 4.45 76.7027 5.115 76.7027 5.835V15.84H74.5127Z" fill="white"/>
<path opacity="0.7" d="M61.7323 16.32C60.1223 16.32 58.6823 15.965 57.4123 15.255C56.1523 14.545 55.1623 13.58 54.4423 12.36C53.7223 11.13 53.3623 9.75 53.3623 8.22C53.3623 7.07 53.5673 6 53.9773 5.01C54.3973 4.01 54.9773 3.135 55.7173 2.385C56.4573 1.635 57.3173 1.05 58.2973 0.629999C59.2773 0.21 60.3223 0 61.4323 0C62.9523 0 64.3023 0.335 65.4823 1.005C66.6723 1.665 67.6123 2.58 68.3023 3.75C69.0023 4.92 69.3723 6.27 69.4123 7.8C69.4123 7.92 69.4073 8.02 69.3973 8.1C69.3973 8.17 69.3873 8.26 69.3673 8.37H55.5373C55.5373 9.57 55.8073 10.63 56.3473 11.55C56.8873 12.47 57.6273 13.195 58.5673 13.725C59.5173 14.245 60.6023 14.505 61.8223 14.505C62.9823 14.505 64.0223 14.265 64.9423 13.785C65.8723 13.295 66.6473 12.595 67.2673 11.685L68.8873 12.555C68.1573 13.745 67.1623 14.67 65.9023 15.33C64.6523 15.99 63.2623 16.32 61.7323 16.32ZM55.6573 6.72H67.2223C67.0923 5.76 66.7573 4.915 66.2173 4.185C65.6773 3.445 64.9923 2.865 64.1623 2.445C63.3423 2.025 62.4423 1.815 61.4623 1.815C60.4523 1.815 59.5323 2.025 58.7023 2.445C57.8723 2.855 57.1873 3.43 56.6473 4.17C56.1173 4.9 55.7873 5.75 55.6573 6.72Z" fill="white"/>
<path opacity="0.8" d="M44.533 16.32C43.383 16.32 42.303 16.12 41.293 15.72C40.283 15.31 39.398 14.735 38.638 13.995C37.878 13.255 37.283 12.39 36.853 11.4C36.423 10.41 36.208 9.33 36.208 8.16C36.208 7 36.418 5.925 36.838 4.935C37.258 3.945 37.843 3.08 38.593 2.34C39.353 1.6 40.238 1.025 41.248 0.614999C42.258 0.205 43.353 0 44.533 0C45.543 0 46.503 0.15 47.413 0.45C48.323 0.75 49.108 1.165 49.768 1.695L48.868 3.165C47.748 2.295 46.388 1.86 44.788 1.86C43.528 1.86 42.418 2.14 41.458 2.7C40.508 3.25 39.768 4.005 39.238 4.965C38.708 5.915 38.443 6.98 38.443 8.16C38.443 9.35 38.713 10.425 39.253 11.385C39.793 12.335 40.543 13.085 41.503 13.635C42.463 14.185 43.563 14.46 44.803 14.46C45.583 14.46 46.318 14.35 47.008 14.13C47.708 13.9 48.323 13.575 48.853 13.155L49.768 14.625C49.098 15.145 48.313 15.555 47.413 15.855C46.513 16.165 45.553 16.32 44.533 16.32Z" fill="white"/>
<path opacity="0.9" d="M26.5303 16.32C25.2603 16.32 24.1403 16.015 23.1703 15.405C22.2003 14.785 21.4453 13.91 20.9053 12.78L22.0753 11.52C22.5553 12.5 23.1803 13.265 23.9503 13.815C24.7203 14.355 25.5753 14.625 26.5153 14.625C27.1453 14.625 27.7203 14.495 28.2403 14.235C28.7703 13.975 29.1903 13.605 29.5003 13.125C29.8203 12.635 29.9803 12.055 29.9803 11.385C29.9803 10.775 29.8303 10.295 29.5303 9.94495C29.2403 9.59495 28.8103 9.29495 28.2403 9.04495C27.6803 8.78495 26.9803 8.49495 26.1403 8.17495C25.4903 7.91495 24.8603 7.61995 24.2503 7.28995C23.6403 6.95995 23.1353 6.54495 22.7353 6.04495C22.3453 5.53495 22.1503 4.88995 22.1503 4.10995C22.1503 3.31995 22.3603 2.61995 22.7803 2.00995C23.2003 1.38995 23.7803 0.904954 24.5203 0.554954C25.2603 0.194953 26.1003 0.0149536 27.0403 0.0149536C27.9003 0.0149536 28.7053 0.199953 29.4553 0.569954C30.2153 0.939953 30.8953 1.46495 31.4953 2.14495L30.4903 3.41995C29.5703 2.20995 28.4253 1.60495 27.0553 1.60495C26.2153 1.60495 25.5303 1.82495 25.0003 2.26495C24.4803 2.70495 24.2203 3.27995 24.2203 3.98995C24.2203 4.49995 24.3853 4.92495 24.7153 5.26495C25.0453 5.60495 25.4753 5.89495 26.0053 6.13495C26.5453 6.37495 27.1253 6.61495 27.7453 6.85495C28.6453 7.19495 29.4253 7.53495 30.0853 7.87495C30.7553 8.21495 31.2753 8.64995 31.6453 9.17995C32.0153 9.69995 32.2003 10.41 32.2003 11.31C32.2003 12.34 31.9603 13.23 31.4803 13.98C31.0003 14.73 30.3303 15.31 29.4703 15.72C28.6203 16.12 27.6403 16.32 26.5303 16.32Z" fill="white"/>
<path d="M7.65 16.32C6.21 16.32 4.91 15.97 3.75 15.27C2.6 14.56 1.685 13.59 1.005 12.36C0.335 11.13 0 9.725 0 8.145C0 6.585 0.33 5.195 0.99 3.975C1.66 2.745 2.57 1.775 3.72 1.065C4.88 0.354999 6.19 0 7.65 0C9.04 0 10.3 0.325 11.43 0.974999C12.56 1.625 13.42 2.525 14.01 3.675V0.48H16.2V15.84H14.01V12.6C13.35 13.76 12.465 14.67 11.355 15.33C10.245 15.99 9.01 16.32 7.65 16.32ZM8.19 14.415C9.34 14.415 10.355 14.15 11.235 13.62C12.125 13.08 12.825 12.34 13.335 11.4C13.845 10.45 14.1 9.37 14.1 8.16C14.1 6.94 13.845 5.86 13.335 4.92C12.835 3.98 12.14 3.245 11.25 2.715C10.36 2.175 9.34 1.905 8.19 1.905C7.04 1.905 6.02 2.175 5.13 2.715C4.24 3.245 3.54 3.98 3.03 4.92C2.52 5.86 2.265 6.94 2.265 8.16C2.265 9.37 2.52 10.45 3.03 11.4C3.54 12.34 4.24 13.08 5.13 13.62C6.02 14.15 7.04 14.415 8.19 14.415Z" fill="white"/>
</svg>
