<?xml version="1.0" encoding="UTF-8"?>
<svg xmlns="http://www.w3.org/2000/svg" viewBox="0 0 160 200" fill="none" stroke="#120700" stroke-width="1.75" stroke-linecap="round" stroke-linejoin="round" aria-hidden="true">
  <!-- NOTE: Blueprint-style technical drawing for fastener reference library -->

  <line x1="80" y1="8" x2="80" y2="192" stroke-dasharray="3 3" opacity="0.35" />
  <path d="M62 28 L80 12 L98 28 Z" />
  <path d="M74 18 L86 18 M80 15 L80 23" opacity="0.5" />
  <rect x="74" y="28" width="12" height="18" />
  <path d="M 80 46 L 71 49 L 80 52 M 80 52 L 89 55 L 80 58 M 80 58 L 71 61 L 80 64 M 80 64 L 89 67 L 80 70 M 80 70 L 71 73 L 80 76 M 80 76 L 89 79 L 80 82 M 80 82 L 71 85 L 80 88 M 80 88 L 89 91 L 80 94 M 80 94 L 71 97 L 80 100 M 80 100 L 89 103 L 80 106 M 80 106 L 71 109 L 80 112 M 80 112 L 89 115 L 80 118 M 80 118 L 71 121 L 80 124 M 80 124 L 89 127 L 80 130 M 80 130 L 71 133 L 80 136 M 80 136 L 89 139 L 80 142 M 80 142 L 71 145 L 80 148 M 80 148 L 89 151 L 80 154 M 80 154 L 71 154.5 L 80 155" />
  <!-- NOTE: Cutting tip / type-17 style notch -->
  <path d="M71 155 L80 188 L89 155" />
  <line x1="80" y1="160" x2="80" y2="182" opacity="0.45" />

</svg>
