<svg width="70" height="76" viewBox="0 0 70 76" fill="none" xmlns="http://www.w3.org/2000/svg">
<mask id="path-1-inside-1_1675_1624" fill="white">
<path fill-rule="evenodd" clip-rule="evenodd" d="M69.7783 75.2529H19.1436V60.7197H69.7783V75.2529ZM59.0608 69.108L57.642 66.899H51.8984L49.4292 68.2808L46.3228 66.8583L42.2373 69.358L42.3985 69.622L42.5601 69.8854L46.3646 67.557L49.4575 68.9747L52.06 67.5174H57.3052L58.9853 70.1354L62.1596 66.4991L63.3374 67.4483L63.5318 67.2085L63.7256 66.967L62.0857 65.6446L59.0608 69.108Z"/>
<path fill-rule="evenodd" clip-rule="evenodd" d="M69.7783 57.0469H19.0615V46.1328L20.001 45.4668C20.7539 45.8494 21.5339 46.1777 22.334 46.4482L23.0977 51.1699C23.1493 51.4371 23.2895 51.6793 23.4961 51.8564C23.7029 52.0336 23.9642 52.1355 24.2363 52.1455H28.3027C28.5749 52.1356 28.8361 52.0335 29.043 51.8564C29.2498 51.6793 29.3917 51.4373 29.4434 51.1699L30.2051 46.4482C31.0053 46.1777 31.786 45.8495 32.5391 45.4668L36.4473 48.2373C36.6658 48.3929 36.9327 48.468 37.2002 48.4482C37.4677 48.4283 37.7209 48.3142 37.9141 48.1279L40.7861 45.2549C40.9725 45.0617 41.0855 44.8096 41.1055 44.542C41.1254 44.2742 41.0514 44.0068 40.8955 43.7881L38.126 39.8809C38.5086 39.128 38.8369 38.3479 39.1074 37.5479L43.8281 36.7842C44.0954 36.7326 44.3375 36.5915 44.5146 36.3848C44.6918 36.1779 44.7948 35.9167 44.8047 35.6445V31.5791C44.8111 31.3024 44.7141 31.0325 44.5342 30.8223C44.3541 30.612 44.1025 30.4747 43.8281 30.4385L39.1074 29.6748C38.8369 28.8749 38.5085 28.0955 38.126 27.3428L40.8955 23.4346C41.0514 23.2159 41.1254 22.9485 41.1055 22.6807C41.0854 22.4131 40.9725 22.1609 40.7861 21.9678L37.9141 19.0947C37.721 18.9085 37.4677 18.7954 37.2002 18.7754C36.9327 18.7556 36.6658 18.8297 36.4473 18.9854L32.5391 21.7559C31.786 21.3732 31.0053 21.045 30.2051 20.7744L29.4434 16.0537C29.3918 15.7862 29.2499 15.5434 29.043 15.3662C28.8361 15.1892 28.5748 15.087 28.3027 15.0771H24.2363C23.9642 15.0871 23.7029 15.1891 23.4961 15.3662C23.2893 15.5434 23.1492 15.7863 23.0977 16.0537L22.334 20.7744C21.5305 21.036 20.7499 21.3646 20.001 21.7559H14.601H0V8.80566V0H69.7783V57.0469ZM50.7459 48.7633H63.7256V47.1451H50.7459V48.7633ZM50.9397 34.1826H63.7256V32.5645H50.9397V34.1826ZM50.9397 31.3525H63.7256V29.7344H50.9397V31.3525ZM50.9397 28.5234H63.7256V26.9053H50.9397V28.5234ZM44.034 13.5352H63.7256V11.917H44.034V13.5352ZM44.034 10.417H63.7256V8.79883H44.034V10.417Z"/>
<path d="M25.248 27.5303C26.4321 27.2948 27.66 27.4169 28.7754 27.8789C29.8906 28.341 30.8439 29.1232 31.5146 30.127C32.1854 31.1308 32.5439 32.3112 32.5439 33.5186C32.5434 34.1192 32.4536 34.7156 32.2793 35.2881C32.2225 35.4747 32.1568 35.6589 32.082 35.8398C32.0635 35.8848 32.0421 35.9292 32.0225 35.9736C31.9022 36.246 31.7635 36.5088 31.6055 36.7598C31.5562 36.838 31.5039 36.9144 31.4512 36.9902C31.2437 37.2887 31.0115 37.5702 30.7529 37.8281C30.7013 37.8797 30.6481 37.9299 30.5947 37.9795C30.3982 38.1618 30.1897 38.3309 29.9717 38.4854C29.8039 38.6042 29.6302 38.7141 29.4512 38.8154C29.2337 38.9385 29.0083 39.0497 28.7764 39.1455C28.7315 39.164 28.6859 39.1808 28.6406 39.1982C28.5026 39.2514 28.3629 39.3008 28.2217 39.3438C27.9646 39.4219 27.7024 39.4809 27.4375 39.5244C27.1081 39.5785 26.7739 39.607 26.4385 39.6064C25.2312 39.6063 24.0507 39.2488 23.0469 38.5781C22.0432 37.9074 21.2609 36.9541 20.7988 35.8389C20.4545 35.0075 20.2998 34.1132 20.3408 33.2217C20.3554 32.9227 20.3923 32.6241 20.4512 32.3281C20.6868 31.1438 21.2682 30.055 22.1221 29.2012C22.9758 28.3476 24.064 27.7658 25.248 27.5303Z"/>
<path fill-rule="evenodd" clip-rule="evenodd" d="M14.601 24.5774H0V75.2529H14.601V24.5774Z"/>
</mask>
<path fill-rule="evenodd" clip-rule="evenodd" d="M69.7783 75.2529H19.1436V60.7197H69.7783V75.2529ZM59.0608 69.108L57.642 66.899H51.8984L49.4292 68.2808L46.3228 66.8583L42.2373 69.358L42.3985 69.622L42.5601 69.8854L46.3646 67.557L49.4575 68.9747L52.06 67.5174H57.3052L58.9853 70.1354L62.1596 66.4991L63.3374 67.4483L63.5318 67.2085L63.7256 66.967L62.0857 65.6446L59.0608 69.108Z" stroke="#989898" stroke-width="4" mask="url(#path-1-inside-1_1675_1624)"/>
<path fill-rule="evenodd" clip-rule="evenodd" d="M69.7783 57.0469H19.0615V46.1328L20.001 45.4668C20.7539 45.8494 21.5339 46.1777 22.334 46.4482L23.0977 51.1699C23.1493 51.4371 23.2895 51.6793 23.4961 51.8564C23.7029 52.0336 23.9642 52.1355 24.2363 52.1455H28.3027C28.5749 52.1356 28.8361 52.0335 29.043 51.8564C29.2498 51.6793 29.3917 51.4373 29.4434 51.1699L30.2051 46.4482C31.0053 46.1777 31.786 45.8495 32.5391 45.4668L36.4473 48.2373C36.6658 48.3929 36.9327 48.468 37.2002 48.4482C37.4677 48.4283 37.7209 48.3142 37.9141 48.1279L40.7861 45.2549C40.9725 45.0617 41.0855 44.8096 41.1055 44.542C41.1254 44.2742 41.0514 44.0068 40.8955 43.7881L38.126 39.8809C38.5086 39.128 38.8369 38.3479 39.1074 37.5479L43.8281 36.7842C44.0954 36.7326 44.3375 36.5915 44.5146 36.3848C44.6918 36.1779 44.7948 35.9167 44.8047 35.6445V31.5791C44.8111 31.3024 44.7141 31.0325 44.5342 30.8223C44.3541 30.612 44.1025 30.4747 43.8281 30.4385L39.1074 29.6748C38.8369 28.8749 38.5085 28.0955 38.126 27.3428L40.8955 23.4346C41.0514 23.2159 41.1254 22.9485 41.1055 22.6807C41.0854 22.4131 40.9725 22.1609 40.7861 21.9678L37.9141 19.0947C37.721 18.9085 37.4677 18.7954 37.2002 18.7754C36.9327 18.7556 36.6658 18.8297 36.4473 18.9854L32.5391 21.7559C31.786 21.3732 31.0053 21.045 30.2051 20.7744L29.4434 16.0537C29.3918 15.7862 29.2499 15.5434 29.043 15.3662C28.8361 15.1892 28.5748 15.087 28.3027 15.0771H24.2363C23.9642 15.0871 23.7029 15.1891 23.4961 15.3662C23.2893 15.5434 23.1492 15.7863 23.0977 16.0537L22.334 20.7744C21.5305 21.036 20.7499 21.3646 20.001 21.7559H14.601H0V8.80566V0H69.7783V57.0469ZM50.7459 48.7633H63.7256V47.1451H50.7459V48.7633ZM50.9397 34.1826H63.7256V32.5645H50.9397V34.1826ZM50.9397 31.3525H63.7256V29.7344H50.9397V31.3525ZM50.9397 28.5234H63.7256V26.9053H50.9397V28.5234ZM44.034 13.5352H63.7256V11.917H44.034V13.5352ZM44.034 10.417H63.7256V8.79883H44.034V10.417Z" stroke="#989898" stroke-width="4" mask="url(#path-1-inside-1_1675_1624)"/>
<path d="M25.248 27.5303C26.4321 27.2948 27.66 27.4169 28.7754 27.8789C29.8906 28.341 30.8439 29.1232 31.5146 30.127C32.1854 31.1308 32.5439 32.3112 32.5439 33.5186C32.5434 34.1192 32.4536 34.7156 32.2793 35.2881C32.2225 35.4747 32.1568 35.6589 32.082 35.8398C32.0635 35.8848 32.0421 35.9292 32.0225 35.9736C31.9022 36.246 31.7635 36.5088 31.6055 36.7598C31.5562 36.838 31.5039 36.9144 31.4512 36.9902C31.2437 37.2887 31.0115 37.5702 30.7529 37.8281C30.7013 37.8797 30.6481 37.9299 30.5947 37.9795C30.3982 38.1618 30.1897 38.3309 29.9717 38.4854C29.8039 38.6042 29.6302 38.7141 29.4512 38.8154C29.2337 38.9385 29.0083 39.0497 28.7764 39.1455C28.7315 39.164 28.6859 39.1808 28.6406 39.1982C28.5026 39.2514 28.3629 39.3008 28.2217 39.3438C27.9646 39.4219 27.7024 39.4809 27.4375 39.5244C27.1081 39.5785 26.7739 39.607 26.4385 39.6064C25.2312 39.6063 24.0507 39.2488 23.0469 38.5781C22.0432 37.9074 21.2609 36.9541 20.7988 35.8389C20.4545 35.0075 20.2998 34.1132 20.3408 33.2217C20.3554 32.9227 20.3923 32.6241 20.4512 32.3281C20.6868 31.1438 21.2682 30.055 22.1221 29.2012C22.9758 28.3476 24.064 27.7658 25.248 27.5303Z" stroke="#989898" stroke-width="4" mask="url(#path-1-inside-1_1675_1624)"/>
<path fill-rule="evenodd" clip-rule="evenodd" d="M14.601 24.5774H0V75.2529H14.601V24.5774Z" stroke="#989898" stroke-width="4" mask="url(#path-1-inside-1_1675_1624)"/>
</svg>
