<svg width="92" height="75" viewBox="0 0 92 75" fill="none" xmlns="http://www.w3.org/2000/svg">
<g opacity="0.3">
<path d="M5.79004 38.5406L22.5401 49.9797V67.2822L5.79004 55.8431V38.5406Z" stroke="white" stroke-width="2"/>
<path d="M25.2768 49.9797L42.0065 38.9626V56.2651L25.2768 67.2822V49.9797Z" stroke="white" stroke-width="2"/>
<path d="M6.72341 36.4266L23.9716 25.5674L41.2741 36.9617L23.9716 48.1294L6.72341 36.4266Z" stroke="white" stroke-width="2"/>
</g>
<path d="M50.2793 14.1636L67.5818 25.98V69.155L50.2793 57.3387V14.1636Z" stroke="white" stroke-width="2"/>
<path d="M69.1932 25.98L86.4957 14.5857V57.7607L69.1932 69.155V25.98Z" stroke="white" stroke-width="2"/>
<path d="M51.3026 12.0584L68.4609 1.19044L85.7633 12.5848L68.4608 23.979L51.3026 12.0584Z" stroke="white" stroke-width="2"/>
<g opacity="0.6">
<path d="M28.3418 14.1637L45.6443 25.98V54.694L28.3418 42.8778V14.1637Z" stroke="white" stroke-width="2"/>
<path d="M47.2557 25.98L64.5582 14.5857V43.2998L47.2557 54.694V25.98Z" stroke="white" stroke-width="2"/>
<path d="M29.3799 12.0331L46.5234 1.19045L63.8024 12.2442L46.5234 23.6305L29.3799 12.0331Z" stroke="white" stroke-width="2"/>
</g>
<path opacity="0.5" d="M90.6982 58.4263V11.9189" stroke="white"/>
<line opacity="0.3" x1="0.286138" y1="56.1691" x2="25.6533" y2="73.8715" stroke="white"/>
</svg>
