<svg width="81" height="80" viewBox="0 0 81 80" fill="none" xmlns="http://www.w3.org/2000/svg">
<mask id="path-1-inside-1_1675_1624" fill="white">
<path d="M24.2793 79.5703H6.04492V21.7061H5.04492V79.5703H0V15.0234H24.2793V79.5703Z"/>
<path fill-rule="evenodd" clip-rule="evenodd" d="M80.6934 75.2529H30.0586V60.7197H80.6934V75.2529ZM66.1318 70.834L63.5439 66.8047H53.0674L48.5635 69.3252L42.8975 66.7305L35.4453 71.29L35.7393 71.7715L36.0342 72.252L42.9736 68.0049L48.6152 70.5908L53.3623 67.9326H62.9297L65.9941 72.708L71.7842 66.0752L73.9326 67.8066L74.2871 67.3691L74.6406 66.9287L71.6494 64.5166L66.1318 70.834Z"/>
<path fill-rule="evenodd" clip-rule="evenodd" d="M80.6934 57.0469H29.9766V46.1328L30.916 45.4668C31.669 45.8494 32.4489 46.1777 33.249 46.4482L34.0127 51.1699C34.0643 51.4371 34.2045 51.6793 34.4111 51.8564C34.6179 52.0336 34.8793 52.1355 35.1514 52.1455H39.2178C39.4899 52.1356 39.7511 52.0335 39.958 51.8564C40.1648 51.6793 40.3068 51.4373 40.3584 51.1699L41.1201 46.4482C41.9203 46.1777 42.701 45.8495 43.4541 45.4668L47.3623 48.2373C47.5808 48.3929 47.8477 48.468 48.1152 48.4482C48.3828 48.4283 48.636 48.3142 48.8291 48.1279L51.7012 45.2549C51.8875 45.0617 52.0005 44.8096 52.0205 44.542C52.0404 44.2742 51.9664 44.0068 51.8105 43.7881L49.041 39.8809C49.4236 39.128 49.7519 38.3479 50.0225 37.5479L54.7432 36.7842C55.0105 36.7326 55.2525 36.5915 55.4297 36.3848C55.6068 36.1779 55.7098 35.9167 55.7197 35.6445V31.5791C55.7261 31.3024 55.6292 31.0325 55.4492 30.8223C55.2692 30.612 55.0176 30.4747 54.7432 30.4385L50.0225 29.6748C49.752 28.8749 49.4235 28.0955 49.041 27.3428L51.8105 23.4346C51.9664 23.2159 52.0404 22.9485 52.0205 22.6807C52.0005 22.4131 51.8875 22.1609 51.7012 21.9678L48.8291 19.0947C48.636 18.9085 48.3827 18.7954 48.1152 18.7754C47.8477 18.7556 47.5808 18.8297 47.3623 18.9854L43.4541 21.7559C42.7011 21.3732 41.9203 21.045 41.1201 20.7744L40.3584 16.0537C40.3068 15.7862 40.1649 15.5434 39.958 15.3662C39.7511 15.1892 39.4899 15.087 39.2178 15.0771H35.1514C34.8793 15.0871 34.6179 15.1891 34.4111 15.3662C34.2044 15.5434 34.0643 15.7863 34.0127 16.0537L33.249 20.7744C32.4456 21.036 31.6649 21.3646 30.916 21.7559L29.9766 21.0889V8.80566H10.915V0H80.6934V57.0469ZM44.3945 52.7988H76.3721V51.1807H44.3945V52.7988ZM59.9922 34.1826H76.3721V32.5645H59.9922V34.1826ZM59.9922 31.3525H76.3721V29.7344H59.9922V31.3525ZM59.9922 28.5234H76.3721V26.9053H59.9922V28.5234ZM44.3945 13.5352H76.3721V11.917H44.3945V13.5352ZM44.3945 10.417H76.3721V8.79883H44.3945V10.417Z"/>
<path d="M36.1631 27.5303C37.3472 27.2948 38.575 27.4169 39.6904 27.8789C40.8057 28.341 41.759 29.1232 42.4297 30.127C43.1005 31.1308 43.4589 32.3112 43.459 33.5186C43.4584 34.1192 43.3686 34.7156 43.1943 35.2881C43.1375 35.4747 43.0718 35.6589 42.9971 35.8398C42.9785 35.8848 42.9571 35.9292 42.9375 35.9736C42.8173 36.246 42.6785 36.5088 42.5205 36.7598C42.4713 36.838 42.419 36.9144 42.3662 36.9902C42.1587 37.2887 41.9265 37.5702 41.668 37.8281C41.6163 37.8797 41.5632 37.9299 41.5098 37.9795C41.3133 38.1618 41.1048 38.3309 40.8867 38.4854C40.719 38.6042 40.5452 38.7141 40.3662 38.8154C40.1487 38.9385 39.9233 39.0497 39.6914 39.1455C39.6465 39.164 39.6009 39.1808 39.5557 39.1982C39.4176 39.2514 39.2779 39.3008 39.1367 39.3438C38.8796 39.4219 38.6174 39.4809 38.3525 39.5244C38.0231 39.5785 37.6889 39.607 37.3535 39.6064C36.1463 39.6063 34.9657 39.2488 33.9619 38.5781C32.9583 37.9074 32.1759 36.9541 31.7139 35.8389C31.3695 35.0075 31.2149 34.1132 31.2559 33.2217C31.2704 32.9227 31.3074 32.6241 31.3662 32.3281C31.6018 31.1438 32.1833 30.055 33.0371 29.2012C33.8909 28.3476 34.979 27.7658 36.1631 27.5303Z"/>
</mask>
<path d="M24.2793 79.5703H6.04492V21.7061H5.04492V79.5703H0V15.0234H24.2793V79.5703Z" stroke="#989898" stroke-width="4" mask="url(#path-1-inside-1_1675_1624)"/>
<path fill-rule="evenodd" clip-rule="evenodd" d="M80.6934 75.2529H30.0586V60.7197H80.6934V75.2529ZM66.1318 70.834L63.5439 66.8047H53.0674L48.5635 69.3252L42.8975 66.7305L35.4453 71.29L35.7393 71.7715L36.0342 72.252L42.9736 68.0049L48.6152 70.5908L53.3623 67.9326H62.9297L65.9941 72.708L71.7842 66.0752L73.9326 67.8066L74.2871 67.3691L74.6406 66.9287L71.6494 64.5166L66.1318 70.834Z" stroke="#989898" stroke-width="4" mask="url(#path-1-inside-1_1675_1624)"/>
<path fill-rule="evenodd" clip-rule="evenodd" d="M80.6934 57.0469H29.9766V46.1328L30.916 45.4668C31.669 45.8494 32.4489 46.1777 33.249 46.4482L34.0127 51.1699C34.0643 51.4371 34.2045 51.6793 34.4111 51.8564C34.6179 52.0336 34.8793 52.1355 35.1514 52.1455H39.2178C39.4899 52.1356 39.7511 52.0335 39.958 51.8564C40.1648 51.6793 40.3068 51.4373 40.3584 51.1699L41.1201 46.4482C41.9203 46.1777 42.701 45.8495 43.4541 45.4668L47.3623 48.2373C47.5808 48.3929 47.8477 48.468 48.1152 48.4482C48.3828 48.4283 48.636 48.3142 48.8291 48.1279L51.7012 45.2549C51.8875 45.0617 52.0005 44.8096 52.0205 44.542C52.0404 44.2742 51.9664 44.0068 51.8105 43.7881L49.041 39.8809C49.4236 39.128 49.7519 38.3479 50.0225 37.5479L54.7432 36.7842C55.0105 36.7326 55.2525 36.5915 55.4297 36.3848C55.6068 36.1779 55.7098 35.9167 55.7197 35.6445V31.5791C55.7261 31.3024 55.6292 31.0325 55.4492 30.8223C55.2692 30.612 55.0176 30.4747 54.7432 30.4385L50.0225 29.6748C49.752 28.8749 49.4235 28.0955 49.041 27.3428L51.8105 23.4346C51.9664 23.2159 52.0404 22.9485 52.0205 22.6807C52.0005 22.4131 51.8875 22.1609 51.7012 21.9678L48.8291 19.0947C48.636 18.9085 48.3827 18.7954 48.1152 18.7754C47.8477 18.7556 47.5808 18.8297 47.3623 18.9854L43.4541 21.7559C42.7011 21.3732 41.9203 21.045 41.1201 20.7744L40.3584 16.0537C40.3068 15.7862 40.1649 15.5434 39.958 15.3662C39.7511 15.1892 39.4899 15.087 39.2178 15.0771H35.1514C34.8793 15.0871 34.6179 15.1891 34.4111 15.3662C34.2044 15.5434 34.0643 15.7863 34.0127 16.0537L33.249 20.7744C32.4456 21.036 31.6649 21.3646 30.916 21.7559L29.9766 21.0889V8.80566H10.915V0H80.6934V57.0469ZM44.3945 52.7988H76.3721V51.1807H44.3945V52.7988ZM59.9922 34.1826H76.3721V32.5645H59.9922V34.1826ZM59.9922 31.3525H76.3721V29.7344H59.9922V31.3525ZM59.9922 28.5234H76.3721V26.9053H59.9922V28.5234ZM44.3945 13.5352H76.3721V11.917H44.3945V13.5352ZM44.3945 10.417H76.3721V8.79883H44.3945V10.417Z" stroke="#989898" stroke-width="4" mask="url(#path-1-inside-1_1675_1624)"/>
<path d="M36.1631 27.5303C37.3472 27.2948 38.575 27.4169 39.6904 27.8789C40.8057 28.341 41.759 29.1232 42.4297 30.127C43.1005 31.1308 43.4589 32.3112 43.459 33.5186C43.4584 34.1192 43.3686 34.7156 43.1943 35.2881C43.1375 35.4747 43.0718 35.6589 42.9971 35.8398C42.9785 35.8848 42.9571 35.9292 42.9375 35.9736C42.8173 36.246 42.6785 36.5088 42.5205 36.7598C42.4713 36.838 42.419 36.9144 42.3662 36.9902C42.1587 37.2887 41.9265 37.5702 41.668 37.8281C41.6163 37.8797 41.5632 37.9299 41.5098 37.9795C41.3133 38.1618 41.1048 38.3309 40.8867 38.4854C40.719 38.6042 40.5452 38.7141 40.3662 38.8154C40.1487 38.9385 39.9233 39.0497 39.6914 39.1455C39.6465 39.164 39.6009 39.1808 39.5557 39.1982C39.4176 39.2514 39.2779 39.3008 39.1367 39.3438C38.8796 39.4219 38.6174 39.4809 38.3525 39.5244C38.0231 39.5785 37.6889 39.607 37.3535 39.6064C36.1463 39.6063 34.9657 39.2488 33.9619 38.5781C32.9583 37.9074 32.1759 36.9541 31.7139 35.8389C31.3695 35.0075 31.2149 34.1132 31.2559 33.2217C31.2704 32.9227 31.3074 32.6241 31.3662 32.3281C31.6018 31.1438 32.1833 30.055 33.0371 29.2012C33.8909 28.3476 34.979 27.7658 36.1631 27.5303Z" stroke="#989898" stroke-width="4" mask="url(#path-1-inside-1_1675_1624)"/>
</svg>
