<svg width="66" height="76" viewBox="0 0 66 76" fill="none" xmlns="http://www.w3.org/2000/svg">
<mask id="path-1-inside-1_1675_1625" fill="white">
<path fill-rule="evenodd" clip-rule="evenodd" d="M35.5417 18.9576C36.0789 18.8694 36.5867 18.6649 37.0663 18.3643C35.8598 17.819 35.3769 17.6542 35.728 18.4665C35.6297 18.6214 35.5685 18.7857 35.5417 18.9576Z"/>
<path fill-rule="evenodd" clip-rule="evenodd" d="M35.728 18.4665C35.3769 17.6542 35.8598 17.819 37.0663 18.3643C36.5867 18.6649 36.0789 18.8694 35.5417 18.9576C35.5685 18.7857 35.6297 18.6214 35.728 18.4665Z"/>
<path d="M8.27729 21.1544L6.42227 16.6846C7.49291 16.1622 8.39838 15.6398 9.13869 15.1175C9.9016 14.5905 10.5107 14.0612 10.9658 13.5296C11.4164 12.976 11.7132 12.4201 11.856 11.862C12.0169 11.2771 12.0329 10.6766 11.904 10.0605C11.766 9.40032 11.4994 8.85891 11.1042 8.43626C10.7271 7.98687 10.2373 7.67587 9.63484 7.50327C9.0324 7.33067 8.32421 7.32948 7.51028 7.49969C6.76417 7.65571 6.0909 7.93431 5.49045 8.33549C4.89 8.73666 4.36008 9.24941 3.90069 9.87374C3.46391 10.4933 3.08175 11.2049 2.75421 12.0083L0 10.5172C0.453193 9.41183 1.01543 8.43297 1.68671 7.58059C2.3806 6.72349 3.17683 6.01724 4.0754 5.46185C4.99197 4.87973 6.00419 4.47283 7.11204 4.24116C8.58164 3.93384 9.90528 3.94414 11.083 4.27207C12.256 4.57798 13.2354 5.14259 14.0211 5.9659C14.8069 6.7892 15.3263 7.806 15.5794 9.0163C15.8002 10.0726 15.7383 11.1305 15.3936 12.1903C15.0488 13.25 14.4776 14.2422 13.6798 15.1669C12.9001 16.065 11.9548 16.8483 10.844 17.517L10.8887 20.6083L8.27729 21.1544ZM8.10498 26.2548C7.95313 25.5286 8.04367 24.8895 8.37661 24.3376C8.70955 23.7857 9.22646 23.4364 9.92735 23.2898C10.6735 23.1338 11.296 23.2333 11.795 23.5883C12.2894 23.9213 12.6194 24.4839 12.7851 25.2761C12.9369 26.0023 12.8464 26.6413 12.5135 27.1933C12.1805 27.7452 11.6636 28.0945 10.9627 28.2411C10.2166 28.3971 9.59637 28.3086 9.10197 27.9756C8.60297 27.6206 8.27064 27.047 8.10498 26.2548Z"/>
<path d="M53.9814 43.3381L54.9535 39.5507C55.8987 39.7331 56.7371 39.8353 57.4688 39.8574C58.2174 39.8875 58.8677 39.8413 59.4198 39.719C59.9796 39.5803 60.4411 39.3654 60.8044 39.0743C61.1922 38.7746 61.4941 38.3946 61.7101 37.9341C61.9414 37.4407 62.0321 36.9616 61.9821 36.4968C61.9567 36.0234 61.7914 35.5848 61.4861 35.1808C61.1808 34.7768 60.724 34.4322 60.1157 34.1469C59.5581 33.8855 58.988 33.7385 58.4054 33.7061C57.8229 33.6736 57.2317 33.7475 56.6319 33.9277C56.0489 34.1157 55.4567 34.3897 54.855 34.7496L53.8002 32.4493C54.6296 31.9555 55.468 31.5963 56.3154 31.3717C57.1797 31.1551 58.0368 31.0855 58.8868 31.1631C59.7614 31.2322 60.6126 31.4608 61.4406 31.8491C62.539 32.3642 63.3888 33.0135 63.9902 33.7971C64.5993 34.5642 64.9577 35.4043 65.0654 36.3175C65.1731 37.2308 65.0149 38.1396 64.5907 39.0442C64.2205 39.8336 63.6668 40.4868 62.9297 41.0038C62.1925 41.5208 61.3418 41.8843 60.3776 42.0942C59.438 42.2956 58.4472 42.3426 57.4051 42.2351L55.9331 44.2533L53.9814 43.3381ZM51.3938 46.5484C51.6483 46.0057 52.017 45.6369 52.5 45.4421C52.983 45.2473 53.4864 45.2727 54.0103 45.5184C54.5679 45.7798 54.9216 46.1464 55.0716 46.6179C55.2292 47.073 55.1692 47.5966 54.8915 48.1887C54.637 48.7314 54.2683 49.1002 53.7853 49.295C53.3023 49.4898 52.7988 49.4644 52.275 49.2188C51.7174 48.9573 51.3598 48.599 51.2022 48.1439C51.0523 47.6723 51.1161 47.1405 51.3938 46.5484Z"/>
<path d="M48.6621 52.4548H64.4805V75.1014H48.6621V52.4548Z"/>
<path d="M35.728 18.4665C35.3769 17.6542 35.8598 17.819 37.0663 18.3643C36.5867 18.6649 36.0789 18.8694 35.5417 18.9576C35.5685 18.7857 35.6297 18.6214 35.728 18.4665ZM35.5417 18.9576C35.0957 21.8182 44.1548 26.8084 49.6539 26.3328C53.0584 26.0385 52.9287 24.2081 51.4495 21.657C50.5317 21.91 49.2523 21.8637 47.5337 21.4259C42.8664 21.0078 39.3802 19.4187 37.4205 18.5253C37.2963 18.4687 37.1781 18.4148 37.0663 18.3643C39.3081 16.9589 40.9309 13.4527 42.0312 9.90206C43.621 4.77165 42.0105 1.75446 37.9476 0.495393C33.8847 -0.763677 28.9079 0.212153 27.318 5.34256C26.233 8.84366 27.7078 13.2523 30.0451 16.0995C28.9305 16.41 27.8097 16.9766 26.7339 17.7498C23.4338 19.2899 18.3168 22.5193 14.5076 26.8505C8.67163 33.4861 5.8011 41.9112 8.90676 44.6426C10.7949 46.3032 11.2744 44.082 12.0222 40.6184C12.7639 37.1827 13.7696 32.5246 16.6758 29.2202C17.8063 27.9347 19.1728 26.8352 20.6076 25.868C19.7476 28.0089 19.2377 30.3451 19.2377 32.723C19.2377 37.1493 20.4559 41.1506 22.4188 44.0196C21.5131 45.9828 21.8248 49.0089 22.1692 52.3538C22.3648 54.2527 22.5709 56.2544 22.5709 58.2226C22.5709 62.0148 19.9317 65.6163 17.8266 68.4888C15.5008 71.6625 13.8272 73.9464 17.0859 74.6144C19.4574 74.6144 27.9519 67.1436 27.9519 59.1614C27.9519 56.641 28.2251 53.972 28.4782 51.4998C28.587 50.4378 28.692 49.4121 28.77 48.45C28.7912 48.1893 28.8271 47.6826 28.8271 47.6826C29.0597 47.9538 29.3069 48.234 29.5658 48.522C30.0921 49.1078 30.6663 49.7264 31.2631 50.3692C34.0964 53.4211 37.4375 57.02 38.566 60.2556C39.5503 63.0778 39.6951 65.6909 39.8187 67.9224C40.0247 71.6424 40.172 74.3019 44.0525 75.1014C46.4239 75.1014 45.854 68.0694 44.0524 60.2556C42.7388 54.5586 37.3878 48.1218 33.0977 45.0522C33.0494 44.127 32.8755 43.0308 32.6772 41.7803C32.3474 39.6999 31.9498 37.1925 31.9498 34.3353C31.9498 31.0672 32.7689 27.6516 33.4871 24.6573C34.0122 22.4676 34.4834 20.5032 34.5407 18.9863C34.8851 19.0217 35.2187 19.0107 35.5417 18.9576Z"/>
<path fill-rule="evenodd" clip-rule="evenodd" d="M43.8906 4.18753C45.4171 1.78282 58.1935 19.7983 51.4495 21.657C50.6871 20.3421 49.5662 18.8358 48.3859 17.2497C44.9728 12.663 41.063 7.40889 43.8906 4.18753Z"/>
</mask>
<path d="M35.5417 18.9576L34.5537 18.8036L34.3409 20.1682L35.7038 19.9444L35.5417 18.9576ZM37.0663 18.3643L37.5974 19.2116L39.1775 18.2211L37.4782 17.453L37.0663 18.3643ZM35.728 18.4665L36.5723 19.0024L36.8559 18.5556L36.6459 18.0697L35.728 18.4665ZM35.5417 18.9576L35.7038 19.9444C36.3885 19.8319 37.0204 19.5733 37.5974 19.2116L37.0663 18.3643L36.5352 17.517C36.1531 17.7565 35.7692 17.9069 35.3796 17.9708L35.5417 18.9576ZM37.0663 18.3643L37.4782 17.453C37.1769 17.3169 36.8951 17.1926 36.6534 17.101C36.4427 17.021 36.1426 16.917 35.8474 16.9069C35.6932 16.9016 35.4175 16.9159 35.1453 17.0878C34.8295 17.2871 34.6774 17.5945 34.6324 17.87C34.5937 18.1071 34.632 18.3168 34.6651 18.4491C34.7011 18.5932 34.7543 18.7342 34.8101 18.8633L35.728 18.4665L36.6459 18.0697C36.6308 18.0348 36.6205 18.0083 36.6137 17.9892C36.6067 17.9697 36.6048 17.9619 36.6054 17.964C36.6057 17.9653 36.6106 17.9848 36.6137 18.0186C36.6166 18.0514 36.6192 18.1127 36.6062 18.1924C36.576 18.3775 36.4638 18.6206 36.2128 18.779C36.0052 18.91 35.8191 18.9071 35.7787 18.9057C35.7275 18.9039 35.7136 18.8958 35.758 18.9079C35.7966 18.9183 35.8566 18.9378 35.9442 18.971C36.1214 19.0382 36.3524 19.139 36.6544 19.2755L37.0663 18.3643ZM35.728 18.4665L34.8837 17.9306C34.7124 18.2005 34.6018 18.4946 34.5537 18.8036L35.5417 18.9576L36.5298 19.1117C36.5352 19.0767 36.547 19.0423 36.5723 19.0024L35.728 18.4665ZM35.5417 18.9576L37.5178 19.2657L37.9434 16.5364L35.2176 16.9841L35.5417 18.9576ZM37.0663 18.3643L36.004 16.6697L32.844 18.6507L36.2426 20.1868L37.0663 18.3643ZM28.8271 47.6826L30.3452 46.3805L27.176 42.6853L26.8321 47.5413L28.8271 47.6826ZM29.5658 48.522L31.0535 47.1854L31.0535 47.1854L29.5658 48.522ZM28.77 48.45L26.7766 48.2883V48.2883L28.77 48.45ZM8.27729 21.1544L6.43005 21.921L7.06508 23.4511L8.68667 23.112L8.27729 21.1544ZM6.42227 16.6846L5.54514 14.8872L3.85352 15.7127L4.57503 17.4513L6.42227 16.6846ZM9.13869 15.1175L8.00194 13.4719L7.9938 13.4776L7.98572 13.4833L9.13869 15.1175ZM10.9658 13.5296L12.485 14.8304L12.5012 14.8115L12.517 14.7921L10.9658 13.5296ZM11.856 11.862L9.92763 11.3316L9.9229 11.3488L9.91848 11.3661L11.856 11.862ZM11.904 10.0605L9.94639 10.4699V10.4699L11.904 10.0605ZM11.1042 8.43626L9.57226 9.72197L9.6067 9.76301L9.64329 9.80215L11.1042 8.43626ZM9.63484 7.50327L9.08401 9.42592H9.08401L9.63484 7.50327ZM7.51028 7.49969L7.1009 5.54203L7.51028 7.49969ZM3.90069 9.87374L2.2898 8.68841L2.27775 8.70478L2.26604 8.72139L3.90069 9.87374ZM2.75421 12.0083L1.802 13.7671L3.764 14.8293L4.60623 12.7633L2.75421 12.0083ZM0 10.5172L-1.8505 9.75847L-2.532 11.4207L-0.95221 12.276L0 10.5172ZM1.68671 7.58059L0.132256 6.32215L0.12379 6.33261L0.115465 6.34318L1.68671 7.58059ZM4.0754 5.46185L5.12692 7.16312L5.13732 7.15669L5.14764 7.15014L4.0754 5.46185ZM7.11204 4.24116L6.70266 2.28351L7.11204 4.24116ZM11.083 4.27207L10.5465 6.19877L10.5623 6.20319L10.5783 6.20734L11.083 4.27207ZM14.0211 5.9659L15.468 4.5851L15.468 4.5851L14.0211 5.9659ZM15.5794 9.0163L17.537 8.60692L15.5794 9.0163ZM15.3936 12.1903L17.2954 12.809V12.809L15.3936 12.1903ZM13.6798 15.1669L15.19 16.4782L15.1942 16.4733L13.6798 15.1669ZM10.844 17.517L9.81251 15.8035L8.82755 16.3964L8.84417 17.5459L10.844 17.517ZM10.8887 20.6083L11.298 22.5659L12.9123 22.2284L12.8884 20.5794L10.8887 20.6083ZM8.10498 26.2548L6.14733 26.6642L8.10498 26.2548ZM8.37661 24.3376L6.66405 23.3046H6.66405L8.37661 24.3376ZM9.92735 23.2898L9.51797 21.3322L9.92735 23.2898ZM11.795 23.5883L10.6356 25.218L10.6565 25.2328L10.6777 25.2471L11.795 23.5883ZM12.7851 25.2761L14.7427 24.8667V24.8667L12.7851 25.2761ZM10.9627 28.2411L11.3721 30.1987L10.9627 28.2411ZM9.10197 27.9756L7.94258 29.6053L7.96345 29.6201L7.98469 29.6344L9.10197 27.9756ZM53.9814 43.3381L52.0442 42.8408L51.6323 44.4455L53.1323 45.1488L53.9814 43.3381ZM54.9535 39.5507L55.3325 37.5869L53.4843 37.2302L53.0163 39.0534L54.9535 39.5507ZM57.4688 39.8574L57.549 37.859L57.5391 37.8586L57.5292 37.8583L57.4688 39.8574ZM59.4198 39.719L59.8524 41.6717L59.8768 41.6663L59.901 41.6603L59.4198 39.719ZM60.8044 39.0743L59.5817 37.4915L59.5676 37.5024L59.5537 37.5136L60.8044 39.0743ZM61.7101 37.9341L59.8993 37.0849L61.7101 37.9341ZM61.9821 36.4968L59.985 36.6039L59.9879 36.6574L59.9936 36.7107L61.9821 36.4968ZM61.4861 35.1808L59.8905 36.3866V36.3866L61.4861 35.1808ZM60.1157 34.1469L60.9649 32.3362V32.3362L60.1157 34.1469ZM56.6319 33.9277L56.0565 32.0122L56.0371 32.018L56.0177 32.0243L56.6319 33.9277ZM54.855 34.7496L53.037 35.5832L53.967 37.6113L55.8817 36.466L54.855 34.7496ZM53.8002 32.4493L52.777 30.7309L51.2335 31.65L51.9823 33.283L53.8002 32.4493ZM56.3154 31.3717L55.8291 29.4317L55.816 29.435L55.803 29.4385L56.3154 31.3717ZM58.8868 31.1631L58.705 33.1548L58.7171 33.1559L58.7293 33.1569L58.8868 31.1631ZM61.4406 31.8491L60.5915 33.6599L61.4406 31.8491ZM63.9902 33.7971L62.4036 35.0147L62.4136 35.0278L62.4239 35.0407L63.9902 33.7971ZM65.0654 36.3175L67.0516 36.0833V36.0833L65.0654 36.3175ZM64.5907 39.0442L62.7799 38.195V38.195L64.5907 39.0442ZM62.9297 41.0038L64.0781 42.6412V42.6412L62.9297 41.0038ZM60.3776 42.0942L60.7968 44.0498L60.8031 44.0484L60.3776 42.0942ZM57.4051 42.2351L57.6103 40.2456L56.4667 40.1277L55.7893 41.0565L57.4051 42.2351ZM55.9331 44.2533L55.0839 46.064L56.5771 46.7642L57.5489 45.4318L55.9331 44.2533ZM51.3938 46.5484L53.2045 47.3976V47.3976L51.3938 46.5484ZM52.5 45.4421L51.7519 43.5873V43.5873L52.5 45.4421ZM54.0103 45.5184L53.1611 47.3291V47.3291L54.0103 45.5184ZM55.0716 46.6179L53.1656 47.2239L53.1733 47.2483L53.1817 47.2725L55.0716 46.6179ZM54.8915 48.1887L53.0807 47.3395L54.8915 48.1887ZM52.275 49.2188L53.1242 47.408V47.408L52.275 49.2188ZM51.2022 48.1439L49.2962 48.7498L49.3039 48.7742L49.3123 48.7984L51.2022 48.1439ZM48.6621 52.4548V50.4548H46.6621V52.4548H48.6621ZM64.4805 52.4548H66.4805V50.4548H64.4805V52.4548ZM64.4805 75.1014V77.1014H66.4805V75.1014H64.4805ZM48.6621 75.1014H46.6621V77.1014H48.6621V75.1014ZM49.6539 26.3328L49.4817 24.3403L49.4816 24.3403L49.6539 26.3328ZM47.5337 21.4259L48.0274 19.4878L47.872 19.4482L47.7122 19.4339L47.5337 21.4259ZM37.4205 18.5253L38.25 16.7055L38.25 16.7055L37.4205 18.5253ZM42.0312 9.90206L40.1208 9.31005V9.31005L42.0312 9.90206ZM27.318 5.34256L25.4076 4.75055V4.75055L27.318 5.34256ZM30.0451 16.0995L30.5818 18.0262L33.5382 17.2026L31.591 14.8305L30.0451 16.0995ZM26.7339 17.7498L27.5797 19.5622L27.7492 19.4831L27.9011 19.3739L26.7339 17.7498ZM14.5076 26.8505L16.0094 28.1713V28.1713L14.5076 26.8505ZM8.90676 44.6426L10.2276 43.1408H10.2276L8.90676 44.6426ZM12.0222 40.6184L13.9771 41.0405H13.9771L12.0222 40.6184ZM16.6758 29.2202L15.174 27.8993H15.174L16.6758 29.2202ZM20.6076 25.868L22.4635 26.6136L24.8922 20.5681L19.4898 24.2096L20.6076 25.868ZM22.4188 44.0196L24.2349 44.8574L24.7103 43.8269L24.0694 42.8902L22.4188 44.0196ZM22.1692 52.3538L24.1587 52.149V52.149L22.1692 52.3538ZM17.8266 68.4888L19.4398 69.671V69.671L17.8266 68.4888ZM17.0859 74.6144L16.6843 76.5736L16.883 76.6144H17.0859V74.6144ZM28.4782 51.4998L26.4886 51.2961V51.2961L28.4782 51.4998ZM31.2631 50.3692L32.7289 49.0085L32.7288 49.0085L31.2631 50.3692ZM38.566 60.2556L40.4544 59.5969V59.5969L38.566 60.2556ZM39.8187 67.9224L37.8217 68.033V68.033L39.8187 67.9224ZM44.0525 75.1014L43.6489 77.0602L43.8486 77.1014H44.0525V75.1014ZM44.0524 60.2556L42.1035 60.7049V60.7049L44.0524 60.2556ZM33.0977 45.0522L31.1004 45.1565L31.1506 46.1183L31.9339 46.6788L33.0977 45.0522ZM32.6772 41.7803L34.6526 41.467V41.467L32.6772 41.7803ZM33.4871 24.6573L35.4319 25.1237V25.1237L33.4871 24.6573ZM34.5407 18.9863L34.7453 16.9968L32.6227 16.7785L32.5421 18.9107L34.5407 18.9863ZM43.8906 4.18753L45.3937 5.50689L45.496 5.39033L45.5792 5.25938L43.8906 4.18753ZM48.3859 17.2497L49.9905 16.0558L49.9905 16.0558L48.3859 17.2497ZM28.8271 47.6826L27.3089 48.9846C27.554 49.2704 27.8119 49.5624 28.078 49.8587L29.5658 48.522L31.0535 47.1854C30.802 46.9055 30.5653 46.6372 30.3452 46.3805L28.8271 47.6826ZM28.77 48.45L30.7635 48.6117C30.7748 48.4724 30.7896 48.2732 30.8012 48.114C30.8071 48.0333 30.8123 47.9609 30.816 47.9087C30.8179 47.8826 30.8194 47.8615 30.8204 47.8469C30.821 47.8395 30.8214 47.8338 30.8216 47.8299C30.8218 47.828 30.8219 47.8265 30.822 47.8255C30.822 47.825 30.822 47.8246 30.822 47.8243C30.8221 47.8242 30.8221 47.8241 30.8221 47.824C30.8221 47.8239 30.8221 47.8239 30.8221 47.8239C30.8221 47.8239 30.8221 47.8239 30.8221 47.8239C30.8221 47.8239 30.8221 47.8238 28.8271 47.6826C26.8321 47.5413 26.8321 47.5413 26.8321 47.5413C26.8321 47.5413 26.8321 47.5413 26.8321 47.5413C26.8321 47.5413 26.8321 47.5413 26.8321 47.5413C26.8321 47.5414 26.8321 47.5414 26.832 47.5415C26.832 47.5418 26.832 47.5421 26.832 47.5426C26.8319 47.5435 26.8318 47.5448 26.8317 47.5467C26.8314 47.5503 26.831 47.5558 26.8305 47.5628C26.8295 47.5769 26.8281 47.5974 26.8262 47.6229C26.8226 47.6739 26.8175 47.7445 26.8118 47.8231C26.8002 47.9824 26.7864 48.167 26.7766 48.2883L28.77 48.45ZM8.27729 21.1544L10.1245 20.3877L8.2695 15.918L6.42227 16.6846L4.57503 17.4513L6.43005 21.921L8.27729 21.1544ZM6.42227 16.6846L7.29939 18.482C8.43812 17.9263 9.44163 17.3514 10.2916 16.7517L9.13869 15.1175L7.98572 13.4833C7.35513 13.9281 6.54769 14.398 5.54514 14.8872L6.42227 16.6846ZM9.13869 15.1175L10.2754 16.763C11.1372 16.1677 11.8882 15.5274 12.485 14.8304L10.9658 13.5296L9.4467 12.2287C9.1331 12.595 8.666 13.0132 8.00194 13.4719L9.13869 15.1175ZM10.9658 13.5296L12.517 14.7921C13.1078 14.0663 13.5639 13.2553 13.7935 12.358L11.856 11.862L9.91848 11.3661C9.86244 11.585 9.72509 11.8857 9.41471 12.267L10.9658 13.5296ZM11.856 11.862L13.7844 12.3924C14.0328 11.4893 14.0531 10.5663 13.8617 9.6511L11.904 10.0605L9.94639 10.4699C10.0127 10.787 10.001 11.065 9.92763 11.3316L11.856 11.862ZM11.904 10.0605L13.8617 9.6511C13.6613 8.69286 13.2492 7.80202 12.5652 7.07037L11.1042 8.43626L9.64329 9.80215C9.74956 9.91581 9.87068 10.1078 9.94639 10.4699L11.904 10.0605ZM11.1042 8.43626L12.6362 7.15055C11.985 6.37463 11.1439 5.85514 10.1857 5.58062L9.63484 7.50327L9.08401 9.42592C9.33071 9.4966 9.46914 9.5991 9.57226 9.72197L11.1042 8.43626ZM9.63484 7.50327L10.1857 5.58062C9.18545 5.29406 8.13301 5.3262 7.1009 5.54203L7.51028 7.49969L7.91966 9.45734C8.51541 9.33276 8.87934 9.36729 9.08401 9.42592L9.63484 7.50327ZM7.51028 7.49969L7.1009 5.54203C6.1183 5.74751 5.20436 6.1213 4.37937 6.67251L5.49045 8.33549L6.60154 9.99846C6.97743 9.74732 7.41005 9.56391 7.91966 9.45734L7.51028 7.49969ZM5.49045 8.33549L4.37937 6.67251C3.57212 7.21186 2.87666 7.89084 2.2898 8.68841L3.90069 9.87374L5.51159 11.0591C5.84351 10.608 6.20789 10.2615 6.60154 9.99846L5.49045 8.33549ZM3.90069 9.87374L2.26604 8.72139C1.73051 9.48106 1.27886 10.3293 0.902188 11.2533L2.75421 12.0083L4.60623 12.7633C4.88464 12.0804 5.19731 11.5056 5.53535 11.0261L3.90069 9.87374ZM2.75421 12.0083L3.70642 10.2495L0.95221 8.7584L0 10.5172L-0.95221 12.276L1.802 13.7671L2.75421 12.0083ZM0 10.5172L1.8505 11.2759C2.24032 10.3251 2.71247 9.51065 3.25795 8.81801L1.68671 7.58059L0.115465 6.34318C-0.68161 7.35528 -1.33393 8.49854 -1.8505 9.75847L0 10.5172ZM1.68671 7.58059L3.24116 8.83903C3.79979 8.14901 4.42802 7.5951 5.12692 7.16312L4.0754 5.46185L3.02388 3.76059C1.92564 4.43939 0.961408 5.29796 0.132256 6.32215L1.68671 7.58059ZM4.0754 5.46185L5.14764 7.15014C5.85271 6.70234 6.63881 6.38338 7.52142 6.19881L7.11204 4.24116L6.70266 2.28351C5.36957 2.56228 4.13124 3.05712 3.00316 3.77357L4.0754 5.46185ZM7.11204 4.24116L7.52142 6.19881C8.74819 5.94228 9.7396 5.9741 10.5465 6.19877L11.083 4.27207L11.6194 2.34536C10.071 1.91419 8.4151 1.92541 6.70266 2.28351L7.11204 4.24116ZM11.083 4.27207L10.5783 6.20734C11.4163 6.42589 12.0619 6.80984 12.5743 7.34669L14.0211 5.9659L15.468 4.5851C14.4089 3.47534 13.0957 2.73007 11.5876 2.33679L11.083 4.27207ZM14.0211 5.9659L12.5743 7.34669C13.0803 7.87693 13.4381 8.54772 13.6217 9.42568L15.5794 9.0163L17.537 8.60692C17.2144 7.06428 16.5334 5.70148 15.468 4.5851L14.0211 5.9659ZM15.5794 9.0163L13.6217 9.42568C13.7687 10.1288 13.7321 10.8324 13.4917 11.5715L15.3936 12.1903L17.2954 12.809C17.7445 11.4286 17.8317 10.0164 17.537 8.60692L15.5794 9.0163ZM15.3936 12.1903L13.4917 11.5715C13.2367 12.3553 12.8064 13.1176 12.1654 13.8606L13.6798 15.1669L15.1942 16.4733C16.1488 15.3668 16.8609 14.1447 17.2954 12.809L15.3936 12.1903ZM13.6798 15.1669L12.1697 13.8557C11.5393 14.5817 10.7598 15.2332 9.81251 15.8035L10.844 17.517L11.8754 19.2305C13.1498 18.4634 14.261 17.5482 15.19 16.4782L13.6798 15.1669ZM10.844 17.517L8.84417 17.5459L8.88887 20.6372L10.8887 20.6083L12.8884 20.5794L12.8438 17.4881L10.844 17.517ZM10.8887 20.6083L10.4793 18.6506L7.86791 19.1967L8.27729 21.1544L8.68667 23.112L11.298 22.5659L10.8887 20.6083ZM8.10498 26.2548L10.0626 25.8454C9.99745 25.5337 10.0565 25.4247 10.0892 25.3706L8.37661 24.3376L6.66405 23.3046C6.0308 24.3544 5.9088 25.5235 6.14733 26.6642L8.10498 26.2548ZM8.37661 24.3376L10.0892 25.3706C10.1108 25.3348 10.1239 25.3255 10.1337 25.3189C10.1477 25.3094 10.2031 25.2754 10.3367 25.2475L9.92735 23.2898L9.51797 21.3322C8.33995 21.5785 7.31752 22.2212 6.66405 23.3046L8.37661 24.3376ZM9.92735 23.2898L10.3367 25.2475C10.5197 25.2092 10.6121 25.2182 10.6382 25.2224C10.6508 25.2244 10.6521 25.2259 10.6464 25.2235C10.6441 25.2226 10.6415 25.2214 10.639 25.22C10.6366 25.2187 10.6354 25.2178 10.6356 25.218L11.795 23.5883L12.9544 21.9586C11.8943 21.2044 10.6668 21.0919 9.51797 21.3322L9.92735 23.2898ZM11.795 23.5883L10.6777 25.2471C10.6537 25.231 10.6603 25.2244 10.6882 25.272C10.7208 25.3276 10.7787 25.4525 10.8274 25.6855L12.7851 25.2761L14.7427 24.8667C14.5094 23.751 13.9747 22.645 12.9123 21.9295L11.795 23.5883ZM12.7851 25.2761L10.8274 25.6855C10.8926 25.9972 10.8335 26.1062 10.8009 26.1603L12.5135 27.1933L14.226 28.2263C14.8593 27.1765 14.9813 26.0074 14.7427 24.8667L12.7851 25.2761ZM12.5135 27.1933L10.8009 26.1603C10.7793 26.1961 10.7662 26.2054 10.7564 26.212C10.7424 26.2215 10.687 26.2555 10.5534 26.2834L10.9627 28.2411L11.3721 30.1987C12.5501 29.9524 13.5726 29.3096 14.226 28.2263L12.5135 27.1933ZM10.9627 28.2411L10.5534 26.2834C10.3601 26.3238 10.2566 26.3169 10.2204 26.3118C10.1936 26.3079 10.2032 26.306 10.2193 26.3168L9.10197 27.9756L7.98469 29.6344C9.04304 30.3473 10.2527 30.4328 11.3721 30.1987L10.9627 28.2411ZM9.10197 27.9756L10.2614 26.3459C10.2596 26.3447 10.2558 26.3419 10.2491 26.3343C10.242 26.3265 10.2278 26.309 10.209 26.2765C10.1703 26.2096 10.1111 26.0773 10.0626 25.8454L8.10498 26.2548L6.14733 26.6642C6.38209 27.7868 6.9158 28.8748 7.94258 29.6053L9.10197 27.9756ZM53.9814 43.3381L55.9186 43.8353L56.8907 40.0479L54.9535 39.5507L53.0163 39.0534L52.0442 42.8408L53.9814 43.3381ZM54.9535 39.5507L54.5746 41.5144C55.5941 41.7112 56.5425 41.8303 57.4084 41.8565L57.4688 39.8574L57.5292 37.8583C56.9317 37.8403 56.2033 37.7549 55.3325 37.5869L54.9535 39.5507ZM57.4688 39.8574L57.3886 41.8558C58.2573 41.8907 59.0878 41.8411 59.8524 41.6717L59.4198 39.719L58.9872 37.7664C58.6477 37.8416 58.1775 37.8843 57.549 37.859L57.4688 39.8574ZM59.4198 39.719L59.901 41.6603C60.6764 41.4681 61.4186 41.145 62.055 40.6349L60.8044 39.0743L59.5537 37.5136C59.4636 37.5857 59.2828 37.6925 58.9386 37.7778L59.4198 39.719ZM60.8044 39.0743L62.027 40.657C62.6761 40.1556 63.1752 39.5203 63.5208 38.7832L61.7101 37.9341L59.8993 37.0849C59.813 37.2689 59.7084 37.3937 59.5817 37.4915L60.8044 39.0743ZM61.7101 37.9341L63.5208 38.7832C63.8815 38.0141 64.0659 37.1683 63.9706 36.2829L61.9821 36.4968L59.9936 36.7107C59.9983 36.7549 60.0013 36.8673 59.8993 37.0849L61.7101 37.9341ZM61.9821 36.4968L63.9792 36.3897C63.931 35.4906 63.6101 34.6742 63.0817 33.975L61.4861 35.1808L59.8905 36.3866C59.9727 36.4953 59.9824 36.5562 59.985 36.6039L61.9821 36.4968ZM61.4861 35.1808L63.0817 33.975C62.527 33.2409 61.775 32.7161 60.9649 32.3362L60.1157 34.1469L59.2666 35.9577C59.6731 36.1484 59.8347 36.3127 59.8905 36.3866L61.4861 35.1808ZM60.1157 34.1469L60.9649 32.3362C60.1885 31.9721 59.3688 31.7566 58.5166 31.7092L58.4054 33.7061L58.2943 35.703C58.6072 35.7204 58.9277 35.7988 59.2666 35.9577L60.1157 34.1469ZM58.4054 33.7061L58.5166 31.7092C57.6857 31.6629 56.8623 31.7702 56.0565 32.0122L56.6319 33.9277L57.2072 35.8431C57.601 35.7248 57.96 35.6844 58.2943 35.703L58.4054 33.7061ZM56.6319 33.9277L56.0177 32.0243C55.2717 32.265 54.5417 32.6065 53.8284 33.0332L54.855 34.7496L55.8817 36.466C56.3716 36.1729 56.8262 35.9665 57.246 35.831L56.6319 33.9277ZM54.855 34.7496L56.673 33.916L55.6182 31.6157L53.8002 32.4493L51.9823 33.283L53.037 35.5832L54.855 34.7496ZM53.8002 32.4493L54.8235 34.1678C55.5093 33.7594 56.1769 33.4775 56.8277 33.305L56.3154 31.3717L55.803 29.4385C54.7591 29.7151 53.7499 30.1516 52.777 30.7309L53.8002 32.4493ZM56.3154 31.3717L56.8017 33.3117C57.4574 33.1473 58.0887 33.0986 58.705 33.1548L58.8868 31.1631L59.0686 29.1714C57.9848 29.0725 56.9019 29.1628 55.8291 29.4317L56.3154 31.3717ZM58.8868 31.1631L58.7293 33.1569C59.3541 33.2062 59.9718 33.3693 60.5915 33.6599L61.4406 31.8491L62.2898 30.0383C61.2535 29.5524 60.1686 29.2581 59.0442 29.1693L58.8868 31.1631ZM61.4406 31.8491L60.5915 33.6599C61.4652 34.0696 62.0366 34.5365 62.4036 35.0147L63.9902 33.7971L65.5768 32.5794C64.7411 31.4905 63.6127 30.6587 62.2898 30.0383L61.4406 31.8491ZM63.9902 33.7971L62.4239 35.0407C62.8177 35.5367 63.0178 36.0319 63.0791 36.5518L65.0654 36.3175L67.0516 36.0833C66.8975 34.7768 66.3809 33.5917 65.5565 32.5534L63.9902 33.7971ZM65.0654 36.3175L63.0791 36.5518C63.1394 37.0627 63.0599 37.5979 62.7799 38.195L64.5907 39.0442L66.4015 39.8933C66.9698 38.6814 67.2068 37.3988 67.0516 36.0833L65.0654 36.3175ZM64.5907 39.0442L62.7799 38.195C62.5629 38.6578 62.2424 39.043 61.7812 39.3664L62.9297 41.0038L64.0781 42.6412C65.0913 41.9306 65.8781 41.0094 66.4015 39.8933L64.5907 39.0442ZM62.9297 41.0038L61.7812 39.3664C61.2817 39.7168 60.6818 39.9811 59.9522 40.14L60.3776 42.0942L60.8031 44.0484C62.0019 43.7874 63.1033 43.3249 64.0781 42.6412L62.9297 41.0038ZM60.3776 42.0942L59.9584 40.1386C59.2416 40.2923 58.4625 40.3335 57.6103 40.2456L57.4051 42.2351L57.1999 44.2245C58.4319 44.3516 59.6345 44.2989 60.7968 44.0498L60.3776 42.0942ZM57.4051 42.2351L55.7893 41.0565L54.3172 43.0747L55.9331 44.2533L57.5489 45.4318L59.0209 43.4137L57.4051 42.2351ZM55.9331 44.2533L56.7822 42.4425L54.8306 41.5273L53.9814 43.3381L53.1323 45.1488L55.0839 46.064L55.9331 44.2533ZM51.3938 46.5484L53.2045 47.3976C53.2264 47.3511 53.2447 47.3208 53.257 47.3029C53.2631 47.2939 53.2678 47.2879 53.2709 47.2842C53.2724 47.2823 53.2736 47.281 53.2743 47.2802C53.275 47.2794 53.2754 47.279 53.2754 47.279C53.2755 47.279 53.2751 47.2793 53.2745 47.2799C53.2739 47.2805 53.273 47.2812 53.2718 47.2822C53.2694 47.2842 53.2663 47.2865 53.2628 47.2888C53.2551 47.2939 53.2494 47.2964 53.2481 47.2969L52.5 45.4421L51.7519 43.5873C50.7297 43.9996 50.0172 44.7732 49.583 45.6993L51.3938 46.5484ZM52.5 45.4421L53.2481 47.2969C53.2423 47.2993 53.2272 47.3046 53.2046 47.3084C53.1818 47.3124 53.1591 47.3135 53.139 47.3125C53.1193 47.3115 53.1093 47.3088 53.111 47.3092C53.1131 47.3098 53.1296 47.3144 53.1611 47.3291L54.0103 45.5184L54.8594 43.7076C53.8942 43.255 52.8104 43.1604 51.7519 43.5873L52.5 45.4421ZM54.0103 45.5184L53.1611 47.3291C53.2641 47.3774 53.2785 47.4029 53.2548 47.3783C53.2426 47.3657 53.2248 47.3443 53.2067 47.3142C53.1884 47.2838 53.1747 47.2526 53.1656 47.2239L55.0716 46.6179L56.9776 46.012C56.619 44.8842 55.7896 44.1437 54.8594 43.7076L54.0103 45.5184ZM55.0716 46.6179L53.1817 47.2725C53.1689 47.2356 53.1618 47.2004 53.1588 47.1706C53.1559 47.1414 53.1577 47.1248 53.1578 47.1242C53.1578 47.1242 53.1558 47.1415 53.1447 47.1781C53.1336 47.2149 53.1141 47.2685 53.0807 47.3395L54.8915 48.1887L56.7023 49.0378C57.1203 48.1465 57.3431 47.0656 56.9614 45.9634L55.0716 46.6179ZM54.8915 48.1887L53.0807 47.3395C53.0589 47.386 53.0406 47.4163 53.0283 47.4342C53.0221 47.4432 53.0174 47.4492 53.0144 47.4529C53.0129 47.4548 53.0117 47.4561 53.011 47.4569C53.0102 47.4577 53.0099 47.4581 53.0098 47.4581C53.0098 47.4581 53.0101 47.4578 53.0108 47.4572C53.0114 47.4566 53.0123 47.4559 53.0135 47.4549C53.0159 47.4529 53.0189 47.4506 53.0225 47.4483C53.0301 47.4432 53.0359 47.4407 53.0371 47.4402L53.7853 49.295L54.5334 51.1498C55.5556 50.7375 56.268 49.9639 56.7023 49.0378L54.8915 48.1887ZM53.7853 49.295L53.0371 47.4402C53.043 47.4378 53.0581 47.4325 53.0807 47.4287C53.1034 47.4247 53.1262 47.4236 53.1463 47.4246C53.1659 47.4256 53.176 47.4283 53.1743 47.4279C53.1721 47.4273 53.1557 47.4227 53.1242 47.408L52.275 49.2188L51.4259 51.0295C52.391 51.4821 53.4749 51.5767 54.5334 51.1498L53.7853 49.295ZM52.275 49.2188L53.1242 47.408C53.0117 47.3552 52.9875 47.3243 53.0041 47.341C53.013 47.35 53.0294 47.3684 53.0474 47.3968C53.0656 47.4256 53.0809 47.4573 53.092 47.4893L51.2022 48.1439L49.3123 48.7984C49.6924 49.896 50.5229 50.6061 51.4259 51.0295L52.275 49.2188ZM51.2022 48.1439L53.1082 47.5379C53.1164 47.5639 53.1208 47.5883 53.1225 47.608C53.1241 47.6273 53.1227 47.6355 53.1234 47.6298C53.125 47.6162 53.1369 47.5417 53.2045 47.3976L51.3938 46.5484L49.583 45.6993C49.162 46.597 48.95 47.661 49.2962 48.7498L51.2022 48.1439ZM48.6621 52.4548V54.4548H64.4805V52.4548V50.4548H48.6621V52.4548ZM64.4805 52.4548H62.4805V75.1014H64.4805H66.4805V52.4548H64.4805ZM64.4805 75.1014V73.1014H48.6621V75.1014V77.1014H64.4805V75.1014ZM48.6621 75.1014H50.6621V52.4548H48.6621H46.6621V75.1014H48.6621ZM35.5417 18.9576L33.5656 18.6495C33.422 19.5705 33.6858 20.4041 34.0253 21.048C34.3671 21.6963 34.8533 22.286 35.3791 22.8059C36.4322 23.8471 37.8713 24.8306 39.4268 25.6607C42.4812 27.2908 46.5262 28.6108 49.8263 28.3254L49.6539 26.3328L49.4816 24.3403C47.2825 24.5304 44.0484 23.5931 41.31 22.1318C39.9691 21.4162 38.8834 20.6456 38.1915 19.9615C37.8448 19.6187 37.6535 19.3529 37.5637 19.1826C37.4716 19.008 37.5499 19.0599 37.5178 19.2657L35.5417 18.9576ZM49.6539 26.3328L49.8262 28.3254C51.6975 28.1636 53.7719 27.4801 54.3206 25.3373C54.5526 24.4309 54.4055 23.5462 54.1809 22.8265C53.9518 22.0925 53.5865 21.3554 53.1797 20.6538L51.4495 21.657L49.7193 22.6602C50.0521 23.2342 50.2578 23.6825 50.3626 24.0183C50.4719 24.3686 50.4218 24.4381 50.4456 24.3451C50.4907 24.169 50.6153 24.0839 50.5881 24.0994C50.4959 24.1519 50.1874 24.2792 49.4817 24.3403L49.6539 26.3328ZM51.4495 21.657L50.9181 19.7289C50.483 19.8488 49.5978 19.8878 48.0274 19.4878L47.5337 21.4259L47.04 23.364C48.9067 23.8395 50.5803 23.9711 51.9809 23.5851L51.4495 21.657ZM47.5337 21.4259L47.7122 19.4339C43.4038 19.048 40.1787 17.5847 38.25 16.7055L37.4205 18.5253L36.5909 20.3451C38.5816 21.2526 42.3289 22.9677 47.3553 23.4179L47.5337 21.4259ZM37.4205 18.5253L38.25 16.7055C38.1265 16.6491 38.0053 16.5939 37.89 16.5418L37.0663 18.3643L36.2426 20.1868C36.351 20.2358 36.466 20.2882 36.5909 20.3451L37.4205 18.5253ZM37.0663 18.3643L38.1286 20.0588C39.6661 19.095 40.8344 17.5272 41.7289 15.902C42.6403 14.2463 43.3682 12.3441 43.9415 10.4941L42.0312 9.90206L40.1208 9.31005C39.5938 11.0106 38.9603 12.6368 38.2247 13.9732C37.4723 15.3402 36.7083 16.2282 36.004 16.6697L37.0663 18.3643ZM42.0312 9.90206L43.9415 10.4941C44.8142 7.67816 44.9232 5.0865 43.9273 2.91368C42.9085 0.690804 40.9298 -0.674273 38.5396 -1.41498L37.9476 0.495393L37.3556 2.40577C39.0283 2.92413 39.8863 3.69718 40.291 4.58026C40.7187 5.51341 40.838 6.99555 40.1208 9.31005L42.0312 9.90206ZM37.9476 0.495393L38.5396 -1.41498C36.1798 -2.14626 33.4554 -2.2647 31.0063 -1.35089C28.4825 -0.409223 26.3883 1.58593 25.4076 4.75055L27.318 5.34256L29.2284 5.93457C29.8376 3.96878 31.0268 2.91082 32.4046 2.39674C33.857 1.8548 35.6524 1.87798 37.3556 2.40577L37.9476 0.495393ZM27.318 5.34256L25.4076 4.75055C24.0597 9.10009 25.8935 14.1943 28.4993 17.3685L30.0451 16.0995L31.591 14.8305C29.5221 12.3104 28.4063 8.58723 29.2284 5.93457L27.318 5.34256ZM30.0451 16.0995L29.5084 14.1729C28.1268 14.5578 26.7956 15.2425 25.5666 16.1258L26.7339 17.7498L27.9011 19.3739C28.8238 18.7107 29.7343 18.2623 30.5818 18.0262L30.0451 16.0995ZM26.7339 17.7498L25.8881 15.9375C22.4031 17.5638 17.0397 20.9431 13.0058 25.5296L14.5076 26.8505L16.0094 28.1713C19.594 24.0956 24.4644 21.016 27.5797 19.5622L26.7339 17.7498ZM14.5076 26.8505L13.0058 25.5296C9.93686 29.0191 7.60677 33.0187 6.45096 36.5957C5.87437 38.3801 5.55847 40.1564 5.65457 41.7628C5.75081 43.3715 6.27938 44.9953 7.58593 46.1444L8.90676 44.6426L10.2276 43.1408C9.9813 42.9242 9.70406 42.4705 9.64744 41.524C9.59067 40.5751 9.77484 39.3183 10.2572 37.8256C11.2192 34.8483 13.2424 31.3175 16.0094 28.1713L14.5076 26.8505ZM8.90676 44.6426L7.58593 46.1444C8.167 46.6554 9.09402 47.2981 10.2632 47.1935C11.5525 47.0781 12.2763 46.1564 12.6255 45.5498C12.9866 44.9225 13.2291 44.1611 13.4171 43.4602C13.6122 42.7331 13.7934 41.8918 13.9771 41.0405L12.0222 40.6184L10.0672 40.1964C9.87714 41.0768 9.71791 41.812 9.5538 42.4236C9.38264 43.0615 9.24702 43.401 9.15878 43.5543C9.05857 43.7284 9.26168 43.2671 9.90667 43.2094C10.4316 43.1624 10.5906 43.46 10.2276 43.1408L8.90676 44.6426ZM12.0222 40.6184L13.9771 41.0405C14.7395 37.509 15.6717 33.3902 18.1776 30.541L16.6758 29.2202L15.174 27.8993C11.8674 31.659 10.7883 36.8564 10.0672 40.1964L12.0222 40.6184ZM16.6758 29.2202L18.1776 30.541C19.1587 29.4255 20.3781 28.4347 21.7255 27.5264L20.6076 25.868L19.4898 24.2096C17.9676 25.2356 16.454 26.444 15.174 27.8993L16.6758 29.2202ZM20.6076 25.868L18.7518 25.1225C17.8077 27.4725 17.2377 30.0613 17.2377 32.723H19.2377H21.2377C21.2377 30.6289 21.6875 28.5452 22.4635 26.6136L20.6076 25.868ZM19.2377 32.723H17.2377C17.2377 37.4947 18.5472 41.9027 20.7682 45.1489L22.4188 44.0196L24.0694 42.8902C22.3646 40.3985 21.2377 36.8039 21.2377 32.723H19.2377ZM22.4188 44.0196L20.6027 43.1818C19.9654 44.5634 19.817 46.1627 19.8253 47.6795C19.8337 49.2161 20.0102 50.9122 20.1798 52.5587L22.1692 52.3538L24.1587 52.149C23.9838 50.4506 23.8323 48.9612 23.8252 47.6576C23.818 46.3343 23.9666 45.439 24.2349 44.8574L22.4188 44.0196ZM22.1692 52.3538L20.1798 52.5587C20.3771 54.4751 20.5709 56.3743 20.5709 58.2226H22.5709H24.5709C24.5709 56.1344 24.3525 54.0303 24.1587 52.149L22.1692 52.3538ZM22.5709 58.2226H20.5709C20.5709 59.662 20.0665 61.1761 19.2228 62.7607C18.3782 64.347 17.2792 65.8523 16.2134 67.3066L17.8266 68.4888L19.4398 69.671C20.4791 68.2529 21.7522 66.5212 22.7535 64.6405C23.7558 62.7582 24.5709 60.5754 24.5709 58.2226H22.5709ZM17.8266 68.4888L16.2134 67.3066C15.6419 68.0864 15.0628 68.8755 14.5911 69.6062C14.1333 70.3154 13.6747 71.121 13.4397 71.9393C13.1961 72.7877 13.1147 73.9623 13.8929 75.0125C14.5969 75.9626 15.6974 76.3713 16.6843 76.5736L17.0859 74.6144L17.4875 72.6551C16.845 72.5234 16.9327 72.3962 17.1067 72.631C17.3548 72.9659 17.2262 73.2459 17.2844 73.0432C17.3512 72.8103 17.5434 72.4082 17.9517 71.7756C18.3461 71.1646 18.8484 70.4781 19.4398 69.671L17.8266 68.4888ZM17.0859 74.6144V76.6144C17.8296 76.6144 18.5454 76.3459 19.0973 76.0817C19.6969 75.7946 20.3299 75.4003 20.9637 74.9375C22.2339 74.0099 23.6331 72.7145 24.9362 71.1717C27.5027 68.1328 29.9519 63.8229 29.9519 59.1614H27.9519H25.9519C25.9519 62.4821 24.1538 65.8987 21.8802 68.5908C20.7632 69.9134 19.5941 70.9846 18.6046 71.7072C18.1085 72.0695 17.6889 72.3212 17.37 72.4739C17.0034 72.6494 16.935 72.6144 17.0859 72.6144V74.6144ZM27.9519 59.1614H29.9519C29.9519 56.7611 30.2127 54.1956 30.4678 51.7035L28.4782 51.4998L26.4886 51.2961C26.2376 53.7484 25.9519 56.5209 25.9519 59.1614H27.9519ZM28.4782 51.4998L30.4678 51.7035C30.5761 50.6463 30.6834 49.5987 30.7635 48.6117L28.77 48.45L26.7766 48.2883C26.7006 49.2254 26.5978 50.2294 26.4886 51.2961L28.4782 51.4998ZM29.5658 48.522L28.078 49.8587C28.6173 50.4589 29.2031 51.0899 29.7974 51.73L31.2631 50.3692L32.7288 49.0085C32.1295 48.3629 31.5669 47.7568 31.0535 47.1854L29.5658 48.522ZM31.2631 50.3692L29.7974 51.73C31.2242 53.2669 32.7117 54.8708 33.9839 56.4826C35.271 58.1132 36.2238 59.6132 36.6776 60.9142L38.566 60.2556L40.4544 59.5969C39.7797 57.6623 38.4977 55.7451 37.1237 54.0044C35.735 52.2449 34.1352 50.5234 32.7289 49.0085L31.2631 50.3692ZM38.566 60.2556L36.6776 60.9142C37.5582 63.4392 37.6976 65.7915 37.8217 68.033L39.8187 67.9224L41.8156 67.8118C41.6926 65.5903 41.5424 62.7164 40.4544 59.5969L38.566 60.2556ZM39.8187 67.9224L37.8217 68.033C37.9177 69.766 38.001 71.7822 38.7306 73.4207C39.1265 74.3096 39.7175 75.1198 40.5868 75.7684C41.4409 76.4057 42.4699 76.8173 43.6489 77.0602L44.0525 75.1014L44.456 73.1425C43.6948 72.9857 43.2502 72.765 42.9789 72.5625C42.7227 72.3714 42.5365 72.1344 42.3847 71.7935C42.019 70.9723 41.9257 69.7988 41.8156 67.8118L39.8187 67.9224ZM44.0525 75.1014V77.1014C44.9062 77.1014 45.6574 76.7614 46.2204 76.1992C46.7345 75.6858 47.0292 75.0543 47.2098 74.4942C47.5669 73.3866 47.654 71.9918 47.6167 70.5566C47.5403 67.6276 46.9145 63.7672 46.0012 59.8062L44.0524 60.2556L42.1035 60.7049C42.9919 64.5578 43.5518 68.1203 43.618 70.6607C43.6519 71.9602 43.5495 72.8117 43.4028 73.2668C43.3314 73.4881 43.2956 73.467 43.3941 73.3687C43.5414 73.2216 43.7916 73.1014 44.0525 73.1014V75.1014ZM44.0524 60.2556L46.0012 59.8062C45.2581 56.5833 43.4192 53.2928 41.2885 50.4651C39.1479 47.6241 36.5964 45.0964 34.2614 43.4257L33.0977 45.0522L31.9339 46.6788C33.889 48.0777 36.1581 50.3031 38.0939 52.8722C40.0397 55.4545 41.5331 58.2309 42.1035 60.7049L44.0524 60.2556ZM33.0977 45.0522L35.0949 44.948C35.04 43.895 34.8454 42.683 34.6526 41.467L32.6772 41.7803L30.7019 42.0935C30.9057 43.3786 31.0588 44.359 31.1004 45.1565L33.0977 45.0522ZM32.6772 41.7803L34.6526 41.467C34.3218 39.3813 33.9498 37.0164 33.9498 34.3353H31.9498H29.9498C29.9498 37.3686 30.3729 40.0185 30.7019 42.0935L32.6772 41.7803ZM31.9498 34.3353H33.9498C33.9498 31.345 34.703 28.1631 35.4319 25.1237L33.4871 24.6573L31.5422 24.1908C30.8349 27.1402 29.9498 30.7895 29.9498 34.3353H31.9498ZM33.4871 24.6573L35.4319 25.1237C35.9385 23.0116 36.4727 20.823 36.5393 19.0618L34.5407 18.9863L32.5421 18.9107C32.494 20.1834 32.086 21.9237 31.5422 24.1908L33.4871 24.6573ZM34.5407 18.9863L34.3361 20.9758C34.8555 21.0292 35.3669 21.0131 35.8659 20.9312L35.5417 18.9576L35.2176 16.9841C35.0705 17.0082 34.9147 17.0142 34.7453 16.9968L34.5407 18.9863ZM43.8906 4.18753L45.5792 5.25938C45.283 5.72597 44.7617 5.96783 44.2977 5.96701C43.9834 5.96646 43.8455 5.85721 43.9641 5.92264C44.1726 6.0377 44.6009 6.37147 45.2121 7.01668C46.3896 8.25979 47.8281 10.2097 49.0362 12.3179C50.2626 14.4579 51.1284 16.5482 51.3483 18.0879C51.4583 18.8575 51.3755 19.2811 51.2931 19.4683C51.2556 19.5534 51.214 19.6473 50.9181 19.7289L51.4495 21.657L51.9809 23.5851C53.371 23.202 54.4054 22.3263 54.9541 21.0799C55.4579 19.9354 55.4714 18.6654 55.3081 17.5222C54.9816 15.2365 53.8223 12.6247 52.5068 10.3291C51.173 8.00166 49.5526 5.7824 48.116 4.26585C47.4202 3.53123 46.6525 2.83755 45.8965 2.4204C45.5328 2.21973 44.9705 1.96819 44.3047 1.96702C43.4891 1.96559 42.6891 2.34851 42.2021 3.11568L43.8906 4.18753ZM51.4495 21.657L53.1797 20.6538C52.3475 19.2186 51.1479 17.6112 49.9905 16.0558L48.3859 17.2497L46.7814 18.4437C47.9846 20.0605 49.0267 21.4657 49.7193 22.6602L51.4495 21.657ZM48.3859 17.2497L49.9905 16.0558C48.2463 13.7119 46.5606 11.4315 45.6158 9.37247C44.6455 7.25805 44.8038 6.17893 45.3937 5.50689L43.8906 4.18753L42.3875 2.86817C40.1498 5.4175 40.8493 8.57609 41.9803 11.0407C43.1367 13.5608 45.1124 16.2008 46.7814 18.4437L48.3859 17.2497Z" fill="#989898" mask="url(#path-1-inside-1_1675_1625)"/>
</svg>
