<svg width="67" height="76" viewBox="0 0 67 76" fill="none" xmlns="http://www.w3.org/2000/svg">
<path d="M32.6152 1.45996C34.3168 0.825174 36.3447 0.871568 38.2119 1.4502C39.6936 1.90952 40.5698 3.37107 40.9004 5.47461C41.2259 7.54577 40.9531 9.91822 40.4424 11.5664C39.8795 13.3827 39.5254 14.5493 39.0527 15.4551C38.6827 16.1641 38.2382 16.7058 37.5215 17.2266C37.413 17.1807 37.3097 17.1373 37.2129 17.1006C37.0022 17.0207 36.7023 16.9174 36.4072 16.9072C36.253 16.9019 35.9773 16.9161 35.7051 17.0879C35.3894 17.2872 35.2374 17.5947 35.1924 17.8701C35.1858 17.9103 35.1832 17.9499 35.1807 17.9883L34.1416 17.8828L34.1016 18.9482C34.0441 20.4677 33.8158 24.0173 33.3164 26.0996C32.6952 28.6898 32.7266 32.1879 33.3086 35.7344C33.8924 39.2916 35.0475 42.9991 36.7568 46.0117C38.1574 48.4801 40.0218 50.8515 41.5723 53.1318C43.1596 55.4663 44.5045 57.8149 45.1191 60.4805C45.7629 63.2726 46.2469 66.8936 46.1514 69.7812C46.1031 71.2377 45.91 72.4129 45.5781 73.1895C45.2532 73.9495 44.9164 74.1016 44.6123 74.1016C42.8251 74.1016 41.7141 73.4879 40.9971 72.5732C40.2431 71.6114 39.8278 70.1912 39.7305 68.4336C39.3331 61.2599 35.791 53.6875 30.4785 47.4932L28.7197 45.4414V48.1436C28.7197 50.3158 28.8487 52.5924 28.9111 54.7568C28.9744 56.9497 28.9725 59.0767 28.7275 61.085C28.3061 64.5392 26.8316 67.8652 25.1709 70.3252C24.3415 71.5537 23.4851 72.537 22.7227 73.2002C22.3415 73.5317 22.0018 73.7681 21.7168 73.917C21.4232 74.0703 21.2443 74.1014 21.168 74.1016H21.167C19.5075 74.1014 18.6703 73.4038 18.3613 72.6191C18.0294 71.7758 18.1655 70.4827 19.1934 69.0801C21.3605 66.1229 23.4843 61.744 23.4844 57.6523C23.4844 55.0965 22.8803 52.8013 22.21 50.6182C21.5295 48.4022 20.7999 46.3494 20.4248 44.0898C19.4329 38.1146 19.7823 31.4068 22.0957 25.6484L23.3096 22.626L20.6084 24.4473C19.036 25.5072 17.5561 27.341 16.4844 28.5596C14.8942 30.3677 13.8085 32.8851 13.0312 35.3018C12.249 37.7339 11.7449 40.1783 11.377 41.8828C11.0117 43.5746 10.3334 45.9136 9.53711 47.5977C9.12793 48.463 8.7448 49.0299 8.44336 49.2891C8.39863 49.3275 8.36293 49.3507 8.33789 49.3662C8.33607 49.3646 8.33397 49.363 8.33203 49.3613C8.15002 49.2012 7.95918 48.899 7.83008 48.3652C7.70194 47.8352 7.65243 47.1458 7.69531 46.3096C7.78108 44.6373 8.2296 42.528 8.96777 40.2539C10.4466 35.698 13.0151 30.6981 15.8184 27.5107C20.3589 22.348 24.0203 18.216 31.5674 17.6826L33.4971 17.5459L32.2695 16.0498C31.1681 14.708 30.0501 12.8454 29.3428 10.915C28.627 8.96154 28.3847 7.08561 28.833 5.63867C29.5351 3.37318 30.9509 2.08094 32.6152 1.45996ZM65.4766 53.4551V74.1016H49.9463V53.4551H65.4766ZM53.8105 46.5781C54.0058 46.4994 54.2193 46.4907 54.5225 46.6328C54.8938 46.8069 55.0101 46.9865 55.0557 47.1299L55.0635 47.1533C55.109 47.2849 55.1303 47.5302 54.9229 47.9727C54.7582 48.3237 54.561 48.4901 54.3477 48.5762C54.1525 48.6548 53.9397 48.6635 53.6367 48.5215C53.2586 48.3442 53.1351 48.1654 53.0869 48.0322C53.0399 47.868 53.0375 47.6057 53.2363 47.1816C53.4008 46.8309 53.5973 46.6642 53.8105 46.5781ZM57.4951 32.5508C58.255 32.3603 58.9995 32.3003 59.7324 32.3672L59.7451 32.3682C60.4948 32.4274 61.2293 32.6235 61.9531 32.9629C62.939 33.4252 63.6496 33.9834 64.1338 34.6143L64.1436 34.6279C64.6449 35.2595 64.9243 35.927 65.0088 36.6436C65.0927 37.3555 64.9741 38.0774 64.6221 38.8281C64.3285 39.4542 63.8911 39.9734 63.292 40.3936C62.751 40.7729 62.1285 41.0615 61.4141 41.251L61.1045 41.3252C60.2764 41.5026 59.3913 41.5469 58.4443 41.4492L57.873 41.3896L57.5342 41.8545L56.5479 43.2061L56.0918 42.9922L56.6299 40.8975C57.2499 40.9898 57.8286 41.0477 58.3652 41.0645V41.0654C59.1739 41.0979 59.9149 41.0501 60.5732 40.9043L60.585 40.9014L60.5977 40.8984C61.2589 40.7345 61.8546 40.4676 62.3516 40.0732L62.3525 40.0742C62.3558 40.0717 62.359 40.069 62.3623 40.0664C62.3636 40.0654 62.3649 40.0645 62.3662 40.0635L62.3652 40.0625C62.8771 39.6636 63.2744 39.1609 63.5527 38.5674C63.841 37.9526 63.9761 37.3082 63.916 36.6514H63.918C63.8811 35.9654 63.6375 35.3376 63.2207 34.7861C62.7908 34.2173 62.1865 33.7827 61.4775 33.4502C60.8107 33.1375 60.1157 32.956 59.3984 32.916C58.6917 32.8767 57.9841 32.9676 57.2812 33.1787L57.2617 33.1846C56.927 33.2926 56.5928 33.4237 56.2598 33.5781L56.0371 33.0938C56.5248 32.8601 57.0108 32.6801 57.4951 32.5508ZM37.6709 19.4824C39.658 20.3878 43.2068 21.979 47.9336 22.415C49.3001 22.756 50.4802 22.8809 51.4746 22.7705C51.653 23.1232 51.7891 23.4393 51.877 23.7207C52.0149 24.1627 52.0146 24.4359 51.9746 24.5928C51.9366 24.7413 51.7454 25.197 50.1279 25.3369C47.6536 25.5509 44.2168 24.5171 41.3994 23.0137C40.0049 22.2695 38.8301 21.4462 38.0479 20.6729C37.6665 20.2958 37.4064 19.9561 37.252 19.6709C37.3946 19.6148 37.5337 19.5507 37.6709 19.4824ZM10.1318 22.2822C10.6764 22.1684 10.9964 22.2617 11.2148 22.417L11.2256 22.4238L11.2363 22.4316C11.4467 22.5734 11.6748 22.864 11.8066 23.4941C11.9152 24.013 11.84 24.3874 11.6572 24.6904C11.4846 24.9767 11.2201 25.1797 10.7578 25.2764C10.2082 25.3912 9.88447 25.3057 9.67188 25.167C9.44022 24.9979 9.21323 24.6816 9.08398 24.0635C8.97561 23.5449 9.04987 23.171 9.23242 22.8682C9.40508 22.5819 9.66961 22.3789 10.1318 22.2822ZM45.0303 5.06055C45.3753 5.25706 45.8798 5.67646 46.498 6.3291C47.7403 7.64053 49.2244 9.65745 50.4639 11.8203C51.7125 13.9991 52.6518 16.2201 52.8984 17.9463C53.0217 18.8091 52.9562 19.4446 52.7686 19.8711C52.6838 20.0636 52.5647 20.232 52.3936 20.373C51.6445 19.203 50.6999 17.9315 49.748 16.6523C48.0227 14.3338 46.2643 11.9633 45.2666 9.78906C44.3179 7.72143 44.2102 6.18516 45.0303 5.06055ZM7.31641 3.2334C8.66446 2.9515 9.82224 2.9728 10.8145 3.24902L10.8223 3.25098L10.8311 3.25391C11.8364 3.51617 12.6489 3.98996 13.2979 4.66992C13.9436 5.34662 14.3822 6.19041 14.6006 7.23438C14.7845 8.11404 14.735 8.99515 14.4424 9.89453C14.1428 10.8154 13.6431 11.6922 12.9248 12.5254C12.2198 13.3374 11.3571 14.0544 10.3281 14.6738L9.83594 14.9707L9.84375 15.5449L9.87598 17.8115L8.88281 18.0195L7.7002 15.1689C8.45223 14.7696 9.12188 14.3646 9.70605 13.9531L9.70703 13.9541C10.5194 13.3929 11.1996 12.8076 11.7256 12.1934L11.7334 12.1846L11.7412 12.1748C12.2619 11.5351 12.6379 10.8508 12.8242 10.123C13.0243 9.38468 13.0417 8.62873 12.8828 7.86914C12.7136 7.0601 12.3745 6.34366 11.835 5.7666L11.833 5.76758C11.3238 5.17754 10.6728 4.77416 9.91016 4.55566C9.10889 4.32613 8.22859 4.3412 7.30566 4.53418C6.44131 4.71493 5.64729 5.04139 4.93457 5.51758C4.23084 5.98779 3.61877 6.5841 3.0957 7.29492L3.08887 7.30273L3.08301 7.31152C2.79447 7.72085 2.53071 8.16221 2.29004 8.63379L1.29395 8.09375C1.57838 7.51937 1.89646 6.99141 2.24805 6.50879L2.47266 6.21289C3.09681 5.44421 3.80651 4.81758 4.60156 4.32617L4.61133 4.31934C5.42207 3.80443 6.32129 3.44152 7.31641 3.2334Z" stroke="#989898" stroke-width="2"/>
</svg>
