<svg width="46" height="81" viewBox="0 0 46 81" fill="none" xmlns="http://www.w3.org/2000/svg">
<path d="M9.33935 34.2937L20.0201 41.7141L30.7906 34.6214M8.70236 35.6042L18.6872 42.4231L18.687 73.9707L8.70215 67.1518L8.70221 58.4524L8.70223 55.7389L8.70236 35.6042ZM21.2908 42.4231L31.2465 35.8669L31.2463 67.4145L21.2906 73.9707L21.2908 42.4231Z" stroke="white" stroke-width="2"/>
<circle cx="19.9185" cy="18.7798" r="17.2798" stroke="white" stroke-width="3"/>
<line x1="32.4668" y1="39.7893" x2="32.4668" y2="50.6325" stroke="white" stroke-width="7" stroke-linecap="round"/>
<path opacity="0.5" d="M8.875 51.5442L19.8189 58.2219L30.7633 51.5442" stroke="white"/>
<path d="M11.5439 44.5164L13.688 40.084L15.1181 46.5181L12.8304 48.0908L11.5439 44.5164Z" stroke="white"/>
<path d="M2.15625 15.5229C2.15625 31.1281 32.6013 32.2516 37.4369 17.7454" stroke="white"/>
<path opacity="0.5" d="M25.2539 80.2654L44.765 67.082" stroke="white"/>
<path opacity="0.5" d="M0.285156 64.7275L8.55451 58.9962" stroke="white"/>
<path opacity="0.5" d="M37.8637 53.4502L33.9902 56.239" stroke="white"/>
</svg>
