<svg width="70" height="82" viewBox="0 0 70 82" fill="none" xmlns="http://www.w3.org/2000/svg">
<path d="M1 80.5698L68.4243 80.5698M68.4242 38.2563L66.9373 39.2844L62.6517 33.0858L64.1386 32.0577L68.4242 38.2563ZM17.0802 23.2792C25.961 23.2792 33.1605 30.4786 33.1605 39.3594C33.1603 48.2401 25.9609 55.4397 17.0802 55.4397C8.19952 55.4397 1.00021 48.2401 1 39.3594C1 30.4786 8.1994 23.2792 17.0802 23.2792ZM17.0802 26.5297C9.99459 26.5297 4.25045 32.2738 4.25045 39.3594C4.25064 46.4449 9.99471 52.1892 17.0802 52.1892C24.1657 52.1892 29.9098 46.4449 29.91 39.3594C29.91 32.2738 24.1658 26.5297 17.0802 26.5297ZM26.7224 39.2844C26.7224 44.6094 22.4056 48.9262 17.0805 48.9262C11.7555 48.9262 7.43872 44.6094 7.43872 39.2844C7.43872 33.9593 11.7555 29.6425 17.0805 29.6425C22.4056 29.6425 26.7224 33.9593 26.7224 39.2844ZM68.4242 73.0903H47.6284C47.6515 72.789 47.6667 72.4848 47.6668 72.1776C47.6668 67.6848 45.1578 63.7776 41.4646 61.7808L33.0548 49.5532C30.1919 54.2839 25.3729 57.6975 19.7183 58.6725L25.3251 66.8247C24.5068 68.4316 24.0453 70.2507 24.0453 72.1776C24.0453 72.4849 24.0606 72.7891 24.0837 73.0905L1 73.0903V78.4087L33.2921 78.4083L68.4242 78.4087V73.0903ZM46.605 20.2836C47.6454 20.2836 48.6473 20.1189 49.586 19.814L59.5275 34.1929L65.8991 29.7876L55.3991 14.6008C55.9437 13.393 56.2468 12.0528 56.2468 10.6418C56.2468 5.31679 51.93 1 46.605 1C41.28 1 36.9632 5.31679 36.9632 10.6418C36.9632 11.0382 36.9871 11.4289 37.0336 11.8128L24.5064 21.7882C28.2461 23.5065 31.347 26.375 33.3573 29.9407L45.5553 20.2272C45.9001 20.2645 46.2503 20.2836 46.605 20.2836Z" stroke="#989898" stroke-width="2"/>
</svg>
