<svg width="83" height="97" viewBox="0 0 83 97" fill="none" xmlns="http://www.w3.org/2000/svg">
<path d="M9.9209 24.2442L40.3099 44.9977V85.1465L9.9209 64.3931V24.2442Z" stroke="white" stroke-width="2"/>
<path d="M43.1401 44.9977L73.5292 24.9854V65.1342L43.1401 85.1465V44.9977Z" stroke="white" stroke-width="2"/>
<path opacity="0.5" d="M37.5801 46.4761V80.0894L12.7295 63.354V29.7407L37.5801 46.4761Z" stroke="white"/>
<path opacity="0.5" d="M70.5527 64.1438L46.4932 80.0969V47.5344L70.5527 31.5793V64.1438Z" stroke="white"/>
<line opacity="0.5" x1="13.5629" y1="62.3956" x2="37.8305" y2="48.4153" stroke="white"/>
<line opacity="0.5" x1="70.2524" y1="64.5667" x2="46.7758" y2="49.2674" stroke="white"/>
<path d="M33.8203 42.4479L41.87 36.8364L49.9547 42.4479L41.87 48.1092L33.8203 42.4479Z" fill="white"/>
<path opacity="0.5" d="M33.8203 46.8483L41.87 41.2368L49.9547 46.8483L41.87 52.5096L33.8203 46.8483Z" fill="#D9D9D9"/>
<path opacity="0.5" d="M41.8406 7.4616L63.7009 22.5422L41.8406 36.9957L20.3733 22.5429L41.8406 7.4616Z" stroke="white"/>
<path opacity="0.5" d="M41.7914 21.0707L69.0247 39.8574L41.7921 57.863L15.0491 39.858L41.7914 21.0707Z" stroke="white"/>
<path opacity="0.5" d="M39.752 42.1577C40.7854 -0.819321 57.8718 -7.05457 57.8718 10.6089" stroke="white" stroke-linecap="round"/>
<path opacity="0.5" d="M42.1494 38.5364C43.0245 2.14732 62.4644 -2.32257 62.4644 13.0822" stroke="white" stroke-linecap="round"/>
<line opacity="0.5" x1="55.1788" y1="48.2513" x2="28.4761" y2="30.4766" stroke="white" stroke-linecap="round"/>
<line opacity="0.5" x1="28.4725" y1="48.5489" x2="55.5023" y2="30.3542" stroke="white" stroke-linecap="round"/>
<line opacity="0.5" x1="38.5801" y1="11.848" x2="38.5801" y2="22.0511" stroke="white" stroke-linecap="round"/>
<line opacity="0.5" x1="44.9971" y1="11.848" x2="44.9971" y2="22.0511" stroke="white" stroke-linecap="round"/>
<path opacity="0.5" d="M0.286133 66.6483L42.0859 95.7821L81.9869 69.8151" stroke="white"/>
</svg>
